<svg xmlns="http://www.w3.org/2000/svg"><defs><font id="PTSans-Bold" horiz-adv-x="567"><font-face x-height="500" ascent="800" bbox="-387 -273 1191 1010" cap-height="700" descent="-200" font-family="PT Sans" font-weight="700" panose-1="2 11 7 3 2 2 3 2 2 4" underline-position="-100" underline-thickness="50" unicode-range="U+0020-FB02"/><glyph d="M492 500V0H362v390H211V0H81v390H12v110h69v28q0 95 49 138.5T272 710q69 0 122.5-10.5T481 670l-34-101q-26 14-63 22.5t-82 8.5q-29 0-47-6.5t-28-19-13-31.5-3-43h281z" glyph-name="fi" horiz-adv-x="553" unicode="fi"/><glyph d="M360 596q-13 3-35.5 5t-43.5 2q-23 0-37-7t-21.5-20-9.5-32.5-2-43.5h75V390h-75V0H81v390H12v110h69v28q0 94 45.5 139.5T283 713q23 0 53-2t59.5-4.5 55-5.5 39.5-6V168q0-35 9-51t28-16q12 0 23.5 2t28.5 9l15-102q-16-8-49.5-16T476-14q-57 0-86.5 26.5T360 100v496z" glyph-name="fl" horiz-adv-x="593" unicode="fl"/><glyph d="M50 700h650V0H50v700zm520-80L375 403 180 620l-50-50 197-220-197-220 50-50 195 217L570 80l50 50-198 220 198 220zM129 27h8v12h4q6 0 11 2.5t5 9.5q0 8-5.5 10T140 63h-11V27zm12 30q8 0 8-5t-2.5-5.5-6.5-.5h-3v11h4zm48 6h-31v-6h12V27h7v30h12v6zm33-26q0-4-7-4t-9 2l-3-7q2 0 5-1t8-1q14 0 14 12 0 9-9 10t-9 6q0 3 6 3 5 0 9-2l2 7q-6 2-11 2-14 0-14-11 0-5 3-7t6-3.5 6-2.5 3-3zm15 10q4 2 9 2t5-4v-2q-1 0-2 .5t-3 .5q-12 0-12-10 0-8 8-8 6 0 9 5l2-4h6q-1 2-1 7v11q0 10-10 10-4 0-7.5-1t-5.5-2zm8-15q-4 0-4 4t5 4q2 0 3-.5t2-.5v-3q-2-4-6-4zm47-5v16q0 12-9 12-7 0-10-5l-2 4h-5V27h7v17q2 4 6 4 5 0 5-6V27h8zm5 1q4-2 10-2 11 0 11 9 0 5-2.5 6t-5.5 3q-5 2-5 3 0 2 3 2 4 0 8-2l2 6q-4 2-10 2-10 0-10-9 0-5 3-6.5l5-2.5q5 0 5-3 0-2-3-2-5 0-9 2zm41 14q0-21 20-21t20 21q0 20-20 20-8 0-14-5.5T338 42zm6 0q0 15 14 15t14-15-14-15-14 15zm20-4q-2-1-4-1-4 0-4 5 0 4 4 4h3l2 4q-4 2-7 2-9 0-9-10 0-11 9-11 5 0 7 2zm35-11h8v12h4q6 0 11 2.5t5 9.5q0 8-5.5 10T410 63h-11V27zm12 30q8 0 8-5t-2.5-5.5-6.5-.5h-3v11h4zm21-10q4 2 9 2t5-4v-2q-1 0-2 .5t-3 .5q-13 0-13-10 0-8 9-8 6 0 9 5l2-4h6q-1 2-1 7v11q0 10-10 10-4 0-7.5-1t-5.5-2zm8-15q-4 0-4 4t5 4q2 0 3-.5t2-.5v-3q-2-4-6-4zm38 22q-1 1-4 1-4 0-6-5h-1l-1 4h-6V27h8v17q0 4 6 4h1q1 0 1-.5t1-.5zm5-7q6 2 9 2 5 0 5-4v-2q-1 0-2 .5t-3 .5q-13 0-13-10 0-8 9-8 7 0 9 5h1l1-4h6q-1 2-1 7v11q0 10-10 10-4 0-7-1t-5-2zm8-15q-4 0-4 4t5 4q2 0 3-.5t2-.5v-3q-2-4-6-4zm42 31h-31v-6h11V27h8v30h12v6zm8-9h-8l12-27q-1-5-5-5l-1 1-2-6q2-1 5-1 5 0 10 13l10 25h-8l-5-15v-5h-1l-1 5zm24-38h8v12q1-2 5-2 14 0 14 15 0 14-11 14-5 0-9-4h-1l-1 3h-5V16zm14 33q5 0 5-8 0-9-7-9-2 0-4 2v10q0 5 6 5zm39-15q-2-2-7-2-7 0-8 6h19v6q0 6-3.5 8.5T610 55q-14 0-14-15 0-14 14-14 3 0 6 1t5 2zm-8 15q6 0 5-6h-11q0 6 6 6z" glyph-name=".notdef" horiz-adv-x="750"/><glyph glyph-name=".null" horiz-adv-x="0"/><glyph glyph-name="nonmarkingreturn" horiz-adv-x="253"/><glyph glyph-name="space" horiz-adv-x="253"/><glyph d="M100 700h134V371l-26-163h-82l-26 163v329zM86 66q0 35 22 55.5t58 20.5q38 0 60-20.5T248 66t-22-56-60-21q-36 0-58 21T86 66z" glyph-name="exclam" horiz-adv-x="294" unicode="!"/><glyph d="M90 700h114l-36-216H90v216zm148 0h114l-36-216h-78v216z" glyph-name="quotedbl" horiz-adv-x="402" unicode="&quot;"/><glyph d="M289 205h-89L164 51H57l36 154H19l22 97h75l25 106H69l22 97h73l35 144h106l-34-144h89l35 144h106l-34-144h72l-25-97h-70l-25-106h69l-24-97h-68L360 51H253zm-66 97h89l25 106h-89z" glyph-name="numbersign" unicode="#"/><glyph d="M238-13q-57 2-100 12T71 22l39 113q18-11 50.5-21t77.5-14v205q-31 14-61.5 31T122 377t-38.5 57.5T69 514q0 86 45.5 133.5T238 709v91h104v-87q44-3 77-12t61-21l-36-111q-17 8-43 16t-59 12V410q31-14 62.5-31.5t56-41.5 40-56.5T516 203q0-92-46.5-143.5T342-7v-93H238v87zm148 201q0 32-25.5 52.5T299 278V100q44 5 65.5 28t21.5 60zM199 525q0-30 23.5-50t58.5-37v162q-47-2-64.5-23T199 525z" glyph-name="dollar" unicode="$"/><glyph d="M51 542q0 45 13 77t36 53 55.5 30.5T226 712t70-9 55.5-29 36.5-52.5 14-79.5q-1-47-14-79.5T351.5 410 296 381t-70-9-70.5 9-55.5 29-36 52.5T51 542zm116 0q0-86 59-86 31 0 44.5 18.5T285 542q-1 48-14.5 67T226 628t-45-19-14-67zm290-371q0 45 13 77t36 53 55.5 30.5T632 341t70-9 55.5-29 36.5-52.5 14-79.5q-1-47-14-79.5T757.5 39 702 10t-70-9-70.5 9T506 39t-36 52.5-13 79.5zm116 0q0-86 59-86 31 0 44.5 18.5T691 171q-1 48-14.5 67T632 257t-45-19-14-67zm104 543 73-66L174-14l-73 69z" glyph-name="percent" horiz-adv-x="840" unicode="%"/><glyph d="M92 194q0 38 12.5 72.5t35 64.5 53.5 56 67 46q-25 33-41 67t-16 72q0 25 9.5 50.5t30 46 53.5 33 80 12.5q46 0 78.5-11t52.5-29 29-41 9-47q0-41-29-85.5T417 415q35-54 70-99t78-89q23 25 41.5 62.5T639 366l94-50q-6-18-16.5-39.5t-23-43.5-25.5-41.5-24-33.5q32-29 56-45.5T749 82l-69-96q-28 13-57.5 34.5T564 70q-36-33-90-58.5T341-14q-52 0-97.5 14t-79 41-53 65.5T92 194zm394-45q-51 53-93 105.5T320 354q-48-37-73-71.5T222 205q0-51 37.5-80T358 96q40 0 75 16.5t53 36.5zM333 566q0-42 36-90 39 25 56.5 47t17.5 42q0 24-13.5 38T386 617q-27 0-40-14t-13-37z" glyph-name="ampersand" horiz-adv-x="814" unicode="&amp;"/><glyph d="M90 700h114l-36-216H90v216z" glyph-name="quotesingle" horiz-adv-x="254" unicode="'"/><glyph d="M227-220q-46 48-78 105.5T97.5 3.5 69 125.5 60 243q0 55 9 116t29 122.5T150.5 602 230 712l84-54q-35-47-58.5-98t-38-104.5-21-107.5-6.5-105q0-48 7-102t22-107.5T258-71t58-93z" glyph-name="parenleft" horiz-adv-x="327" unicode="("/><glyph d="M97 712q48-48 80-105.5t51.5-118 28.5-122T267 247q-1-53-10-114T228 10.5 175.5-110 100-220l-89 56q38 49 62 100.5t38 104 19.5 105T137 243q-1 54-8.5 107.5t-22.5 107-38.5 104T13 658z" glyph-name="parenright" horiz-adv-x="327" unicode=")"/><glyph d="m144 731 28-46 15-59 15 55 28 49 64-35-30-52-48-43 65 16h57v-73h-55l-61 16 50-47 25-42-64-37-27 46-20 64-13-58-29-49-64 37 29 49 45 37-55-16H40v74h60l59-17-51 44-28 50z" glyph-name="asterisk" horiz-adv-x="378" unicode="*"/><glyph d="M43 394h162v169h117V394h163V282H322V111H205v171H43v112z" glyph-name="plus" horiz-adv-x="527" unicode="+"/><glyph d="M42 64q0 34 22.5 54t55.5 20q42 0 66-28t24-74q0-45-14-77.5t-34.5-54-44-34T75-148L37-94q27 11 47 36t22 53Q83-8 62.5 9T42 64z" glyph-name="comma" horiz-adv-x="252" unicode=","/><glyph d="M54 345h251V230H54v115z" glyph-name="hyphen" horiz-adv-x="360" unicode="-"/><glyph d="M42 66q0 35 22 55.5t58 20.5q38 0 60-20.5T204 66t-22-56-60-21q-36 0-58 21T42 66z" glyph-name="period" horiz-adv-x="246" unicode="."/><glyph d="m333 712 98-44L74-140l-98 46z" glyph-name="slash" horiz-adv-x="408" unicode="/"/><glyph d="M40 351q0 184 63 273.5T284 714q126 0 185-88.5T528 351q0-185-63.5-275T283-14Q158-14 99 80.5T40 351zm130 0q0-122 26.5-188.5T284 96q59 0 86.5 61T398 351q0 121-26 187t-89 66q-60 0-86.5-62T170 351z" glyph-name="zero" unicode="0"/><glyph d="M101 110h139v395l15 68-48-59-89-61-55 75 228 184h73V110h136V0H101v110z" glyph-name="one" unicode="1"/><glyph d="M475 529q0-51-18.5-103t-47-102-63-96.5T279 142l-53-41v-5l72 14h192V0H69v67q24 25 54 58.5t60.5 71T243 274t52 80.5 36.5 78.5 13.5 72q0 41-23.5 67.5T247 599q-32 0-65.5-13.5T125 551l-52 92q39 32 88.5 51.5T278 714q43 0 79-12t62-35 41-57.5 15-80.5z" glyph-name="two" unicode="2"/><glyph d="M241 96q62 0 94.5 33t32.5 80q0 57-34 84t-107 27h-72v69l121 165 57 45-79-9H86v110h382v-71L327 440l-44-27v-5l42 6q35-3 66.5-16t55-37.5T484 300t14-83q0-59-19.5-102t-54-72T344 0t-99-14q-44 0-91 8T78 17l35 108q26-13 57.5-21t70.5-8z" glyph-name="three" unicode="3"/><glyph d="M553 195H443V0H322v195H19v74l317 436h107V299h110V195zM322 452l9 84h-4l-34-72-104-135-50-38 64 8h119v153z" glyph-name="four" unicode="4"/><glyph d="M220 101q66 0 101 32t35 88q0 60-41 88t-117 28l-79-3v366h344V578H231V443l41 4q49-2 88.5-18t67.5-44.5 43-69 15-90.5q0-59-20-104t-55.5-75T327 1 222-14q-45 0-85.5 7.5T68 14l35 108q23-10 50.5-15.5T220 101z" glyph-name="five" unicode="5"/><glyph d="M520 217q0-49-16.5-91T457 53 384.5 4 291-14q-52 0-95.5 16.5T120 52t-50 83-18 116q0 99 28.5 179t77 139.5 113 96T407 714l29-103q-50-8-92-31t-74.5-55-55-71.5T183 372q20 25 52 42.5t80 17.5q45 0 83-14t65-41.5 42-67.5 15-92zm-126-7q0 112-110 112-40 0-67.5-18T178 262q-2-11-2-19v-16q0-24 7-47.5t20.5-42 34.5-30T288 96q47 0 76.5 32t29.5 82z" glyph-name="six" unicode="6"/><glyph d="m104 0 229 539 44 49-60-10H60v122h451v-38L231 0H104z" glyph-name="seven" unicode="7"/><glyph d="M61 171q0 35 9 62.5t25.5 50 39 40.5 48.5 33q-49 31-77 71.5T78 529q0 39 14.5 73t42 59 66.5 39 88 14q45 0 82-12t63.5-34 41-53.5T490 545q0-59-26.5-100T386 370q60-35 90.5-77T507 185q0-45-16.5-81.5T444 41 372 .5 280-14 189.5-.5t-69 37.5-44 58T61 171zm322 13q0 23-11 42t-28.5 34.5-39 28.5-43.5 25q-47-27-64.5-58.5T179 193q0-40 27.5-68.5T283 96q45 0 72.5 22t27.5 66zM202 527q0-24 9-42t24.5-31.5 35-25T311 407q60 51 60 112 0 42-24.5 63.5T287 604q-44 0-64.5-23T202 527z" glyph-name="eight" unicode="8"/><glyph d="M45 481q0 51 15.5 94t45 73.5 72 48T275 714q113 0 177.5-67.5T517 450q0-116-29.5-200.5t-79-141T294 22 157-14L129 88q55 7 98 27t74 49.5 50.5 67T379 312q-24-26-51.5-36T254 266q-38 0-75.5 13t-67 39.5-48 67T45 481zm126 7q0-57 32-86t80-29q41 0 67 13t40 32q3 21 3 40 0 28-7 55t-21.5 48-37 33.5T274 607q-49 0-76-31.5T171 488z" glyph-name="nine" unicode="9"/><glyph d="M93 428q0 35 22 55.5t58 20.5q38 0 60-20.5t22-55.5-22-56-60-21q-36 0-58 21t-22 56zm0-362q0 35 22 55.5t58 20.5q38 0 60-20.5T255 66t-22-56-60-21q-36 0-58 21T93 66z" glyph-name="colon" horiz-adv-x="269" unicode=":"/><glyph d="M82 64q0 34 22.5 54t55.5 20q42 0 66-28t24-74q0-45-14-77.5t-34.5-54-44-34T115-148L77-94q27 11 47 36t22 53q-23-3-43.5 14T82 64zm0 364q0 35 22 55.5t58 20.5q38 0 60-20.5t22-55.5-22-56-60-21q-36 0-58 21t-22 56z" glyph-name="semicolon" horiz-adv-x="290" unicode=";"/><glyph d="M40 285v70l386 231 57-90-224-139-91-35 90-31 230-137-57-90z" glyph-name="less" horiz-adv-x="527" unicode="&lt;"/><glyph d="M43 490h442V378H43v112zm0-191h442V187H43v112z" glyph-name="equal" horiz-adv-x="527" unicode="="/><glyph d="M487 365v-70L101 64l-57 91 224 138 91 36-90 30L39 497l57 89z" glyph-name="greater" horiz-adv-x="527" unicode="&gt;"/><glyph d="M136 208q-5 52 5 88.5t27.5 63 40 46 42 37.5 32.5 37.5 13 46.5q0 35-19.5 56T207 604q-16 0-34-3.5t-36-10-34.5-15T73 558l-50 96q38 26 87.5 43T230 714q94 0 147-45.5T430 546q0-51-13.5-84.5t-33.5-57-44-41.5-44-38.5-34-47.5-14-69H136zM116 66q0 35 22 55.5t58 20.5q38 0 60-20.5T278 66t-22-56-60-21q-36 0-58 21t-22 56z" glyph-name="question" horiz-adv-x="454" unicode="?"/><glyph d="M679 484h70l-48-271q-8-47-.5-68t33.5-21 51 12 45 37 32.5 63 12.5 90q0 75-25 128t-68.5 87.5T679 592t-127 16q-78 0-145-28t-116.5-77T213 386.5 185 240q0-78 23.5-140T277-5.5t111.5-67T541-96q29 0 66 7t67 21l31-96q-41-20-83.5-28t-97.5-8q-97 0-179.5 28t-143 83T107 47.5 73 236q0 109 39 197t105 150 153 95.5T554 712q92 0 171-26.5t137-76 91-121T986 326q0-64-22.5-120t-62-97-92-65T697 20q-25 0-46.5 5.5t-36 18.5T593 78t-4 52h-4q-15-21-32.5-41T514 53.5 468 29t-55-9q-24 0-46 10.5T329 60t-25.5 46-9.5 60q0 62 20 120.5T368.5 390t80 72.5T545 490q35 0 59-10.5t44-27.5zm-63-121q-13 11-27 17t-35 6q-30 0-55.5-17t-44-44-28.5-60.5-10-65.5q0-33 13.5-54t46.5-21q14 0 30 8.5t31 22.5 29 32 25 38z" glyph-name="at" horiz-adv-x="1059" unicode="@"/><glyph d="M405 155H190L137 0H0l252 705h101L605 0H461zM225 265h150l-52 156-21 110h-5l-21-111z" glyph-name="A" horiz-adv-x="605" unicode="A"/><glyph d="M531 537q0-26-6.5-52T503 437.5t-39-38-58-24.5v-6q30-5 57-17t47-33 31.5-51 11.5-71q0-54-23-93.5T468.5 39 381 2 280-10h-43.5l-57 1.5-62 4.5L60 5v690q19 3 43.5 6t52.5 5 57.5 3 58.5 1q49 0 95.5-7.5t83-26.5 58.5-53 22-86zM281 103q25 0 48.5 6t41.5 18.5 29 31.5 11 45q0 33-13 52t-34 29.5-47 13.5-52 3h-73V109q5-2 16-3t23.5-1.5 26-1 23.5-.5zm-45 303q14 0 32.5 1t30.5 3q38 12 65.5 36t27.5 63q0 26-10 43t-26.5 27-37.5 14-44 4q-26 0-48-1t-34-3V406h44z" glyph-name="B" horiz-adv-x="591" unicode="B"/><glyph d="M534 29Q502 6 452.5-4T351-14q-63 0-119.5 19.5t-99.5 63-68.5 113T38 350q0 103 28.5 172.5t74 112 101.5 61T354 714q60 0 101.5-8t68.5-19l-27-116q-23 11-54.5 16t-76.5 5q-83 0-133.5-59T182 350q0-54 12-98.5t36.5-76 61-49T376 109q45 0 76 9t54 23z" glyph-name="C" horiz-adv-x="559" unicode="C"/><glyph d="M60 700q21 3 47.5 5t54.5 3 54.5 1.5 47.5.5q93 0 159-26t107-73 60-112 19-143q0-71-18-137t-60-117-110.5-82T251-11q-16 0-42.5 1t-55 2.5-54.5 3T60-1v701zm215-112q-22 0-44.5-1t-33.5-3V115q4-1 13.5-1.5t20.5-1 21-1 15-.5q58 0 96.5 20.5t61 54.5 31.5 78.5 9 91.5q0 41-8 82.5T427.5 513 369 567t-94 21z" glyph-name="D" horiz-adv-x="647" unicode="D"/><glyph d="M60 700h415V578H197V415h253V293H197V122h283V0H60v700z" glyph-name="E" horiz-adv-x="522" unicode="E"/><glyph d="M60 700h415V578H197V405h256V283H197V0H60v700z" glyph-name="F" horiz-adv-x="508" unicode="F"/><glyph d="M307 365h261V53Q526 18 467.5 2T352-14q-67 0-124.5 21T128 72.5 62 186 38 350q0 99 28.5 168.5t75 113 104.5 63T364 714t105.5-9 72.5-19l-28-115q-25 10-56 15.5t-79 5.5q-43 0-79-13t-62.5-42.5-41-75.5T182 349q0-63 14-108.5t39-75 58.5-43.5 71.5-14q26 0 51 6.5t42 19.5v132l-151 16v83z" glyph-name="G" horiz-adv-x="609" unicode="G"/><glyph d="M453 293H197V0H60v700h137V415h256v285h137V0H453v293z" glyph-name="H" horiz-adv-x="651" unicode="H"/><glyph d="M74 700h137V0H74v700z" glyph-name="I" horiz-adv-x="285" unicode="I"/><glyph d="M131 700h137V188q0-40-9-76t-29.5-63.5-52.5-44T99-12q-29 0-63 6t-59 17L7 123q26-13 59-13 42 0 53.5 31t11.5 82v477z" glyph-name="J" horiz-adv-x="334" unicode="J"/><glyph d="M233 299h-36V0H60v700h137V390l32 14 193 296h156L374 406l-54-38 56-39L609 0H440z" glyph-name="K" horiz-adv-x="620" unicode="K"/><glyph d="M503 0H60v700h137V122h306V0z" glyph-name="L" horiz-adv-x="514" unicode="L"/><glyph d="m603 363 15 139h-6l-43-112-149-261h-44L219 391l-44 111h-5l20-138V0H60v700h125l187-320 33-80h4l30 82 177 318h124V0H603v363z" glyph-name="M" horiz-adv-x="800" unicode="M"/><glyph d="m234 365-55 110h-5l16-110V0H60v705h100l265-373 53-107h5l-16 107v368h130V-5H497z" glyph-name="N" horiz-adv-x="657" unicode="N"/><glyph d="M38 350q0 175 77 269.5T335 714q75 0 131-26t93-74 55-115 18-149q0-175-77.5-269.5T335-14q-76 0-132 26t-92.5 74T56 201 38 350zm144 0q0-53 9-97.5t27.5-76.5 47.5-50 69-18q73 0 113 57t40 185q0 51-8.5 95T453 522t-47 51.5-71 18.5q-73 0-113-58.5T182 350z" glyph-name="O" horiz-adv-x="670" unicode="O"/><glyph d="M60 693q42 8 92.5 12.5T253 710q52 0 104.5-8.5t94.5-34 68.5-71T547 478q0-66-23-111.5T463 292t-86.5-42T276 237h-16l-23 .5-23.5 1.5-16.5 2V0H60v693zm204-101q-20 0-38-1.5t-29-3.5V360q4-1 12-2t17-1.5 17.5-.5H256q27 0 53.5 5t47.5 18.5 33.5 37.5 12.5 63q0 33-12 54.5T359.5 569 315 587t-51 5z" glyph-name="P" horiz-adv-x="572" unicode="P"/><glyph d="M702-202q-48-13-97-13-51 0-99 10.5T413-182t-87 22.5-79 10.5q-24 0-46-6v118q28 6 58 6 42 0 83.5-10T427-62.5 515-84t95-10q22 0 45 2.5t47 8.5v-119zM38 350q0 175 77 269.5T335 714q75 0 131-26t93-74 55-115 18-149q0-175-77.5-269.5T335-14q-76 0-132 26t-92.5 74T56 201 38 350zm144 0q0-53 9-97.5t27.5-76.5 47.5-50 69-18q73 0 113 57t40 185q0 51-8.5 95T453 522t-47 51.5-71 18.5q-73 0-113-58.5T182 350z" glyph-name="Q" horiz-adv-x="670" unicode="Q"/><glyph d="M60 693q23 4 49.5 7.5t53 5.5 51.5 3 46 1q49 0 96.5-9t85-31 60-60.5T524 513q0-86-40-140t-107-75l49-31L586 0H428L269 274l-72 13V0H60v693zm210-105q-21 0-41.5-1t-31.5-4V380h58q57 0 91 26t34 86q0 45-28 70.5T270 588z" glyph-name="R" horiz-adv-x="602" unicode="R"/><glyph d="M362 188q0 32-23.5 52t-59 36.5-77 34-77 43-59 63.5T43 514q0 51 17 88.5t48.5 62.5 74.5 37 96 12q61 0 115-10.5t89-30.5l-43-115q-22 14-66 25.5T279 595q-48 0-73.5-19T180 525q0-30 23.5-50t59-37 77-35 77-43.5 59-63T499 203t-18.5-96.5-52-67.5-81-40T243-14q-75 0-132 14T27 28l44 117q11-6 28.5-13t39.5-13 46.5-10 50.5-4q61 0 93.5 20.5T362 188z" glyph-name="S" horiz-adv-x="530" unicode="S"/><glyph d="M557 578H353V0H216v578H11v122h546V578z" glyph-name="T" horiz-adv-x="568" unicode="T"/><glyph d="M440 700h130V248q0-68-18-117t-50-81-78-47-101-15Q57-12 57 231v469h137V258q0-41 7.5-69.5t23.5-46 40-25 56-7.5q63 0 91 35t28 113v442z" glyph-name="U" horiz-adv-x="627" unicode="U"/><glyph d="m290 289 18-119h5l20 120 134 410h144L351-5h-98L-9 700h159z" glyph-name="V" horiz-adv-x="602" unicode="V"/><glyph d="m242 309 13-124h4l14 126 122 389h90l120-391 14-124h4l15 126 85 389h139L669-5h-92L452 384l-17 107h-5l-17-108L289-5h-97L0 700h149z" glyph-name="W" horiz-adv-x="862" unicode="W"/><glyph d="M225 356 30 700h165l108-202 24-71 23 71 113 202h149L410 363 622 0H459L336 216l-27 74-26-74L159 0H10z" glyph-name="X" horiz-adv-x="633" unicode="X"/><glyph d="M228 260-2 700h163l128-263 14-74h5l15 76 124 261h147L365 261V0H228v260z" glyph-name="Y" horiz-adv-x="592" unicode="Y"/><glyph d="m27 122 296 414 52 42H27v122h485V578L214 160l-51-38h349V0H27v122z" glyph-name="Z" horiz-adv-x="539" unicode="Z"/><glyph d="M60 700h235V590H184v-710h111v-110H60v930z" glyph-name="bracketleft" horiz-adv-x="324" unicode="["/><glyph d="m438-95-99-45-363 808 102 43z" glyph-name="backslash" horiz-adv-x="424" unicode="\"/><glyph d="M264-230H29v110h111v710H29v110h235v-930z" glyph-name="bracketright" horiz-adv-x="324" unicode="]"/><glyph d="M216 705h69l185-292H339l-71 122-21 70-25-71-78-121H20z" glyph-name="asciicircum" horiz-adv-x="500" unicode="^"/><glyph d="M0-117h444v-107H0v107z" glyph-name="underscore" horiz-adv-x="444" unicode="_"/><glyph d="M256 566h-72L60 690v30h136z" glyph-name="grave" horiz-adv-x="316" unicode="`"/><glyph d="M54 471q40 18 95 28.5T264 510q52 0 87-12.5t55.5-35.5 29-55 8.5-72q0-44-3-88.5t-3.5-87.5 2.5-83.5T455-1H349l-21 69h-5q-20-31-55.5-53.5T176-8q-35 0-63 10.5t-48 30-31 46T23 138q0 46 20.5 77.5t59 51 92 27T314 298q7 56-8 80.5T239 403q-39 0-82.5-8T85 374zM219 99q39 0 62 17.5t34 37.5v65q-31 3-59.5 1t-50.5-9-35-20-13-33q0-28 16.5-43.5T219 99z" glyph-name="a" horiz-adv-x="496" unicode="a"/><glyph d="M57 700h130V460h4q21 24 54 38t73 14q90 0 137.5-61.5T503 263q0-135-66.5-205T254-12q-64 0-117 10.5T57 22v678zm223-298q-36 0-58.5-18.5T187 330V112q16-8 34.5-11t39.5-3q53 0 80.5 38.5T369 259q0 143-89 143z" glyph-name="b" horiz-adv-x="536" unicode="b"/><glyph d="M411 31Q381 9 338.5-2.5T251-14q-60 0-101.5 19T82 58.5 44.5 142 33 250q0 127 57 195.5T256 514q55 0 88.5-9t60.5-23l-31-106q-23 11-45.5 17t-51.5 6q-54 0-82-35.5T167 250q0-32 7-59t21-47 36.5-31.5T284 101q33 0 56 8.5t41 20.5z" glyph-name="c" horiz-adv-x="433" unicode="c"/><glyph d="M482 176q0-42 1-84t9-93h-93l-18 65h-4q-20-35-57.5-56.5T231-14q-94 0-146 62T33 242q0 128 58 199t170 71q31 0 51-3.5t40-11.5v203h130V176zM261 96q38 0 60 18.5t31 53.5v212q-14 11-31 16.5t-44 5.5q-55 0-82.5-37T167 238q0-64 22.5-103T261 96z" glyph-name="d" horiz-adv-x="539" unicode="d"/><glyph d="M457 43q-30-24-81.5-40.5T266-14Q145-14 89 56.5T33 250q0 132 63 198t177 66q38 0 74-10t64-33 45-62 17-97q0-21-2.5-45t-7.5-50H163q3-63 32.5-95T291 90q41 0 73.5 12.5T414 128zM271 410q-51 0-75.5-30.5T166 298h186q4 54-16.5 83T271 410z" glyph-name="e" horiz-adv-x="508" unicode="e"/><glyph d="M11 500h69v28q0 95 40 137.5T236 708q80 0 133-19l-25-104q-23 8-40.5 10.5T267 598q-20 0-31.5-6t-17-18.5-7-31T210 500h110V390H210V0H80v390H11v110z" glyph-name="f" horiz-adv-x="321" unicode="f"/><glyph d="M480 0q0-109-59-160.5T256-212q-72 0-113.5 10T80-181l27 103q23-9 53.5-18t75.5-9q68 0 92.5 29.5T353 7v32h-4Q314-8 225-8 128-8 80.5 52T33 240q0 134 64 203t186 69q64 0 114.5-9t82.5-21V0zM260 96q38 0 58.5 17t31.5 51v225q-31 13-77 13-50 0-78-37.5T167 245q0-73 24-111t69-38z" glyph-name="g" horiz-adv-x="536" unicode="g"/><glyph d="M363 0v284q0 61-17 88t-62 27q-33 0-60.5-22.5T187 319V0H57v700h130V444h4q24 32 59 51t89 19q38 0 67-10t48.5-33 29-62.5T493 311V0H363z" glyph-name="h" horiz-adv-x="545" unicode="h"/><glyph d="M68 500h130V0H68v500zM49 641q0 29 21.5 49.5T130 711t61.5-20.5T215 641t-23.5-48.5T130 573t-59.5 19.5T49 641z" glyph-name="i" horiz-adv-x="269" unicode="i"/><glyph d="M69 500h130V-21q0-91-36-139T48-208q-30 0-64 7v109q4 0 7-.5t6-.5q45 0 58.5 29T69 16v484zM51 641q0 29 21.5 49.5T132 711t61.5-20.5T217 641t-23.5-48.5T132 573t-59.5 19.5T51 641z" glyph-name="j" horiz-adv-x="268" unicode="j"/><glyph d="M222 207h-35V0H57v700h130V287l30 14 114 199h143L354 310l-51-38 55-39L493 0H344z" glyph-name="k" horiz-adv-x="491" unicode="k"/><glyph d="M191 168q0-35 9-51t29-16q12 0 23.5 2t28.5 9l14-102q-16-8-49-16t-68-8q-57 0-87 26.5T61 100v600h130V168z" glyph-name="l" horiz-adv-x="294" unicode="l"/><glyph d="M341 0v272q0 69-13 98t-54 29q-34 0-55-18.5T187 333V0H57v500h101l15-66h4q23 32 58.5 56t91.5 24q48 0 78.5-19.5T453 429q23 39 59 62t87 23q42 0 71.5-10t48-34.5T746 404t9-104V0H625v281q0 59-12.5 88.5T557 399q-35 0-55.5-19T471 328V0H341z" glyph-name="m" horiz-adv-x="805" unicode="m"/><glyph d="M363 0v284q0 61-17.5 88T286 399q-37 0-62.5-21.5T187 324V0H57v500h103l15-66h4q23 32 61 56t98 24q37 0 66-10t49-33 30-62.5 10-97.5V0H363z" glyph-name="n" horiz-adv-x="545" unicode="n"/><glyph d="M33 250q0 127 62 195.5T269 514q60 0 104-19t73-53.5 43.5-83.5T504 250q0-127-61.5-195.5T269-14q-60 0-104 19T91.5 58.5t-44 83.5T33 250zm134 0q0-33 6-61t18-49 31.5-32.5T269 96q51 0 76 37t25 117q0 69-23 111.5T269 404q-48 0-75-36t-27-118z" glyph-name="o" horiz-adv-x="537" unicode="o"/><glyph d="M57 500h95l15-60h4q26 38 61.5 56t86.5 18q94 0 141-59.5T507 263q0-64-15-115.5T447.5 60t-72-55T278-14q-31 0-51 4.5T187 5v-205H57v700zm223-96q-38 0-59.5-19T187 328V120q14-11 30.5-17.5T261 96q56 0 84 39.5T373 266q0 66-22 102t-71 36z" glyph-name="p" horiz-adv-x="540" unicode="p"/><glyph d="M480-200H350V43h-4q-17-26-46-41.5T225-14q-93 0-142.5 63T33 240q0 134 67.5 203T294 512q27 0 54-2.5t51.5-7 45.5-10 35-10.5v-682zM260 96q38 0 58.5 17t31.5 51v225q-15 8-34 10.5t-43 2.5q-53 0-79.5-40T167 245q0-73 24-111t69-38z" glyph-name="q" horiz-adv-x="536" unicode="q"/><glyph d="M333 378q-31 11-56 11-35 0-58.5-18.5T187 323V0H57v500h101l15-66h4q17 37 46 57t68 20q26 0 59-11z" glyph-name="r" horiz-adv-x="351" unicode="r"/><glyph d="M264 138q0 20-17 32t-42 22-55 20.5-55 29-42 47T36 362q0 74 44 113t127 39q57 0 103-12t72-27l-29-94q-23 9-58 19t-71 10q-58 0-58-45 0-18 17-29t42-20.5 55-20.5 55-28.5 42-45.5 17-72q0-76-48.5-119.5T200-14q-53 0-99.5 13.5T25 31l36 97q23-13 61-25.5T200 90q29 0 46.5 11t17.5 37z" glyph-name="s" horiz-adv-x="422" unicode="s"/><glyph d="M5 500h69v94l130 37V500h122V390H204V198q0-52 10.5-74.5T254 101q20 0 34.5 4t32.5 12l23-100Q317 4 281-5t-73-9q-69 0-101.5 35.5T74 138v252H5v110z" glyph-name="t" horiz-adv-x="349" unicode="t"/><glyph d="M182 500V216q0-61 14.5-88t56.5-27q37 0 61.5 22t36.5 54v323h130V152q0-41 4-80.5T497 0h-98l-23 74h-4q-23-38-64-63t-97-25q-38 0-68 10T93 29 62.5 91 52 189v311h130z" glyph-name="u" horiz-adv-x="538" unicode="u"/><glyph d="m230 238 17-77h5l14 79 85 260h140L282-5h-79L-14 500h151z" glyph-name="v" horiz-adv-x="477" unicode="v"/><glyph d="m419 500 91-256 18-83h4l14 84 64 255h119L575-5h-96L378 275l-13 63h-5l-12-64L252-5h-99L-8 500h141l73-251 12-89h5l17 90 83 250h96z" glyph-name="w" horiz-adv-x="721" unicode="w"/><glyph d="M170 256 20 500h155l65-107 28-70 30 70 68 107h141L356 260 517 0H366l-77 120-30 74-32-74L150 0H8z" glyph-name="x" horiz-adv-x="525" unicode="x"/><glyph d="m239 219 18-78h6l13 79 76 280h134L334 49Q315-7 297.5-53.5T259-134t-46.5-52.5T152-205q-52 0-83 17L93-84q15-6 30-6 23 0 44.5 19.5T200 0L-9 500h156z" glyph-name="y" horiz-adv-x="478" unicode="y"/><glyph d="m31 110 197 237 51 43H31v110h392V390L228 149l-50-39h245V0H31v110z" glyph-name="z" horiz-adv-x="458" unicode="z"/><glyph d="M123 96q0 51-21 70t-59 19v100q38 0 59 20.5t21 64.5v209q0 54 25.5 88t81.5 34h120V591h-50q-27 0-39.5-14T248 531V336q0-44-21-66.5T178 242v-10q27-4 48.5-30t21.5-68V-60q0-32 12-46t41-14h49v-110H230q-52 0-79.5 31.5T123-109V96z" glyph-name="braceleft" horiz-adv-x="371" unicode="{"/><glyph d="M60 700h107v-830H60v830z" glyph-name="bar" horiz-adv-x="227" unicode="|"/><glyph d="M261 375q0-51 21-70t59-19V186q-38 0-59-20.5T261 101v-209q0-54-26.5-88T152-230H35v110h50q27 0 39.5 13.5T137-60v195q0 44 21 66.5t49 27.5v10q-27 4-48.5 30T137 337v194q0 31-12 45.5T84 591H35v110h119q53 0 80-31.5t27-89.5V375z" glyph-name="braceright" horiz-adv-x="371" unicode="}"/><glyph d="M28 378q47 38 84.5 52.5T182 445q29 0 54-8.5t48-18 45.5-18T375 392q18 0 37 6t40 23l47-103q-36-27-66-38t-56-11q-28 0-52 9t-46.5 20-45.5 20-49 9q-24 0-51.5-10.5T72 278z" glyph-name="asciitilde" horiz-adv-x="527" unicode="~"/><glyph glyph-name="uni00A0" horiz-adv-x="253"/><glyph d="M191-200H57v329l26 162h82l26-162v-329zM44 435q0 35 22 55.5t58 20.5q38 0 60-20.5t22-55.5-22-56-60-21q-36 0-58 21t-22 56z" glyph-name="exclamdown" horiz-adv-x="293" unicode="¡"/><glyph d="M489 31q-17-13-42.5-22.5T392-6v-94H271v89q-51 7-86.5 28.5t-58 55T94 151t-10 99q0 112 48 178.5T271 510v90h121v-90q28-4 50-10.5t40-15.5l-30-106q-15 7-32 11t-35 6V104q23 3 41.5 10t32.5 15zM212 250q0-51 19-89.5t64-52.5v286q-42-11-62.5-45.5T212 250z" glyph-name="cent" unicode="¢"/><glyph d="M51 394h68q-13 24-22.5 54T87 520q0 49 16.5 85.5t46 60.5 70.5 36 90 12q61 0 111-11.5t86-28.5l-42-116q-20 11-55 22.5T326 592q-48 0-75-22.5T224 502q0-34 12.5-58.5T264 394h141V287h-98q3-17 3-34 0-30-10-63t-31-54l-43-31v-5l67 15h230V0H51v115h2q31 1 54.5 11t39 26.5T170 191t8 46q0 27-6 50H51v107z" glyph-name="sterling" unicode="£"/><glyph d="m81 622 78-77 19-37q20 15 47.5 22.5T283 538q29 0 57.5-7.5T388 509l20 36 78 77 77-80-77-78-37-16q14-21 20-47.5t6-55.5q0-30-6.5-56.5T449 244l37-16 77-78-77-80-78 77-18 37q-19-14-48.5-22t-58.5-8q-30 0-57.5 7.5T178 183l-19-36-78-77-76 80 77 78 36 17q-12 21-19 45.5T92 345q0 29 7.5 54t20.5 48l-38 17-77 78zm120-276q0-38 23-62t60-24 59.5 24 22.5 62q0 36-22.5 61T284 432t-60-25-23-61z" glyph-name="currency" unicode="¤"/><glyph d="M85 337h90L-14 700h163l128-263 14-74h5l15 76 124 261h147L392 337h91v-80H353v-58h130v-80H353V0H216v119H85v80h131v58H85v80z" glyph-name="yen" unicode="¥"/><glyph d="M60 213h107v-343H60v343zm107 144H60v343h107V357z" glyph-name="brokenbar" horiz-adv-x="227" unicode="¦"/><glyph d="M49 353q0 31 15 60.5t41 52.5l41 14q-26 16-43 40.5T86 586q0 56 43.5 92T261 714q59 0 110-10t78-23l-32-105q-23 11-61 19.5t-73 8.5q-37 0-52-11t-15-28q0-18 19.5-28t49-18 64-18 64-28 49-48 19.5-78q0-31-14.5-60T426 235l-45-14q27-16 45-41t18-66q0-63-49-95.5T265-14Q197-14 151.5-.5T77 29l34 100q23-11 56-22t77-11q37 0 53.5 9.5T314 136q0 19-19.5 29.5t-49 19-64 18.5-64 27.5-49 46.5T49 353zm302-8q0 18-8.5 30T318 396.5 279 414t-52 17q-20-12-34-31.5T179 355q0-35 32-52t88-33q22 12 37 32t15 43z" glyph-name="section" horiz-adv-x="530" unicode="§"/><glyph d="M60 651q0 32 19.5 51t51.5 19 50.5-19 18.5-51q0-30-18.5-49T131 583t-51.5 19T60 651zm219 0q0 32 18.5 51t50.5 19 51.5-19 19.5-51q0-30-19.5-49T348 583t-50.5 19-18.5 49z" glyph-name="dieresis" horiz-adv-x="479" unicode="¨"/><glyph d="M55 290q0 83 28 149.5T159.5 553 274 625.5 416 651t141.5-25.5T672 553t77-113.5T777 290t-28-149.5T672 27 557.5-45.5 416-71q-83 0-150 25.5T152 27 80 140.5 55 290zm98 0q0-62 19.5-112t55-84.5 83.5-53T416 22t105.5 18.5 84 53 55 84.5T680 290t-19.5 112-55 84.5-84 53T416 558t-105-18.5-83.5-53-55-84.5T153 290zm388-159q-22-14-55.5-22.5T414 100q-81 0-123.5 51T248 290q0 91 45.5 140.5T414 480q37 0 65.5-8.5T534 448l-32-87q-18 9-32.5 12t-28.5 3q-29 0-46-19t-17-67q0-86 70-86 19 0 34 3.5t30 11.5z" glyph-name="copyright" horiz-adv-x="833" unicode="©"/><glyph d="M61 674q26 14 73.5 24T241 708q76 0 104-27.5t28-84.5q0-60-3-116t8-100H277l-13 46h-4q-13-17-37-33.5T156 376q-52 0-83 27.5T42 475q0 33 17.5 55t47 35 69 17.5T259 585q2 26-7 37.5T208 634q-40 0-72.5-8T83 610zm133-220q32 0 45 11.5t20 23.5v35q-43 5-72.5-2T157 488q0-16 10.5-25t26.5-9z" glyph-name="ordfeminine" horiz-adv-x="420" unicode="ª"/><glyph d="m223 261 154 216 71-56-81-122-46-39 46-35 87-121-71-56zm-194-2 160 230 79-62-87-126-48-41 48-36 93-124-79-62z" glyph-name="guillemotleft" horiz-adv-x="488" unicode="«"/><glyph d="M45 412h442V186H367v114H45v112z" glyph-name="logicalnot" horiz-adv-x="527" unicode="¬"/><glyph d="M54 345h251V230H54v115z" glyph-name="uni00AD" horiz-adv-x="360" unicode="­"/><glyph d="M62 451q0 67 22.5 119.5T146 659t90.5 55T345 733q59 0 110.5-19t89.5-55 60-88.5T627 451q0-68-22.5-120.5t-61-88.5-90-54.5T345 169q-59 0-110.5 18.5t-90 54.5T84 330.5 62 451zm94 0q0-48 15.5-84.5T213 306t60-36 72-12q40 0 74.5 11.5T479 305t39.5 60.5T533 451q0 48-15 84t-40.5 60-60 36-72.5 12q-42 0-77-13t-60-38-38.5-60.5T156 451zm86 130q16 5 45 7.5t55 2.5q42 0 72-17.5t30-60.5q0-32-20.5-49T373 445l28-14 65-109h-61l-63 104-48 15V322h-52v259zm89-35q-11 0-21-.5t-16-3.5v-71h34q29 0 45 9t16 31q0 35-58 35z" glyph-name="registered" horiz-adv-x="690" unicode="®"/><glyph d="M60 658h323v-92H60v92z" glyph-name="macron" horiz-adv-x="443" unicode="¯"/><glyph d="M60 548q0 37 13 67.5t35.5 52.5 52 34 63.5 12 64.5-11 53.5-32.5 36-52.5 13-70-13-69.5-36-51.5-53.5-32-64.5-11-63.5 11-52 32T73 478.5 60 548zm100 0q0-32 19-50.5t46-18.5 47 18.5 20 50.5-20 51.5-47 19.5-46-19.5-19-51.5z" glyph-name="degree" horiz-adv-x="437" unicode="°"/><glyph d="M43 518h162v164h117V518h163V406H322V299H205v107H43v112zm0-265h442V141H43v112z" glyph-name="plusminus" horiz-adv-x="527" unicode="±"/><glyph d="M348 680q0-59-30-101t-72-80l-47-25v-4l59 11h106V380H51v71q26 18 58 42t59.5 51.5 46 56.5 18.5 55q0 49-56 49-27 0-51-8.5T84 677l-34 90q35 21 74.5 30.5T200 807q71 0 109.5-32.5T348 680z" glyph-name="twosuperior" horiz-adv-x="412" unicode="²"/><glyph d="M169 468q44 0 62.5 14t19.5 37q-1 23-20 36t-70 13h-42v38l73 80 43 25-58-6H62v95h283v-62l-87-92-34-18v-5l30 3q52-2 81.5-31.5T366 511q-1-36-15.5-62t-39-43-57.5-25-68-8q-39 0-72.5 6.5T56 397l23 90q41-19 90-19z" glyph-name="threesuperior" horiz-adv-x="412" unicode="³"/><glyph d="M113 720h132v-30L134 566H60z" glyph-name="acute" horiz-adv-x="305" unicode="´"/><glyph d="M182 500V227q0-64 20.5-96.5T274 98q46 0 74 23t40 64v315h130V163q0-41 2.5-82.5T533 0h-96l-32 74h-4q-17-35-50-60.5T265-12q-39 0-60 14t-39 36h-5l21-105v-133H52v700h130z" glyph-name="mu" horiz-adv-x="569" unicode="µ"/><glyph d="M182 500V227q0-64 20.5-96.5T274 98q46 0 74 23t40 64v315h130V163q0-41 2.5-82.5T533 0h-96l-32 74h-4q-17-35-50-60.5T265-12q-39 0-60 14t-39 36h-5l21-105v-133H52v700h130z" glyph-name="mu" horiz-adv-x="569" unicode="μ"/><glyph d="M362 700h107v-830H362v830zM178 294q-33 0-61 16.5t-48.5 45-31.5 65T26 498q0 40 13 76.5T76 639t58 44.5 76 16.5h74v-830H178v424z" glyph-name="paragraph" horiz-adv-x="529" unicode="¶"/><glyph d="M45 316q0 35 22 55.5t58 20.5q38 0 60-20.5t22-55.5-22-56-60-21q-36 0-58 21t-22 56z" glyph-name="periodcentered" horiz-adv-x="253" unicode="·"/><glyph d="m208 0-24-43q41-4 64.5-21.5T272-118q0-23-11.5-40T229-186.5 182-204t-58-6-64 6l9 48q7-1 13-1h11q38 0 49 9t11 21q0 28-86 32l57 95h84z" glyph-name="cedilla" horiz-adv-x="332" unicode="¸"/><glyph d="M72 480h97v164l10 46-30-32-59-39-49 77 158 111h85V480h88V380H72v100z" glyph-name="onesuperior" horiz-adv-x="412" unicode="¹"/><glyph d="M34 542q0 45 13 77t36 53 55.5 30.5T209 712t70-9 55.5-29 36.5-52.5 14-79.5q-1-47-14-79.5T334.5 410 279 381t-70-9-70.5 9T83 410t-36 52.5T34 542zm116 0q0-86 59-86 31 0 44.5 18.5T268 542q-1 48-14.5 67T209 628t-45-19-14-67z" glyph-name="ordmasculine" horiz-adv-x="419" unicode="º"/><glyph d="M264 266 111 50l-72 56 82 122 45 39-45 35-87 121 70 56zm195 2L299 38l-79 62 87 126 48 41-48 36-93 124 79 62z" glyph-name="guillemotright" horiz-adv-x="488" unicode="»"/><glyph d="m609 715 85-50L264-14l-86 53zM833 78h-76V0H656v78H449v67l218 283h90V167h76V78zM656 253l6 53h-5l-22-49-48-66-36-32 52 8h53v86zM165 544l11 46-31-32-59-39-49 77 158 111h85V280H165v264z" glyph-name="onequarter" horiz-adv-x="880" unicode="¼"/><glyph d="m609 715 85-50L264-14l-86 53zm232-415q0-59-30-101t-72-80l-47-25v-4l59 11h106V0H544v71q26 18 58 42t59.5 51.5 46 56.5 18.5 55q0 49-56 49-27 0-51-8.5T577 297l-34 90q35 21 74.5 30.5T693 427q71 0 109.5-32.5T841 300zM165 544l11 46-31-32-59-39-49 77 158 111h85V280H165v264z" glyph-name="onehalf" horiz-adv-x="903" unicode="½"/><glyph d="m634 715 85-50L289-14l-86 53zM858 78h-76V0H681v78H474v67l218 283h90V167h76V78zM681 253l6 53h-5l-22-49-48-66-36-32 52 8h53v86zM161 368q44 0 62.5 14t19.5 37q-1 23-20 36t-70 13h-42v38l73 80 43 25-58-6H54v95h283v-62l-87-92-34-18v-5l30 3q52-2 81.5-31.5T358 411q-1-36-15.5-62t-39-43-57.5-25-68-8q-39 0-72.5 6.5T48 297l23 90q41-19 90-19z" glyph-name="threequarters" horiz-adv-x="905" unicode="¾"/><glyph d="M317 293q5-52-4.5-88.5t-27.5-63T245 96t-41.5-37-33-37.5T157-25q0-35 20-56.5t70-21.5q16 0 34 3.5t36 10 34.5 15T381-56l49-96q-38-26-87-43t-119-17q-94 0-147.5 45T23-44q0 51 13.5 84t34 56.5 44 41.5 44 38.5 34 47.5 13.5 69h111zM178 435q0 35 22 55.5t58 20.5q38 0 60-20.5t22-55.5-22-56-60-21q-36 0-58 21t-22 56z" glyph-name="questiondown" horiz-adv-x="454" unicode="¿"/><glyph d="M405 155H190L137 0H0l252 705h101L605 0H461zM225 265h150l-52 156-21 110h-5l-21-111zm174 487H294l-158 88v30h159z" glyph-name="Agrave" horiz-adv-x="605" unicode="À"/><glyph d="M405 155H190L137 0H0l252 705h101L605 0H461zM225 265h150l-52 156-21 110h-5l-21-111zm84 605h159v-30l-160-88H205z" glyph-name="Aacute" horiz-adv-x="605" unicode="Á"/><glyph d="M405 155H190L137 0H0l252 705h101L605 0H461zM225 265h150l-52 156-21 110h-5l-21-111zm32 605h96l127-93v-39h-99l-57 41-20 34-21-33-62-42h-97v40z" glyph-name="Acircumflex" horiz-adv-x="605" unicode="Â"/><glyph d="M405 155H190L137 0H0l252 705h101L605 0H461zM225 265h150l-52 156-21 110h-5l-21-111zM113 800q32 35 61.5 48t58.5 13q22 0 44-5.5t42.5-12 40.5-12 38-5.5q16 0 31 5t29 19l25-67q-28-26-54.5-36.5T377 736q-23 0-44 5.5T291.5 754 251 766.5t-39 5.5-37.5-7.5T137 737z" glyph-name="Atilde" horiz-adv-x="605" unicode="Ã"/><glyph d="M405 155H190L137 0H0l252 705h101L605 0H461zM225 265h150l-52 156-21 110h-5l-21-111zM124 798q0 26 18 42t58 16q39 0 57-16t18-42-18-41.5-57-15.5q-40 0-58 15.5T124 798zm214 0q0 26 18 42t57 16q40 0 58-16t18-42-18-41.5-58-15.5q-39 0-57 15.5T338 798z" glyph-name="Adieresis" horiz-adv-x="605" unicode="Ä"/><glyph d="M175 771q0 18 6 34.5t20.5 29 39 19.5 62.5 7q70 0 99-24t29-66q0-29-16-50.5T358 689L605 0H461l-56 155H190L137 0H0l246 689q-39 9-55 31t-16 51zm50-506h150l-52 156-21 110h-5l-21-111zm34 506q0-31 44-31 25 0 35 8t10 23q0 17-10.5 25t-34.5 8q-44 0-44-33z" glyph-name="Aring" horiz-adv-x="605" unicode="Å"/><glyph d="m394 532-36-103-84-148h126v251h-6zm6-362H214L115 0H-29l424 700h419V578H537V415h252V293H537V122h282V0H400v170z" glyph-name="AE" horiz-adv-x="862" unicode="Æ"/><glyph d="M534 29q-26-19-65.5-29T385-13l-16-30q41-4 64.5-21.5T457-118q0-23-11.5-40T414-186.5 367-204t-58-6-64 6l9 48q7-1 13-1h11q38 0 49 9t11 21q0 28-86 32l50 84q-55 7-103 30.5T115 87 58.5 196 38 350q0 103 28.5 172.5t74 112 101.5 61T354 714q60 0 101.5-8t68.5-19l-27-116q-23 11-54.5 16t-76.5 5q-83 0-133.5-59T182 350q0-54 12-98.5t36.5-76 61-49T376 109q45 0 76 9t54 23z" glyph-name="Ccedilla" horiz-adv-x="559" unicode="Ç"/><glyph d="M60 700h415V578H197V415h253V293H197V122h283V0H60v700zm292 52H247L89 840v30h159z" glyph-name="Egrave" horiz-adv-x="522" unicode="È"/><glyph d="M60 700h415V578H197V415h253V293H197V122h283V0H60v700zm233 170h159v-30l-160-88H189z" glyph-name="Eacute" horiz-adv-x="522" unicode="É"/><glyph d="M60 700h415V578H197V415h253V293H197V122h283V0H60v700zm159 170h96l127-93v-39h-99l-57 41-20 34-21-33-62-42H86v40z" glyph-name="Ecircumflex" horiz-adv-x="522" unicode="Ê"/><glyph d="M60 700h415V578H197V415h253V293H197V122h283V0H60v700zm24 98q0 26 18 42t58 16q39 0 57-16t18-42-18-41.5-57-15.5q-40 0-58 15.5T84 798zm214 0q0 26 18 42t57 16q40 0 58-16t18-42-18-41.5-58-15.5q-39 0-57 15.5T298 798z" glyph-name="Edieresis" horiz-adv-x="522" unicode="Ë"/><glyph d="M74 700h137V0H74v700zm167 52H136l-158 88v30h159z" glyph-name="Igrave" horiz-adv-x="285" unicode="Ì"/><glyph d="M74 700h137V0H74v700zm79 170h159v-30l-160-88H49z" glyph-name="Iacute" horiz-adv-x="285" unicode="Í"/><glyph d="M74 700h137V0H74v700zm23 170h96l127-93v-39h-99l-57 41-20 34-21-33-62-42h-97v40z" glyph-name="Icircumflex" horiz-adv-x="285" unicode="Î"/><glyph d="M74 700h137V0H74v700zm-112 98q0 26 18 42t58 16q39 0 57-16t18-42-18-41.5T38 741q-40 0-58 15.5T-38 798zm214 0q0 26 18 42t57 16q40 0 58-16t18-42-18-41.5-58-15.5q-39 0-57 15.5T176 798z" glyph-name="Idieresis" horiz-adv-x="285" unicode="Ï"/><glyph d="M-6 401h88v299q21 3 47.5 5t54.5 3 54.5 1.5 47.5.5q93 0 159-26t107-73 60-112 19-143q0-71-18-137t-60-117-110.5-82T273-11q-16 0-42.5 1t-55 2.5-54.5 3T82-1v322H-6v80zm303 187q-22 0-44.5-1t-33.5-3V401h140v-80H219V114q4-1 13.5-1.5t20.5-1 21-.5h15q58 0 96.5 20.5t61 54.5 31.5 78.5 9 91.5q0 41-8 82.5T449.5 513 391 567t-94 21z" glyph-name="Eth" horiz-adv-x="669" unicode="Ð"/><glyph d="m234 365-55 110h-5l16-110V0H60v705h100l265-373 53-107h5l-16 107v368h130V-5H497zm-96 435q32 35 61.5 48t58.5 13q22 0 44-5.5t42.5-12 40.5-12 38-5.5q16 0 31 5t29 19l25-67q-28-26-54.5-36.5T402 736q-23 0-44 5.5T316.5 754 276 766.5t-39 5.5-37.5-7.5T162 737z" glyph-name="Ntilde" horiz-adv-x="657" unicode="Ñ"/><glyph d="M38 350q0 175 77 269.5T335 714q75 0 131-26t93-74 55-115 18-149q0-175-77.5-269.5T335-14q-76 0-132 26t-92.5 74T56 201 38 350zm144 0q0-53 9-97.5t27.5-76.5 47.5-50 69-18q73 0 113 57t40 185q0 51-8.5 95T453 522t-47 51.5-71 18.5q-73 0-113-58.5T182 350zm230 402H307l-158 88v30h159z" glyph-name="Ograve" horiz-adv-x="670" unicode="Ò"/><glyph d="M38 350q0 175 77 269.5T335 714q75 0 131-26t93-74 55-115 18-149q0-175-77.5-269.5T335-14q-76 0-132 26t-92.5 74T56 201 38 350zm144 0q0-53 9-97.5t27.5-76.5 47.5-50 69-18q73 0 113 57t40 185q0 51-8.5 95T453 522t-47 51.5-71 18.5q-73 0-113-58.5T182 350zm186 520h159v-30l-160-88H264z" glyph-name="Oacute" horiz-adv-x="670" unicode="Ó"/><glyph d="M38 350q0 175 77 269.5T335 714q75 0 131-26t93-74 55-115 18-149q0-175-77.5-269.5T335-14q-76 0-132 26t-92.5 74T56 201 38 350zm144 0q0-53 9-97.5t27.5-76.5 47.5-50 69-18q73 0 113 57t40 185q0 51-8.5 95T453 522t-47 51.5-71 18.5q-73 0-113-58.5T182 350zm105 520h96l127-93v-39h-99l-57 41-20 34-21-33-62-42h-97v40z" glyph-name="Ocircumflex" horiz-adv-x="670" unicode="Ô"/><glyph d="M38 350q0 175 77 269.5T335 714q75 0 131-26t93-74 55-115 18-149q0-175-77.5-269.5T335-14q-76 0-132 26t-92.5 74T56 201 38 350zm144 0q0-53 9-97.5t27.5-76.5 47.5-50 69-18q73 0 113 57t40 185q0 51-8.5 95T453 522t-47 51.5-71 18.5q-73 0-113-58.5T182 350zm-38 450q32 35 61.5 48t58.5 13q22 0 44-5.5t42.5-12 40.5-12 38-5.5q16 0 31 5t29 19l25-67q-28-26-54.5-36.5T408 736q-23 0-44 5.5T322.5 754 282 766.5t-39 5.5-37.5-7.5T168 737z" glyph-name="Otilde" horiz-adv-x="670" unicode="Õ"/><glyph d="M38 350q0 175 77 269.5T335 714q75 0 131-26t93-74 55-115 18-149q0-175-77.5-269.5T335-14q-76 0-132 26t-92.5 74T56 201 38 350zm144 0q0-53 9-97.5t27.5-76.5 47.5-50 69-18q73 0 113 57t40 185q0 51-8.5 95T453 522t-47 51.5-71 18.5q-73 0-113-58.5T182 350zm-32 448q0 26 18 42t58 16q39 0 57-16t18-42-18-41.5-57-15.5q-40 0-58 15.5T150 798zm214 0q0 26 18 42t57 16q40 0 58-16t18-42-18-41.5-58-15.5q-39 0-57 15.5T364 798z" glyph-name="Odieresis" horiz-adv-x="670" unicode="Ö"/><glyph d="m134 547 131-130 130 130 79-81-130-127 130-129-79-82-130 131-132-132-79 81 131 131L56 466z" glyph-name="multiply" horiz-adv-x="527" unicode="×"/><glyph d="M111 86q-37 48-55 114.5T38 350q0 175 77 269.5T335 714q45 0 83-10t69-28l25 39 85-50-35-56q35-48 52.5-113.5T632 350q0-175-77.5-269.5T335-14q-44 0-80 8.5T188 19l-21-33-86 53zm71 264q0-36 4-68t12-59l219 342q-35 27-82 27-73 0-113-58.5T182 350zm306 0q0 33-3 63.5T474 470L259 130q33-22 76-22 73 0 113 57t40 185z" glyph-name="Oslash" horiz-adv-x="670" unicode="Ø"/><glyph d="M440 700h130V248q0-68-18-117t-50-81-78-47-101-15Q57-12 57 231v469h137V258q0-41 7.5-69.5t23.5-46 40-25 56-7.5q63 0 91 35t28 113v442zm-45 52H290l-158 88v30h159z" glyph-name="Ugrave" horiz-adv-x="627" unicode="Ù"/><glyph d="M440 700h130V248q0-68-18-117t-50-81-78-47-101-15Q57-12 57 231v469h137V258q0-41 7.5-69.5t23.5-46 40-25 56-7.5q63 0 91 35t28 113v442zm-75 170h159v-30l-160-88H261z" glyph-name="Uacute" horiz-adv-x="627" unicode="Ú"/><glyph d="M440 700h130V248q0-68-18-117t-50-81-78-47-101-15Q57-12 57 231v469h137V258q0-41 7.5-69.5t23.5-46 40-25 56-7.5q63 0 91 35t28 113v442zM273 870h96l127-93v-39h-99l-57 41-20 34-21-33-62-42h-97v40z" glyph-name="Ucircumflex" horiz-adv-x="627" unicode="Û"/><glyph d="M440 700h130V248q0-68-18-117t-50-81-78-47-101-15Q57-12 57 231v469h137V258q0-41 7.5-69.5t23.5-46 40-25 56-7.5q63 0 91 35t28 113v442zm-307 98q0 26 18 42t58 16q39 0 57-16t18-42-18-41.5-57-15.5q-40 0-58 15.5T133 798zm214 0q0 26 18 42t57 16q40 0 58-16t18-42-18-41.5-58-15.5q-39 0-57 15.5T347 798z" glyph-name="Udieresis" horiz-adv-x="627" unicode="Ü"/><glyph d="M228 260-2 700h163l128-263 14-74h5l15 76 124 261h147L365 261V0H228v260zm98 610h159v-30l-160-88H222z" glyph-name="Yacute" horiz-adv-x="592" unicode="Ý"/><glyph d="M60 700h137v-72q14 1 28 1.5t28 .5q52 0 104.5-8.5t94.5-34 68.5-71T547 398q0-66-23-111.5T463 212t-86.5-42T276 157h-16l-23 .5-23.5 1.5-16.5 2V0H60v700zm204-188q-20 0-38-1.5t-29-3.5V280q4-1 12-2t17-1.5 17.5-.5H256q27 0 53.5 5t47.5 18.5 33.5 37.5 12.5 63q0 33-12 54.5T359.5 489 315 507t-51 5z" glyph-name="Thorn" horiz-adv-x="572" unicode="Þ"/><glyph d="M81 390H12v110h69q0 58 16 97.5t44.5 64 68 35.5 86.5 11q51 0 91.5-11.5t69-32.5 44-50.5T516 548q0-39-17.5-63t-39-41-39-32-17.5-37q0-18 14.5-29t37-20.5 48-20 48-27.5 37-43.5T602 167q0-35-11-67.5t-34.5-58-59-40.5T414-14q-47 0-86.5 11.5T260 26l35 97q23-13 46-23t62-10q30 0 49.5 20.5T472 160q0 21-14.5 34t-37 23.5-48 20.5-48 25.5-37 38.5-14.5 59q0 43 17.5 67t39 40.5 39 30.5 17.5 38q0 13-7 24.5T360 581t-27 13-30 5q-48 0-70.5-23.5T210 488V0H81v390z" glyph-name="germandbls" horiz-adv-x="630" unicode="ß"/><glyph d="M54 471q40 18 95 28.5T264 510q52 0 87-12.5t55.5-35.5 29-55 8.5-72q0-44-3-88.5t-3.5-87.5 2.5-83.5T455-1H349l-21 69h-5q-20-31-55.5-53.5T176-8q-35 0-63 10.5t-48 30-31 46T23 138q0 46 20.5 77.5t59 51 92 27T314 298q7 56-8 80.5T239 403q-39 0-82.5-8T85 374zM219 99q39 0 62 17.5t34 37.5v65q-31 3-59.5 1t-50.5-9-35-20-13-33q0-28 16.5-43.5T219 99zm92 467h-72L115 690v30h136z" glyph-name="agrave" horiz-adv-x="496" unicode="à"/><glyph d="M54 471q40 18 95 28.5T264 510q52 0 87-12.5t55.5-35.5 29-55 8.5-72q0-44-3-88.5t-3.5-87.5 2.5-83.5T455-1H349l-21 69h-5q-20-31-55.5-53.5T176-8q-35 0-63 10.5t-48 30-31 46T23 138q0 46 20.5 77.5t59 51 92 27T314 298q7 56-8 80.5T239 403q-39 0-82.5-8T85 374zM219 99q39 0 62 17.5t34 37.5v65q-31 3-59.5 1t-50.5-9-35-20-13-33q0-28 16.5-43.5T219 99zm18 621h132v-30L258 566h-74z" glyph-name="aacute" horiz-adv-x="496" unicode="á"/><glyph d="M54 471q40 18 95 28.5T264 510q52 0 87-12.5t55.5-35.5 29-55 8.5-72q0-44-3-88.5t-3.5-87.5 2.5-83.5T455-1H349l-21 69h-5q-20-31-55.5-53.5T176-8q-35 0-63 10.5t-48 30-31 46T23 138q0 46 20.5 77.5t59 51 92 27T314 298q7 56-8 80.5T239 403q-39 0-82.5-8T85 374zM219 99q39 0 62 17.5t34 37.5v65q-31 3-59.5 1t-50.5-9-35-20-13-33q0-28 16.5-43.5T219 99zm-3 633h86l111-182H310l-39 66-17 49-17-49-45-66H93z" glyph-name="acircumflex" horiz-adv-x="496" unicode="â"/><glyph d="M54 471q40 18 95 28.5T264 510q52 0 87-12.5t55.5-35.5 29-55 8.5-72q0-44-3-88.5t-3.5-87.5 2.5-83.5T455-1H349l-21 69h-5q-20-31-55.5-53.5T176-8q-35 0-63 10.5t-48 30-31 46T23 138q0 46 20.5 77.5t59 51 92 27T314 298q7 56-8 80.5T239 403q-39 0-82.5-8T85 374zM219 99q39 0 62 17.5t34 37.5v65q-31 3-59.5 1t-50.5-9-35-20-13-33q0-28 16.5-43.5T219 99zM86 658q31 37 57.5 51t50.5 14q20 0 38.5-7t36.5-15 35-15 35-7q14 0 28.5 6t30.5 21l20-70q-29-32-53.5-44T317 580q-20 0-39 6.5T241 601t-36 14.5-36 6.5q-15 0-31-6.5T105 593z" glyph-name="atilde" horiz-adv-x="496" unicode="ã"/><glyph d="M54 471q40 18 95 28.5T264 510q52 0 87-12.5t55.5-35.5 29-55 8.5-72q0-44-3-88.5t-3.5-87.5 2.5-83.5T455-1H349l-21 69h-5q-20-31-55.5-53.5T176-8q-35 0-63 10.5t-48 30-31 46T23 138q0 46 20.5 77.5t59 51 92 27T314 298q7 56-8 80.5T239 403q-39 0-82.5-8T85 374zM219 99q39 0 62 17.5t34 37.5v65q-31 3-59.5 1t-50.5-9-35-20-13-33q0-28 16.5-43.5T219 99zM75 651q0 32 19.5 51t51.5 19 50.5-19 18.5-51q0-30-18.5-49T146 583t-51.5 19T75 651zm219 0q0 32 18.5 51t50.5 19 51.5-19 19.5-51q0-30-19.5-49T363 583t-50.5 19-18.5 49z" glyph-name="adieresis" horiz-adv-x="496" unicode="ä"/><glyph d="M54 471q40 18 95 28.5T264 510q52 0 87-12.5t55.5-35.5 29-55 8.5-72q0-44-3-88.5t-3.5-87.5 2.5-83.5T455-1H349l-21 69h-5q-20-31-55.5-53.5T176-8q-35 0-63 10.5t-48 30-31 46T23 138q0 46 20.5 77.5t59 51 92 27T314 298q7 56-8 80.5T239 403q-39 0-82.5-8T85 374zM219 99q39 0 62 17.5t34 37.5v65q-31 3-59.5 1t-50.5-9-35-20-13-33q0-28 16.5-43.5T219 99zm-75 548q0 42 28.5 69t82.5 27q51 0 81-24.5t30-71.5q0-39-29.5-66.5T255 553q-53 0-82 25.5T144 647zm72 0q0-16 12-24.5t27-8.5q17 0 28 8t11 25-11.5 25.5T255 681q-15 0-27-8t-12-26z" glyph-name="aring" horiz-adv-x="496" unicode="å"/><glyph d="M219 99q39 0 62 17.5t34 37.5v65q-31 3-59.5 1t-50.5-9-35-20-13-33q0-28 16.5-43.5T219 99zm131-23q-27-34-66.5-59T176-8q-35 0-63 10.5t-48 30-31 46T23 138q0 46 20.5 77.5t58.5 51 91.5 27T313 298q7 56-7.5 80.5T239 403q-39 0-79.5-10.5T88 367l-34 94q38 20 94 34.5T264 510q52 0 83-13.5t51-40.5q25 28 65 43t87 15q38 0 74-10t64-33 45-62 17-97q0-21-2.5-44.5T740 217H439q4-63 33.5-95T568 90q41 0 73.5 12.5T691 128l43-85q-30-24-81.5-40.5T543-14q-64 0-112.5 23.5T355 76h-5zm198 334q-51 0-75.5-30.5T443 298h187q3 54-17 83t-65 29z" glyph-name="ae" horiz-adv-x="785" unicode="æ"/><glyph d="M411 31q-23-17-52.5-27T296-11l-18-32q41-4 64.5-21.5T366-118q0-23-11.5-40T323-186.5 276-204t-58-6-64 6l9 48q7-1 13-1h11q38 0 49 9t11 21q0 28-86 32l50 84q-49 6-83 27.5t-55 55-30.5 79T33 250q0 127 57 195.5T256 514q55 0 88.5-9t60.5-23l-31-106q-23 11-45.5 17t-51.5 6q-54 0-82-35.5T167 250q0-32 7-59t21-47 36.5-31.5T284 101q33 0 56 8.5t41 20.5z" glyph-name="ccedilla" horiz-adv-x="433" unicode="ç"/><glyph d="M457 43q-30-24-81.5-40.5T266-14Q145-14 89 56.5T33 250q0 132 63 198t177 66q38 0 74-10t64-33 45-62 17-97q0-21-2.5-45t-7.5-50H163q3-63 32.5-95T291 90q41 0 73.5 12.5T414 128zM271 410q-51 0-75.5-30.5T166 298h186q4 54-16.5 83T271 410zm58 156h-72L133 690v30h136z" glyph-name="egrave" horiz-adv-x="508" unicode="è"/><glyph d="M457 43q-30-24-81.5-40.5T266-14Q145-14 89 56.5T33 250q0 132 63 198t177 66q38 0 74-10t64-33 45-62 17-97q0-21-2.5-45t-7.5-50H163q3-63 32.5-95T291 90q41 0 73.5 12.5T414 128zM271 410q-51 0-75.5-30.5T166 298h186q4 54-16.5 83T271 410zm3 310h132v-30L295 566h-74z" glyph-name="eacute" horiz-adv-x="508" unicode="é"/><glyph d="M457 43q-30-24-81.5-40.5T266-14Q145-14 89 56.5T33 250q0 132 63 198t177 66q38 0 74-10t64-33 45-62 17-97q0-21-2.5-45t-7.5-50H163q3-63 32.5-95T291 90q41 0 73.5 12.5T414 128zM271 410q-51 0-75.5-30.5T166 298h186q4 54-16.5 83T271 410zm-50 322h86l111-182H315l-39 66-17 49-17-49-45-66H98z" glyph-name="ecircumflex" horiz-adv-x="508" unicode="ê"/><glyph d="M457 43q-30-24-81.5-40.5T266-14Q145-14 89 56.5T33 250q0 132 63 198t177 66q38 0 74-10t64-33 45-62 17-97q0-21-2.5-45t-7.5-50H163q3-63 32.5-95T291 90q41 0 73.5 12.5T414 128zM271 410q-51 0-75.5-30.5T166 298h186q4 54-16.5 83T271 410zM82 651q0 32 19.5 51t51.5 19 50.5-19 18.5-51q0-30-18.5-49T153 583t-51.5 19T82 651zm219 0q0 32 18.5 51t50.5 19 51.5-19 19.5-51q0-30-19.5-49T370 583t-50.5 19-18.5 49z" glyph-name="edieresis" horiz-adv-x="508" unicode="ë"/><glyph d="M70 500h130V0H70v500zm124 66h-72L-2 690v30h136z" glyph-name="igrave" horiz-adv-x="269" unicode="ì"/><glyph d="M70 500h130V0H70v500zm54 220h132v-30L145 566H71z" glyph-name="iacute" horiz-adv-x="269" unicode="í"/><glyph d="M70 500h130V0H70v500zm23 232h86l111-182H187l-39 66-17 49-17-49-45-66h-99z" glyph-name="icircumflex" horiz-adv-x="269" unicode="î"/><glyph d="M70 500h130V0H70v500zM-45 651q0 32 19.5 51T26 721t50.5-19T95 651q0-30-18.5-49T26 583t-51.5 19-19.5 49zm219 0q0 32 18.5 51t50.5 19 51.5-19 19.5-51q0-30-19.5-49T243 583t-50.5 19-18.5 49z" glyph-name="idieresis" horiz-adv-x="269" unicode="ï"/><glyph d="M163 243q0-72 33-109t88-37q52 0 85 44.5T402 280q0 13-1.5 34t-5.5 33q-16 23-48 32.5t-62 9.5q-60 0-91-41.5T163 243zm34 341 44 30q-34 15-69 21l52 80q25-7 57-20 23-9 47-22l53 36 42-55-33-23q12-9 23-20 32-30 57-73.5T510.5 436 526 302q0-81-18.5-140.5T456 63 377 5 276-14q-59 0-104 19T97 58.5t-45 82T37 245q0 54 17 100t47.5 80.5 73.5 54 94 19.5q38 0 70.5-10.5T392 458q-12 36-34 66-22 29-50 51l-68-46z" glyph-name="eth" horiz-adv-x="563" unicode="ð"/><glyph d="M363 0v284q0 61-17.5 88T286 399q-37 0-62.5-21.5T187 324V0H57v500h103l15-66h4q23 32 61 56t98 24q37 0 66-10t49-33 30-62.5 10-97.5V0H363zM107 658q31 37 57.5 51t50.5 14q20 0 38.5-7t36.5-15 35-15 35-7q14 0 28.5 6t30.5 21l20-70q-29-32-53.5-44T338 580q-20 0-39 6.5T262 601t-36 14.5-36 6.5q-15 0-31-6.5T126 593z" glyph-name="ntilde" horiz-adv-x="545" unicode="ñ"/><glyph d="M33 250q0 127 62 195.5T269 514q60 0 104-19t73-53.5 43.5-83.5T504 250q0-127-61.5-195.5T269-14q-60 0-104 19T91.5 58.5t-44 83.5T33 250zm134 0q0-33 6-61t18-49 31.5-32.5T269 96q51 0 76 37t25 117q0 69-23 111.5T269 404q-48 0-75-36t-27-118zm164 316h-72L135 690v30h136z" glyph-name="ograve" horiz-adv-x="537" unicode="ò"/><glyph d="M33 250q0 127 62 195.5T269 514q60 0 104-19t73-53.5 43.5-83.5T504 250q0-127-61.5-195.5T269-14q-60 0-104 19T91.5 58.5t-44 83.5T33 250zm134 0q0-33 6-61t18-49 31.5-32.5T269 96q51 0 76 37t25 117q0 69-23 111.5T269 404q-48 0-75-36t-27-118zm108 470h132v-30L296 566h-74z" glyph-name="oacute" horiz-adv-x="537" unicode="ó"/><glyph d="M33 250q0 127 62 195.5T269 514q60 0 104-19t73-53.5 43.5-83.5T504 250q0-127-61.5-195.5T269-14q-60 0-104 19T91.5 58.5t-44 83.5T33 250zm134 0q0-33 6-61t18-49 31.5-32.5T269 96q51 0 76 37t25 117q0 69-23 111.5T269 404q-48 0-75-36t-27-118zm64 482h86l111-182H325l-39 66-17 49-17-49-45-66h-99z" glyph-name="ocircumflex" horiz-adv-x="537" unicode="ô"/><glyph d="M33 250q0 127 62 195.5T269 514q60 0 104-19t73-53.5 43.5-83.5T504 250q0-127-61.5-195.5T269-14q-60 0-104 19T91.5 58.5t-44 83.5T33 250zm134 0q0-33 6-61t18-49 31.5-32.5T269 96q51 0 76 37t25 117q0 69-23 111.5T269 404q-48 0-75-36t-27-118zm-63 408q31 37 57.5 51t50.5 14q20 0 38.5-7t36.5-15 35-15 35-7q14 0 28.5 6t30.5 21l20-70q-29-32-53.5-44T335 580q-20 0-39 6.5T259 601t-36 14.5-36 6.5q-15 0-31-6.5T123 593z" glyph-name="otilde" horiz-adv-x="537" unicode="õ"/><glyph d="M33 250q0 127 62 195.5T269 514q60 0 104-19t73-53.5 43.5-83.5T504 250q0-127-61.5-195.5T269-14q-60 0-104 19T91.5 58.5t-44 83.5T33 250zm134 0q0-33 6-61t18-49 31.5-32.5T269 96q51 0 76 37t25 117q0 69-23 111.5T269 404q-48 0-75-36t-27-118zM88 651q0 32 19.5 51t51.5 19 50.5-19 18.5-51q0-30-18.5-49T159 583t-51.5 19T88 651zm219 0q0 32 18.5 51t50.5 19 51.5-19 19.5-51q0-30-19.5-49T376 583t-50.5 19-18.5 49z" glyph-name="odieresis" horiz-adv-x="537" unicode="ö"/><glyph d="M43 394h442V282H43v112zm141 138q0 35 22 55.5t58 20.5q38 0 60-20.5t22-55.5-22-56-60-21q-36 0-58 21t-22 56zm0-387q0 35 22 55.5t58 20.5q38 0 60-20.5t22-55.5-22-56-60-21q-36 0-58 21t-22 56z" glyph-name="divide" horiz-adv-x="527" unicode="÷"/><glyph d="M33 250q0 127 61.5 195.5T268 514q32 0 59-5.5t50-16.5l24 34 80-59-27-38q25-34 37-79.5t12-99.5q0-127-61.5-195.5T268-14q-34 0-62.5 6.5T153 10l-25-34-83 60 31 43q-22 33-32.5 76.5T33 250zm336 0q0 37-8 71L212 114q22-18 56-18 51 0 76 37t25 117zm-202 0q0-35 6-65l147 204q-21 15-52 15-48 0-74.5-36T167 250z" glyph-name="oslash" horiz-adv-x="536" unicode="ø"/><glyph d="M182 500V216q0-61 14.5-88t56.5-27q37 0 61.5 22t36.5 54v323h130V152q0-41 4-80.5T497 0h-98l-23 74h-4q-23-38-64-63t-97-25q-38 0-68 10T93 29 62.5 91 52 189v311h130zm136 66h-72L122 690v30h136z" glyph-name="ugrave" horiz-adv-x="538" unicode="ù"/><glyph d="M182 500V216q0-61 14.5-88t56.5-27q37 0 61.5 22t36.5 54v323h130V152q0-41 4-80.5T497 0h-98l-23 74h-4q-23-38-64-63t-97-25q-38 0-68 10T93 29 62.5 91 52 189v311h130zm79 220h132v-30L282 566h-74z" glyph-name="uacute" horiz-adv-x="538" unicode="ú"/><glyph d="M182 500V216q0-61 14.5-88t56.5-27q37 0 61.5 22t36.5 54v323h130V152q0-41 4-80.5T497 0h-98l-23 74h-4q-23-38-64-63t-97-25q-38 0-68 10T93 29 62.5 91 52 189v311h130zm50 232h86l111-182H326l-39 66-17 49-17-49-45-66h-99z" glyph-name="ucircumflex" horiz-adv-x="538" unicode="û"/><glyph d="M182 500V216q0-61 14.5-88t56.5-27q37 0 61.5 22t36.5 54v323h130V152q0-41 4-80.5T497 0h-98l-23 74h-4q-23-38-64-63t-97-25q-38 0-68 10T93 29 62.5 91 52 189v311h130zM88 651q0 32 19.5 51t51.5 19 50.5-19 18.5-51q0-30-18.5-49T159 583t-51.5 19T88 651zm219 0q0 32 18.5 51t50.5 19 51.5-19 19.5-51q0-30-19.5-49T376 583t-50.5 19-18.5 49z" glyph-name="udieresis" horiz-adv-x="538" unicode="ü"/><glyph d="m239 219 18-78h6l13 79 76 280h134L334 49Q315-7 297.5-53.5T259-134t-46.5-52.5T152-205q-52 0-83 17L93-84q15-6 30-6 23 0 44.5 19.5T200 0L-9 500h156zm15 501h132v-30L275 566h-74z" glyph-name="yacute" horiz-adv-x="478" unicode="ý"/><glyph d="M57 700h130V457h4q21 26 50.5 41.5T319 514q94 0 141-59.5T507 263q0-64-15-115.5T447.5 60t-72-55T278-14q-31 0-51 4.5T187 5v-205H57v900zm223-296q-36 0-58.5-19T187 328V120q14-11 30.5-17.5T261 96q56 0 84 39.5T373 266q0 66-22 102t-71 36z" glyph-name="thorn" horiz-adv-x="540" unicode="þ"/><glyph d="m239 219 18-78h6l13 79 76 280h134L334 49Q315-7 297.5-53.5T259-134t-46.5-52.5T152-205q-52 0-83 17L93-84q15-6 30-6 23 0 44.5 19.5T200 0L-9 500h156zM66 651q0 32 19.5 51t51.5 19 50.5-19 18.5-51q0-30-18.5-49T137 583t-51.5 19T66 651zm219 0q0 32 18.5 51t50.5 19 51.5-19 19.5-51q0-30-19.5-49T354 583t-50.5 19-18.5 49z" glyph-name="ydieresis" horiz-adv-x="478" unicode="ÿ"/><glyph d="M405 155H190L137 0H0l252 705h101L605 0H461zM225 265h150l-52 156-21 110h-5l-21-111zm-96 591h343v-89H129v89z" glyph-name="Amacron" horiz-adv-x="605" unicode="Ā"/><glyph d="M54 471q40 18 95 28.5T264 510q52 0 87-12.5t55.5-35.5 29-55 8.5-72q0-44-3-88.5t-3.5-87.5 2.5-83.5T455-1H349l-21 69h-5q-20-31-55.5-53.5T176-8q-35 0-63 10.5t-48 30-31 46T23 138q0 46 20.5 77.5t59 51 92 27T314 298q7 56-8 80.5T239 403q-39 0-82.5-8T85 374zM219 99q39 0 62 17.5t34 37.5v65q-31 3-59.5 1t-50.5-9-35-20-13-33q0-28 16.5-43.5T219 99zM91 658h323v-92H91v92z" glyph-name="amacron" horiz-adv-x="496" unicode="ā"/><glyph d="M405 155H190L137 0H0l252 705h101L605 0H461zM225 265h150l-52 156-21 110h-5l-21-111zm-61 610q20-26 58-40t85-14q48 0 82.5 15t54.5 39l49-32q-12-29-32-50t-45-35-53.5-21-56.5-7q-27 0-55.5 6T196 754.5t-48 33-36 50.5z" glyph-name="Abreve" horiz-adv-x="605" unicode="Ă"/><glyph d="M54 471q40 18 95 28.5T264 510q52 0 87-12.5t55.5-35.5 29-55 8.5-72q0-44-3-88.5t-3.5-87.5 2.5-83.5T455-1H349l-21 69h-5q-20-31-55.5-53.5T176-8q-35 0-63 10.5t-48 30-31 46T23 138q0 46 20.5 77.5t59 51 92 27T314 298q7 56-8 80.5T239 403q-39 0-82.5-8T85 374zM219 99q39 0 62 17.5t34 37.5v65q-31 3-59.5 1t-50.5-9-35-20-13-33q0-28 16.5-43.5T219 99zm-76 621q17-30 47.5-44.5T255 661t62.5 15 43.5 44l60-27q-3-24-16.5-47.5T369 604t-51.5-29-63.5-11q-66 0-113 33.5T80 688z" glyph-name="abreve" horiz-adv-x="496" unicode="ă"/><glyph d="M405 155H190L137 0H0l252 705h101L605 0h-21q-58-22-58-73 0-26 22-38.5t62 7.5l19-62q-15-12-47.5-23.5T514-201q-56 0-85.5 25T399-110q0 38 23 65.5T486 0h-25zM225 265h150l-52 156-21 110h-5l-21-111z" glyph-name="Aogonek" horiz-adv-x="605" unicode="Ą"/><glyph d="M54 466q38 21 89.5 32.5T264 510q52 0 87-12.5t55.5-35.5 29-55 8.5-72q0-44-3-88.5t-3.5-87.5 2.5-83.5T455-1h-23q-56-24-56-72 0-26 22-38.5t62 7.5l19-62q-15-12-47.5-23.5T364-201q-56 0-85.5 25T249-110q0 40 26.5 68.5T347 4l-19 64h-5q-20-31-55.5-53.5T176-8q-35 0-63 10.5t-48 30-31 46T23 138q0 46 20.5 77.5t58.5 51 91.5 27T313 298q7 56-7.5 80.5T239 403q-39 0-79.5-8.5T88 372zM219 99q39 0 62 17.5t34 37.5v65q-31 3-59.5 1t-50.5-9-35-20-13-33q0-28 16.5-43.5T219 99z" glyph-name="aogonek" horiz-adv-x="496" unicode="ą"/><glyph d="M534 29Q502 6 452.5-4T351-14q-63 0-119.5 19.5t-99.5 63-68.5 113T38 350q0 103 28.5 172.5t74 112 101.5 61T354 714q60 0 101.5-8t68.5-19l-27-116q-23 11-54.5 16t-76.5 5q-83 0-133.5-59T182 350q0-54 12-98.5t36.5-76 61-49T376 109q45 0 76 9t54 23zM376 870h159v-30l-160-88H272z" glyph-name="Cacute" horiz-adv-x="559" unicode="Ć"/><glyph d="M411 31Q381 9 338.5-2.5T251-14q-60 0-101.5 19T82 58.5 44.5 142 33 250q0 127 57 195.5T256 514q55 0 88.5-9t60.5-23l-31-106q-23 11-45.5 17t-51.5 6q-54 0-82-35.5T167 250q0-32 7-59t21-47 36.5-31.5T284 101q33 0 56 8.5t41 20.5zM250 720h132v-30L271 566h-74z" glyph-name="cacute" horiz-adv-x="433" unicode="ć"/><glyph d="M534 29Q502 6 452.5-4T351-14q-63 0-119.5 19.5t-99.5 63-68.5 113T38 350q0 103 28.5 172.5t74 112 101.5 61T354 714q60 0 101.5-8t68.5-19l-27-116q-23 11-54.5 16t-76.5 5q-83 0-133.5-59T182 350q0-54 12-98.5t36.5-76 61-49T376 109q45 0 76 9t54 23zM288 870h96l127-93v-39h-99l-57 41-20 34-21-33-62-42h-97v40z" glyph-name="Ccircumflex" horiz-adv-x="559" unicode="Ĉ"/><glyph d="M411 31Q381 9 338.5-2.5T251-14q-60 0-101.5 19T82 58.5 44.5 142 33 250q0 127 57 195.5T256 514q55 0 88.5-9t60.5-23l-31-106q-23 11-45.5 17t-51.5 6q-54 0-82-35.5T167 250q0-32 7-59t21-47 36.5-31.5T284 101q33 0 56 8.5t41 20.5zM204 732h86l111-182H298l-39 66-17 49-17-49-45-66H81z" glyph-name="ccircumflex" horiz-adv-x="433" unicode="ĉ"/><glyph d="M534 29Q502 6 452.5-4T351-14q-63 0-119.5 19.5t-99.5 63-68.5 113T38 350q0 103 28.5 172.5t74 112 101.5 61T354 714q60 0 101.5-8t68.5-19l-27-116q-23 11-54.5 16t-76.5 5q-83 0-133.5-59T182 350q0-54 12-98.5t36.5-76 61-49T376 109q45 0 76 9t54 23zM386 737h-94l-127 94v39h105l53-45 19-30 21 29 56 46h100v-40z" glyph-name="Ccaron" horiz-adv-x="559" unicode="Č"/><glyph d="M411 31Q381 9 338.5-2.5T251-14q-60 0-101.5 19T82 58.5 44.5 142 33 250q0 127 57 195.5T256 514q55 0 88.5-9t60.5-23l-31-106q-23 11-45.5 17t-51.5 6q-54 0-82-35.5T167 250q0-32 7-59t21-47 36.5-31.5T284 101q33 0 56 8.5t41 20.5zM286 550h-91L80 732h110l39-66 16-49 18 49 45 66h101z" glyph-name="ccaron" horiz-adv-x="433" unicode="č"/><glyph d="M60 700q21 3 47.5 5t54.5 3 54.5 1.5 47.5.5q93 0 159-26t107-73 60-112 19-143q0-71-18-137t-60-117-110.5-82T251-11q-16 0-42.5 1t-55 2.5-54.5 3T60-1v701zm215-112q-22 0-44.5-1t-33.5-3V115q4-1 13.5-1.5t20.5-1 21-1 15-.5q58 0 96.5 20.5t61 54.5 31.5 78.5 9 91.5q0 41-8 82.5T427.5 513 369 567t-94 21zm53 149h-94l-127 94v39h105l53-45 19-30 21 29 56 46h100v-40z" glyph-name="Dcaron" horiz-adv-x="647" unicode="Ď"/><glyph d="M482 176q0-42 1-84t9-93h-93l-18 65h-4q-20-35-57.5-56.5T231-14q-94 0-146 62T33 242q0 128 58 199t170 71q31 0 51-3.5t40-11.5v203h130V176zM261 96q38 0 60 18.5t31 53.5v212q-14 11-31 16.5t-44 5.5q-55 0-82.5-37T167 238q0-64 22.5-103T261 96zm394 604q-2-29-12-60.5t-23.5-60-28.5-51-27-32.5l-58 31q17 36 26 81.5t9 91.5h114z" glyph-name="dcaron" horiz-adv-x="639" unicode="ď"/><glyph d="M-6 401h88v299q21 3 47.5 5t54.5 3 54.5 1.5 47.5.5q93 0 159-26t107-73 60-112 19-143q0-71-18-137t-60-117-110.5-82T273-11q-16 0-42.5 1t-55 2.5-54.5 3T82-1v322H-6v80zm303 187q-22 0-44.5-1t-33.5-3V401h140v-80H219V114q4-1 13.5-1.5t20.5-1 21-.5h15q58 0 96.5 20.5t61 54.5 31.5 78.5 9 91.5q0 41-8 82.5T449.5 513 391 567t-94 21z" glyph-name="Dcroat" horiz-adv-x="669" unicode="Đ"/><glyph d="M482 641h76v-80h-76V176q0-42 1-84t9-93h-93l-18 65h-4q-20-35-57.5-56.5T231-14q-94 0-146 62T33 242q0 128 58 199t170 71q31 0 51-3.5t40-11.5v64H204v80h148v59h130v-59zM261 96q38 0 60 18.5t31 53.5v212q-14 11-31 16.5t-44 5.5q-55 0-82.5-37T167 238q0-64 22.5-103T261 96z" glyph-name="dcroat" horiz-adv-x="550" unicode="đ"/><glyph d="M60 700h415V578H197V415h253V293H197V122h283V0H60v700zm35 156h343v-89H95v89z" glyph-name="Emacron" horiz-adv-x="522" unicode="Ē"/><glyph d="M457 43q-30-24-81.5-40.5T266-14Q145-14 89 56.5T33 250q0 132 63 198t177 66q38 0 74-10t64-33 45-62 17-97q0-21-2.5-45t-7.5-50H163q3-63 32.5-95T291 90q41 0 73.5 12.5T414 128zM271 410q-51 0-75.5-30.5T166 298h186q4 54-16.5 83T271 410zM97 658h323v-92H97v92z" glyph-name="emacron" horiz-adv-x="508" unicode="ē"/><glyph d="M60 700h415V578H197V415h253V293H197V122h283V0H60v700zm131 99q0 25 21.5 43t64.5 18 66-18 23-43q0-26-23-44t-66-18-64.5 18-21.5 44z" glyph-name="Edotaccent" horiz-adv-x="522" unicode="Ė"/><glyph d="M457 43q-30-24-81.5-40.5T266-14Q145-14 89 56.5T33 250q0 132 63 198t177 66q38 0 74-10t64-33 45-62 17-97q0-21-2.5-45t-7.5-50H163q3-63 32.5-95T291 90q41 0 73.5 12.5T414 128zM271 410q-51 0-75.5-30.5T166 298h186q4 54-16.5 83T271 410zm-85 231q0 29 21.5 49.5T267 711t61.5-20.5T352 641t-23.5-48.5T267 573t-59.5 19.5T186 641z" glyph-name="edotaccent" horiz-adv-x="508" unicode="ė"/><glyph d="M60 700h415V578H197V415h253V293H197V122h283V0h-27q-58-22-58-73 0-18 11-30.5t31-12.5q18 0 42 12l19-62q-15-12-47.5-23.5T383-201q-56 0-85.5 25T268-110q0 38 23 65.5T355 0H60v700z" glyph-name="Eogonek" horiz-adv-x="522" unicode="Ę"/><glyph d="M457 43q-25-20-66-35-48-31-48-76 0-13 6-23.5t16.5-16.5 26-5.5T427-103l19-62q-15-12-47-24t-67-12q-57 0-86.5 27.5T216-105q0 28 12 51t34 40Q144-13 89 56q-56 71-56 194 0 132 63 198t177 66q38 0 74-10t64-33 45-62 17-97q0-21-2.5-45t-7.5-50H163q3-63 32.5-95T291 90q41 0 73.5 12.5T414 128zM271 410q-51 0-75.5-30.5T166 298h186q4 54-16.5 83T271 410z" glyph-name="eogonek" horiz-adv-x="508" unicode="ę"/><glyph d="M60 700h415V578H197V415h253V293H197V122h283V0H60v700zm248 37h-94L87 831v39h105l53-45 19-30 21 29 56 46h100v-40z" glyph-name="Ecaron" horiz-adv-x="522" unicode="Ě"/><glyph d="M457 43q-30-24-81.5-40.5T266-14Q145-14 89 56.5T33 250q0 132 63 198t177 66q38 0 74-10t64-33 45-62 17-97q0-21-2.5-45t-7.5-50H163q3-63 32.5-95T291 90q41 0 73.5 12.5T414 128zM271 410q-51 0-75.5-30.5T166 298h186q4 54-16.5 83T271 410zm33 140h-91L98 732h110l39-66 16-49 18 49 45 66h101z" glyph-name="ecaron" horiz-adv-x="508" unicode="ě"/><glyph d="M307 365h261V53Q526 18 467.5 2T352-14q-67 0-124.5 21T128 72.5 62 186 38 350q0 99 28.5 168.5t75 113 104.5 63T364 714t105.5-9 72.5-19l-28-115q-25 10-56 15.5t-79 5.5q-43 0-79-13t-62.5-42.5-41-75.5T182 349q0-63 14-108.5t39-75 58.5-43.5 71.5-14q26 0 51 6.5t42 19.5v132l-151 16v83zm-4 505h96l127-93v-39h-99l-57 41-20 34-21-33-62-42h-97v40z" glyph-name="Gcircumflex" horiz-adv-x="609" unicode="Ĝ"/><glyph d="M480 0q0-109-59-160.5T256-212q-72 0-113.5 10T80-181l27 103q23-9 53.5-18t75.5-9q68 0 92.5 29.5T353 7v32h-4Q314-8 225-8 128-8 80.5 52T33 240q0 134 64 203t186 69q64 0 114.5-9t82.5-21V0zM260 96q38 0 58.5 17t31.5 51v225q-31 13-77 13-50 0-78-37.5T167 245q0-73 24-111t69-38zm-22 636h86l111-182H332l-39 66-17 49-17-49-45-66h-99z" glyph-name="gcircumflex" horiz-adv-x="536" unicode="ĝ"/><glyph d="M307 365h261V53Q526 18 467.5 2T352-14q-67 0-124.5 21T128 72.5 62 186 38 350q0 99 28.5 168.5t75 113 104.5 63T364 714t105.5-9 72.5-19l-28-115q-25 10-56 15.5t-79 5.5q-43 0-79-13t-62.5-42.5-41-75.5T182 349q0-63 14-108.5t39-75 58.5-43.5 71.5-14q26 0 51 6.5t42 19.5v132l-151 16v83zM196 875q20-26 58-40t85-14q48 0 82.5 15t54.5 39l49-32q-12-29-32-50t-45-35-53.5-21-56.5-7q-27 0-55.5 6T228 754.5t-48 33-36 50.5z" glyph-name="Gbreve" horiz-adv-x="609" unicode="Ğ"/><glyph d="M480 0q0-109-59-160.5T256-212q-72 0-113.5 10T80-181l27 103q23-9 53.5-18t75.5-9q68 0 92.5 29.5T353 7v32h-4Q314-8 225-8 128-8 80.5 52T33 240q0 134 64 203t186 69q64 0 114.5-9t82.5-21V0zM260 96q38 0 58.5 17t31.5 51v225q-31 13-77 13-50 0-78-37.5T167 245q0-73 24-111t69-38zM158 720q17-30 47.5-44.5T270 661t62.5 15 43.5 44l60-27q-3-24-16.5-47.5T384 604t-51.5-29-63.5-11q-66 0-113 33.5T95 688z" glyph-name="gbreve" horiz-adv-x="536" unicode="ğ"/><glyph d="M307 365h261V53Q526 18 467.5 2T352-14q-67 0-124.5 21T128 72.5 62 186 38 350q0 99 28.5 168.5t75 113 104.5 63T364 714t105.5-9 72.5-19l-28-115q-25 10-56 15.5t-79 5.5q-43 0-79-13t-62.5-42.5-41-75.5T182 349q0-63 14-108.5t39-75 58.5-43.5 71.5-14q26 0 51 6.5t42 19.5v132l-151 16v83zm-29-470q0 29 19.5 46T346-42q35 0 57-23t22-65q0-33-11-58t-27-42.5-34-28-31-14.5l-34 54q14 7 28 19.5t16 33.5q-20-1-37 14.5T278-105z" glyph-name="Gcommaaccent" horiz-adv-x="609" unicode="Ģ"/><glyph d="M480 0q0-109-59-160.5T256-212q-72 0-113.5 10T80-181l27 103q23-9 53.5-18t75.5-9q68 0 92.5 29.5T353 7v32h-4Q314-8 225-8 128-8 80.5 52T33 240q0 134 64 203t186 69q64 0 114.5-9t82.5-21V0zM260 96q38 0 58.5 17t31.5 51v225q-31 13-77 13-50 0-78-37.5T167 245q0-73 24-111t69-38zm99.004 517.993q0-28.998-19.499-45.997t-48.497-17q-34.998 0-56.996 23-22 22.998-22 64.996 0 32.998 11 57.996 11 25 26.999 42.498 15.999 17.498 33.997 27.998 17.999 10.5 30.998 14.5l33.998-53.998q-14-6.999-27.998-19.498-14-12.5-16-33.498 20 1 36.999-14.499t16.999-46.498z" glyph-name="gcommaaccent" horiz-adv-x="536" unicode="ģ"/><glyph d="M453 293H197V0H60v700h137V415h256v285h137V0H453v293zM278 870h96l127-93v-39h-99l-57 41-20 34-21-33-62-42h-97v40z" glyph-name="Hcircumflex" horiz-adv-x="651" unicode="Ĥ"/><glyph d="M363 0v284q0 61-17 88t-62 27q-33 0-60.5-22.5T187 319V0H57v700h130V444h4q24 32 59 51t89 19q38 0 67-10t48.5-33 29-62.5T493 311V0H363zM88 870h96l127-93v-39h-99l-57 41-20 34-21-33-62-42h-97v40z" glyph-name="hcircumflex" horiz-adv-x="545" unicode="ĥ"/><glyph d="M2 598h75v102h137V598h256v102h137V598h74v-82h-74V0H470v293H214V0H77v516H2v82zm468-183v101H214V415h256z" glyph-name="Hbar" horiz-adv-x="683" unicode="Ħ"/><glyph d="M-6 641h74v59h130v-59h161v-80H198V444h4q24 32 59 51t89 19q38 0 67-10t48.5-33 29-62.5T504 311V0H374v284q0 61-17 88t-62 27q-33 0-60.5-22.5T198 319V0H68v561H-6v80z" glyph-name="hbar" horiz-adv-x="556" unicode="ħ"/><glyph d="M74 700h137V0H74v700zm-99 156h343v-89H-25v89z" glyph-name="Imacron" horiz-adv-x="285" unicode="Ī"/><glyph d="M70 500h130V0H70v500zm-97 158h323v-92H-27v92z" glyph-name="imacron" horiz-adv-x="269" unicode="ī"/><glyph d="M74 700h137V0h-14q-23-12-36-30t-12-43q0-18 11-30.5t31-12.5q17 0 41 12l20-62q-15-12-47.5-24T137-202q-57 0-86 25.5T22-110q0 38 23 65.5T109 0H74v700z" glyph-name="Iogonek" horiz-adv-x="285" unicode="Į"/><glyph d="M70 500h130V0h-13q-23-14-35-32t-12-41q1-18 12-30.5t31-12.5q17 0 41 12l19-62q-15-12-47-24t-67-12q-57 0-86.5 25.5T13-110q0 38 23 65.5T100 0H70v500zM51 641q0 29 21.5 49.5T132 711t61.5-20.5T217 641t-23.5-48.5T132 573t-59.5 19.5T51 641z" glyph-name="iogonek" horiz-adv-x="270" unicode="į"/><glyph d="M74 700h137V0H74v700zm-17 99q0 25 21.5 43t64.5 18 66-18 23-43q0-26-23-44t-66-18-64.5 18T57 799z" glyph-name="Idotaccent" horiz-adv-x="285" unicode="İ"/><glyph d="M70 500h130V0H70v500z" glyph-name="dotlessi" horiz-adv-x="269" unicode="ı"/><glyph d="M131 700h137V188q0-40-9-76t-29.5-63.5-52.5-44T99-12q-29 0-63 6t-59 17L7 123q26-13 59-13 42 0 53.5 31t11.5 82v477zm23 170h96l127-93v-39h-99l-57 41-20 34-21-33-62-42H21v40z" glyph-name="Jcircumflex" horiz-adv-x="334" unicode="Ĵ"/><glyph d="M69 500h130V-21q0-91-36-139T48-208q-30 0-64 7v109q4 0 7-.5t6-.5q45 0 58.5 29T69 16v484zm28 232h86l111-182H191l-39 66-17 49-17-49-45-66h-99z" glyph-name="jcircumflex" horiz-adv-x="268" unicode="ĵ"/><glyph d="M233 299h-36V0H60v700h137V390l32 14 193 296h156L374 406l-54-38 56-39L609 0H440zm-12-404q0 29 19.5 46T289-42q35 0 57-23t22-65q0-33-11-58t-27-42.5-34-28-31-14.5l-34 54q14 7 28 19.5t16 33.5q-20-1-37 14.5T221-105z" glyph-name="Kcommaaccent" horiz-adv-x="620" unicode="Ķ"/><glyph d="M222 207h-35V0H57v700h130V287l30 14 114 199h143L354 310l-51-38 55-39L493 0H344zm-43-312q0 29 19.5 46T247-42q35 0 57-23t22-65q0-33-11-58t-27-42.5-34-28-31-14.5l-34 54q14 7 28 19.5t16 33.5q-20-1-37 14.5T179-105z" glyph-name="kcommaaccent" horiz-adv-x="491" unicode="ķ"/><glyph d="M503 0H60v700h137V122h306V0zM208 870h159v-30l-160-88H104z" glyph-name="Lacute" horiz-adv-x="514" unicode="Ĺ"/><glyph d="M191 168q0-35 9-51t29-16q12 0 23.5 2t28.5 9l14-102q-16-8-49-16t-68-8q-57 0-87 26.5T61 100v600h130V168zm-17 702h159v-30l-160-88H70z" glyph-name="lacute" horiz-adv-x="294" unicode="ĺ"/><glyph d="M503 0H60v700h137V122h306V0zM181-105q0 29 19.5 46T249-42q35 0 57-23t22-65q0-33-11-58t-27-42.5-34-28-31-14.5l-34 54q14 7 28 19.5t16 33.5q-20-1-37 14.5T181-105z" glyph-name="Lcommaaccent" horiz-adv-x="514" unicode="Ļ"/><glyph d="M191 168q0-35 9-51t29-16q12 0 23.5 2t28.5 9l14-102q-16-8-49-16t-68-8q-57 0-87 26.5T61 100v600h130V168zM95-105q0 29 19.5 46T163-42q35 0 57-23t22-65q0-33-11-58t-27-42.5-34-28-31-14.5l-34 54q14 7 28 19.5t16 33.5q-20-1-37 14.5T95-105z" glyph-name="lcommaaccent" horiz-adv-x="294" unicode="ļ"/><glyph d="M503 0H60v700h137V122h306V0zm-40 700q-2-29-12-60.5t-23.5-60-28.5-51-27-32.5l-58 31q17 36 26 81.5t9 91.5h114z" glyph-name="Lcaron" horiz-adv-x="514" unicode="Ľ"/><glyph d="M191 168q0-35 9-51t29-16q12 0 23.5 2t28.5 9l14-102q-16-8-49-16t-68-8q-57 0-87 26.5T61 100v600h130V168zm175 532q-2-29-12-60.5t-23.5-60-28.5-51-27-32.5l-58 31q17 36 26 81.5t9 91.5h114z" glyph-name="lcaron" horiz-adv-x="294" unicode="ľ"/><glyph d="m3 318 68 45v337h137V455l100 67V397l-100-66V122h306V0H71v241L3 197v121z" glyph-name="Lslash" horiz-adv-x="525" unicode="Ł"/><glyph d="m6 307 79 53v340h130V447l96 64V386l-96-63V168q0-35 9-51t29-16q12 0 23.5 2t28.5 9l14-102q-16-8-49-16t-68-8q-57 0-87 26.5T85 100v138L6 186v121z" glyph-name="lslash" horiz-adv-x="319" unicode="ł"/><glyph d="m234 365-55 110h-5l16-110V0H60v705h100l265-373 53-107h5l-16 107v368h130V-5H497zm132 505h159v-30l-160-88H262z" glyph-name="Nacute" horiz-adv-x="657" unicode="Ń"/><glyph d="M363 0v284q0 61-17.5 88T286 399q-37 0-62.5-21.5T187 324V0H57v500h103l15-66h4q23 32 61 56t98 24q37 0 66-10t49-33 30-62.5 10-97.5V0H363zm-86 720h132v-30L298 566h-74z" glyph-name="nacute" horiz-adv-x="545" unicode="ń"/><glyph d="m234 365-55 110h-5l16-110V0H60v705h100l265-373 53-107h5l-16 107v368h130V-5H497zm20-470q0 29 19.5 46T322-42q35 0 57-23t22-65q0-33-11-58t-27-42.5-34-28-31-14.5l-34 54q14 7 28 19.5t16 33.5q-20-1-37 14.5T254-105z" glyph-name="Ncommaaccent" horiz-adv-x="657" unicode="Ņ"/><glyph d="M363 0v284q0 61-17.5 88T286 399q-37 0-62.5-21.5T187 324V0H57v500h103l15-66h4q23 32 61 56t98 24q37 0 66-10t49-33 30-62.5 10-97.5V0H363zM198-105q0 29 19.5 46T266-42q35 0 57-23t22-65q0-33-11-58t-27-42.5-34-28-31-14.5l-34 54q14 7 28 19.5t16 33.5q-20-1-37 14.5T198-105z" glyph-name="ncommaaccent" horiz-adv-x="545" unicode="ņ"/><glyph d="m234 365-55 110h-5l16-110V0H60v705h100l265-373 53-107h5l-16 107v368h130V-5H497zm143 372h-94l-127 94v39h105l53-45 19-30 21 29 56 46h100v-40z" glyph-name="Ncaron" horiz-adv-x="657" unicode="Ň"/><glyph d="M363 0v284q0 61-17.5 88T286 399q-37 0-62.5-21.5T187 324V0H57v500h103l15-66h4q23 32 61 56t98 24q37 0 66-10t49-33 30-62.5 10-97.5V0H363zm-45 550h-91L112 732h110l39-66 16-49 18 49 45 66h101z" glyph-name="ncaron" horiz-adv-x="545" unicode="ň"/><glyph d="M38 350q0 175 77 269.5T335 714q75 0 131-26t93-74 55-115 18-149q0-175-77.5-269.5T335-14q-76 0-132 26t-92.5 74T56 201 38 350zm144 0q0-53 9-97.5t27.5-76.5 47.5-50 69-18q73 0 113 57t40 185q0 51-8.5 95T453 522t-47 51.5-71 18.5q-73 0-113-58.5T182 350zm-15 506h343v-89H167v89z" glyph-name="Omacron" horiz-adv-x="670" unicode="Ō"/><glyph d="M33 250q0 127 62 195.5T269 514q60 0 104-19t73-53.5 43.5-83.5T504 250q0-127-61.5-195.5T269-14q-60 0-104 19T91.5 58.5t-44 83.5T33 250zm134 0q0-33 6-61t18-49 31.5-32.5T269 96q51 0 76 37t25 117q0 69-23 111.5T269 404q-48 0-75-36t-27-118zm-60 408h323v-92H107v92z" glyph-name="omacron" horiz-adv-x="537" unicode="ō"/><glyph d="M38 350q0 175 77 269.5T335 714q75 0 131-26t93-74 55-115 18-149q0-175-77.5-269.5T335-14q-76 0-132 26t-92.5 74T56 201 38 350zm144 0q0-53 9-97.5t27.5-76.5 47.5-50 69-18q73 0 113 57t40 185q0 51-8.5 95T453 522t-47 51.5-71 18.5q-73 0-113-58.5T182 350zm68 500h134v-16l-100-93h-93zm198 0h140v-16l-143-93h-94z" glyph-name="Ohungarumlaut" horiz-adv-x="670" unicode="Ő"/><glyph d="M33 250q0 127 62 195.5T269 514q60 0 104-19t73-53.5 43.5-83.5T504 250q0-127-61.5-195.5T269-14q-60 0-104 19T91.5 58.5t-44 83.5T33 250zm134 0q0-33 6-61t18-49 31.5-32.5T269 96q51 0 76 37t25 117q0 69-23 111.5T269 404q-48 0-75-36t-27-118zm13 450h119v-16l-76-113h-78zm178 0h126v-16L366 571h-81z" glyph-name="ohungarumlaut" horiz-adv-x="537" unicode="ő"/><glyph d="M453 567q-21 11-51 18t-67 7q-73 0-113-58.5T182 350q0-53 9-97.5t28.5-76.5 49.5-50 73-18q29 0 55.5 3.5T453 127v440zm0-567q-19-7-52.5-10.5T335-14q-76 0-132 26t-92.5 74T56 201 38 350q0 175 77 269.5T335 714q39 0 67.5-4.5T453 700h415V578H590V415h253V293H590V122h283V0H453z" glyph-name="OE" horiz-adv-x="915" unicode="Œ"/><glyph d="M167 250q0-33 6-61t18-49 31.5-32.5T269 96q51 0 76 37t25 117q0 69-23 111.5T269 404q-48 0-75-36t-27-118zM431 60q-25-33-64.5-53.5T269-14q-60 0-104 19T91.5 58.5t-44 83.5T33 250q0 127 62 195.5T269 514q66 0 106-22.5t63-49.5q23 29 63.5 50.5T606 514q38 0 74-10t64-33 45-62 17-97q0-21-2.5-45t-7.5-50H495q3-63 33-95t96-32q41 0 73.5 12.5T747 128l43-85q-30-24-81.5-40.5T599-14q-111 0-168 74zm173 350q-51 0-75.5-30.5T499 298h186q0 4 .5 8t.5 8q0 46-20.5 71T604 410z" glyph-name="oe" horiz-adv-x="841" unicode="œ"/><glyph d="M60 693q23 4 49.5 7.5t53 5.5 51.5 3 46 1q49 0 96.5-9t85-31 60-60.5T524 513q0-86-40-140t-107-75l49-31L586 0H428L269 274l-72 13V0H60v693zm210-105q-21 0-41.5-1t-31.5-4V380h58q57 0 91 26t34 86q0 45-28 70.5T270 588zm22 282h159v-30l-160-88H188z" glyph-name="Racute" horiz-adv-x="602" unicode="Ŕ"/><glyph d="M333 378q-31 11-56 11-35 0-58.5-18.5T187 323V0H57v500h101l15-66h4q17 37 46 57t68 20q26 0 59-11zM172 720h132v-30L193 566h-74z" glyph-name="racute" horiz-adv-x="351" unicode="ŕ"/><glyph d="M60 693q23 4 49.5 7.5t53 5.5 51.5 3 46 1q49 0 96.5-9t85-31 60-60.5T524 513q0-86-40-140t-107-75l49-31L586 0H428L269 274l-72 13V0H60v693zm210-105q-21 0-41.5-1t-31.5-4V380h58q57 0 91 26t34 86q0 45-28 70.5T270 588zm-42-693q0 29 19.5 46T296-42q35 0 57-23t22-65q0-33-11-58t-27-42.5-34-28-31-14.5l-34 54q14 7 28 19.5t16 33.5q-20-1-37 14.5T228-105z" glyph-name="Rcommaaccent" horiz-adv-x="602" unicode="Ŗ"/><glyph d="M333 378q-31 11-56 11-35 0-58.5-18.5T187 323V0H57v500h101l15-66h4q17 37 46 57t68 20q26 0 59-11zM85-105q0 29 19.5 46T153-42q35 0 57-23t22-65q0-33-11-58t-27-42.5-34-28-31-14.5l-34 54q14 7 28 19.5t16 33.5q-20-1-37 14.5T85-105z" glyph-name="rcommaaccent" horiz-adv-x="351" unicode="ŗ"/><glyph d="M60 693q23 4 49.5 7.5t53 5.5 51.5 3 46 1q49 0 96.5-9t85-31 60-60.5T524 513q0-86-40-140t-107-75l49-31L586 0H428L269 274l-72 13V0H60v693zm210-105q-21 0-41.5-1t-31.5-4V380h58q57 0 91 26t34 86q0 45-28 70.5T270 588zm33 149h-94L82 831v39h105l53-45 19-30 21 29 56 46h100v-40z" glyph-name="Rcaron" horiz-adv-x="602" unicode="Ř"/><glyph d="M333 378q-31 11-56 11-35 0-58.5-18.5T187 323V0H57v500h101l15-66h4q17 37 46 57t68 20q26 0 59-11zm-94 172h-91L33 732h110l39-66 16-49 18 49 45 66h101z" glyph-name="rcaron" horiz-adv-x="351" unicode="ř"/><glyph d="M362 188q0 32-23.5 52t-59 36.5-77 34-77 43-59 63.5T43 514q0 51 17 88.5t48.5 62.5 74.5 37 96 12q61 0 115-10.5t89-30.5l-43-115q-22 14-66 25.5T279 595q-48 0-73.5-19T180 525q0-30 23.5-50t59-37 77-35 77-43.5 59-63T499 203t-18.5-96.5-52-67.5-81-40T243-14q-75 0-132 14T27 28l44 117q11-6 28.5-13t39.5-13 46.5-10 50.5-4q61 0 93.5 20.5T362 188zm-60 682h159v-30l-160-88H198z" glyph-name="Sacute" horiz-adv-x="530" unicode="Ś"/><glyph d="M264 138q0 20-17 32t-42 22-55 20.5-55 29-42 47T36 362q0 74 44 113t127 39q57 0 103-12t72-27l-29-94q-23 9-58 19t-71 10q-58 0-58-45 0-18 17-29t42-20.5 55-20.5 55-28.5 42-45.5 17-72q0-76-48.5-119.5T200-14q-53 0-99.5 13.5T25 31l36 97q23-13 61-25.5T200 90q29 0 46.5 11t17.5 37zm-56 582h132v-30L229 566h-74z" glyph-name="sacute" horiz-adv-x="422" unicode="ś"/><glyph d="M362 188q0 32-23.5 52t-59 36.5-77 34-77 43-59 63.5T43 514q0 51 17 88.5t48.5 62.5 74.5 37 96 12q61 0 115-10.5t89-30.5l-43-115q-22 14-66 25.5T279 595q-48 0-73.5-19T180 525q0-30 23.5-50t59-37 77-35 77-43.5 59-63T499 203t-18.5-96.5-52-67.5-81-40T243-14q-75 0-132 14T27 28l44 117q11-6 28.5-13t39.5-13 46.5-10 50.5-4q61 0 93.5 20.5T362 188zM230 870h96l127-93v-39h-99l-57 41-20 34-21-33-62-42H97v40z" glyph-name="Scircumflex" horiz-adv-x="530" unicode="Ŝ"/><glyph d="M264 138q0 20-17 32t-42 22-55 20.5-55 29-42 47T36 362q0 74 44 113t127 39q57 0 103-12t72-27l-29-94q-23 9-58 19t-71 10q-58 0-58-45 0-18 17-29t42-20.5 55-20.5 55-28.5 42-45.5 17-72q0-76-48.5-119.5T200-14q-53 0-99.5 13.5T25 31l36 97q23-13 61-25.5T200 90q29 0 46.5 11t17.5 37zm-87 594h86l111-182H271l-39 66-17 49-17-49-45-66H54z" glyph-name="scircumflex" horiz-adv-x="422" unicode="ŝ"/><glyph d="M362 188q0 32-23.5 52t-59 36.5-77 34-77 43-59 63.5T43 514q0 51 17 88.5t48.5 62.5 74.5 37 96 12q61 0 115-10.5t89-30.5l-43-115q-22 14-66 25.5T279 595q-48 0-73.5-19T180 525q0-30 23.5-50t59-37 77-35 77-43.5 59-63T499 203q0-95-51.5-147T308-9l-18-34q41-4 64.5-21.5T378-118q0-23-11.5-40T335-186.5 288-204t-58-6-64 6l9 48q7-1 13-1h11q38 0 49 9t11 21q0 28-86 32l48 81q-68 2-118.5 15T27 28l44 117q11-6 28.5-13t39.5-13 46.5-10 50.5-4q61 0 93.5 20.5T362 188z" glyph-name="Scedilla" horiz-adv-x="530" unicode="Ş"/><glyph d="M264 138q0 20-17 32t-42 22-55 20.5-55 29-42 47T36 362q0 74 44 113t127 39q57 0 103-12t72-27l-29-94q-23 9-58 19t-71 10q-58 0-58-45 0-18 17-29t42-20.5 55-20.5 55-28.5 42-45.5 17-72q0-64-35-105.5T255-9l-18-34q41-4 64.5-21.5T325-118q0-23-11.5-40T282-186.5 235-204t-58-6-64 6l9 48q7-1 13-1h11q38 0 49 9t11 21q0 28-86 32l49 83Q125-8 87 3.5T25 31l36 97q23-13 61-25.5T200 90q29 0 46.5 11t17.5 37z" glyph-name="scedilla" horiz-adv-x="422" unicode="ş"/><glyph d="M362 188q0 32-23.5 52t-59 36.5-77 34-77 43-59 63.5T43 514q0 51 17 88.5t48.5 62.5 74.5 37 96 12q61 0 115-10.5t89-30.5l-43-115q-22 14-66 25.5T279 595q-48 0-73.5-19T180 525q0-30 23.5-50t59-37 77-35 77-43.5 59-63T499 203t-18.5-96.5-52-67.5-81-40T243-14q-75 0-132 14T27 28l44 117q11-6 28.5-13t39.5-13 46.5-10 50.5-4q61 0 93.5 20.5T362 188zm-34 549h-94l-127 94v39h105l53-45 19-30 21 29 56 46h100v-40z" glyph-name="Scaron" horiz-adv-x="530" unicode="Š"/><glyph d="M264 138q0 20-17 32t-42 22-55 20.5-55 29-42 47T36 362q0 74 44 113t127 39q57 0 103-12t72-27l-29-94q-23 9-58 19t-71 10q-58 0-58-45 0-18 17-29t42-20.5 55-20.5 55-28.5 42-45.5 17-72q0-76-48.5-119.5T200-14q-53 0-99.5 13.5T25 31l36 97q23-13 61-25.5T200 90q29 0 46.5 11t17.5 37zm-11 412h-91L47 732h110l39-66 16-49 18 49 45 66h101z" glyph-name="scaron" horiz-adv-x="422" unicode="š"/><glyph d="M216 0v578H11v122h546V578H353V0h-27l-24-43q41-4 64.5-21.5T390-118q0-23-11.5-40T347-186.5 300-204t-58-6-64 6l9 48q7-1 13-1h11q38 0 49 9t11 21q0 28-86 32l57 95h-26z" glyph-name="Tcedilla" horiz-adv-x="568" unicode="Ţ"/><glyph d="M5 500h69v94l130 37V500h122V390H204V198q0-52 10.5-75t39.5-23q20 0 34.5 4t32.5 12l23-99q-19-9-41-15T255-9l-18-34q41-4 64.5-21.5T325-118q0-23-11.5-40T282-186.5 235-204t-58-6-64 6l9 48q7-1 13-1h11q38 0 49 9t11 21q0 28-86 32l50 84q-49 9-72.5 44.5T74 138v252H5v110z" glyph-name="tcedilla" horiz-adv-x="349" unicode="ţ"/><glyph d="M557 578H353V0H216v578H11v122h546V578zM327 737h-94l-127 94v39h105l53-45 19-30 21 29 56 46h100v-40z" glyph-name="Tcaron" horiz-adv-x="568" unicode="Ť"/><glyph d="M5 500h69v94l130 37V500h122V390H204V198q0-52 10.5-74.5T254 101q20 0 34.5 4t32.5 12l23-100Q317 4 281-5t-73-9q-69 0-101.5 35.5T74 138v252H5v110zm370 223q-2-29-12-60.5t-23.5-60-28.5-51-27-32.5l-58 31q17 36 26 81.5t9 91.5h114z" glyph-name="tcaron" horiz-adv-x="360" unicode="ť"/><glyph d="M440 700h130V248q0-68-18-117t-50-81-78-47-101-15Q57-12 57 231v469h137V258q0-41 7.5-69.5t23.5-46 40-25 56-7.5q63 0 91 35t28 113v442zM145 856h343v-89H145v89z" glyph-name="Umacron" horiz-adv-x="627" unicode="Ū"/><glyph d="M182 500V216q0-61 14.5-88t56.5-27q37 0 61.5 22t36.5 54v323h130V152q0-41 4-80.5T497 0h-98l-23 74h-4q-23-38-64-63t-97-25q-38 0-68 10T93 29 62.5 91 52 189v311h130zm-76 158h323v-92H106v92z" glyph-name="umacron" horiz-adv-x="538" unicode="ū"/><glyph d="M440 700h130V248q0-68-18-117t-50-81-78-47-101-15Q57-12 57 231v469h137V258q0-41 7.5-69.5t23.5-46 40-25 56-7.5q63 0 91 35t28 113v442zM173 875q20-26 58-40t85-14q48 0 82.5 15t54.5 39l49-32q-12-29-32-50t-45-35-53.5-21-56.5-7q-27 0-55.5 6T205 754.5t-48 33-36 50.5z" glyph-name="Ubreve" horiz-adv-x="627" unicode="Ŭ"/><glyph d="M182 500V216q0-61 14.5-88t56.5-27q37 0 61.5 22t36.5 54v323h130V152q0-41 4-80.5T497 0h-98l-23 74h-4q-23-38-64-63t-97-25q-38 0-68 10T93 29 62.5 91 52 189v311h130zm-23 220q17-30 47.5-44.5T271 661t62.5 15 43.5 44l60-27q-3-24-16.5-47.5T385 604t-51.5-29-63.5-11q-66 0-113 33.5T96 688z" glyph-name="ubreve" horiz-adv-x="538" unicode="ŭ"/><glyph d="M440 700h130V248q0-68-18-117t-50-81-78-47-101-15Q57-12 57 231v469h137V258q0-41 7.5-69.5t23.5-46 40-25 56-7.5q63 0 91 35t28 113v442zm-248 72q0 18 6 34.5t20.5 29 39 19.5 62.5 7q70 0 99-24t29-66q0-18-6.5-34T420 710.5 380.5 692t-60.5-7q-71 0-99.5 24.5T192 772zm84 0q0-31 44-31 25 0 35 8t10 23q0 17-10.5 25t-34.5 8q-44 0-44-33z" glyph-name="Uring" horiz-adv-x="627" unicode="Ů"/><glyph d="M182 500V216q0-61 14.5-88t56.5-27q37 0 61.5 22t36.5 54v323h130V152q0-41 4-80.5T497 0h-98l-23 74h-4q-23-38-64-63t-97-25q-38 0-68 10T93 29 62.5 91 52 189v311h130zm-27 147q0 42 28.5 69t82.5 27q51 0 81-24.5t30-71.5q0-39-29.5-66.5T266 553q-53 0-82 25.5T155 647zm72 0q0-16 12-24.5t27-8.5q17 0 28 8t11 25-11.5 25.5T266 681q-15 0-27-8t-12-26z" glyph-name="uring" horiz-adv-x="538" unicode="ů"/><glyph d="M440 700h130V248q0-68-18-117t-50-81-78-47-101-15Q57-12 57 231v469h137V258q0-41 7.5-69.5t23.5-46 40-25 56-7.5q63 0 91 35t28 113v442zM225 850h134v-16l-100-93h-93zm198 0h140v-16l-143-93h-94z" glyph-name="Uhungarumlaut" horiz-adv-x="627" unicode="Ű"/><glyph d="M182 500V216q0-61 14.5-88t56.5-27q37 0 61.5 22t36.5 54v323h130V152q0-41 4-80.5T497 0h-98l-23 74h-4q-23-38-64-63t-97-25q-38 0-68 10T93 29 62.5 91 52 189v311h130zm-16 200h119v-16l-76-113h-78zm178 0h126v-16L352 571h-81z" glyph-name="uhungarumlaut" horiz-adv-x="538" unicode="ű"/><glyph d="M440 700h130V248q0-68-18-117t-50-81q-30-30-73-45-45-31-45-73 0-13 5.5-23.5T406-108t26.5-5.5T468-103l19-62q-15-12-47.5-24T372-201q-56 0-85.5 27.5T257-105q0 55 53 93Q57-6 57 231v469h137V258q0-41 7.5-69.5t23.5-46 40-25 56-7.5q63 0 91 35t28 113v442z" glyph-name="Uogonek" horiz-adv-x="627" unicode="Ų"/><glyph d="M182 500V216q0-61 14.5-88t56.5-27q37 0 61.5 22t36.5 54v323h130V152q0-41 4-80.5T497 0h-18q-29-10-42.5-28.5T423-72q1-26 22.5-38.5T507-103l19-62q-15-12-47-24t-67-12q-57 0-86.5 25.5T296-109t27 70 74 45l-21 68h-4q-23-38-64-63t-97-25q-38 0-68 10T93 29 62.5 91 52 189v311h130z" glyph-name="uogonek" horiz-adv-x="538" unicode="ų"/><glyph d="M228 260-2 700h163l128-263 14-74h5l15 76 124 261h147L365 261V0H228v260zM116 798q0 26 18 42t58 16q39 0 57-16t18-42-18-41.5-57-15.5q-40 0-58 15.5T116 798zm214 0q0 26 18 42t57 16q40 0 58-16t18-42-18-41.5-58-15.5q-39 0-57 15.5T330 798z" glyph-name="Ydieresis" horiz-adv-x="592" unicode="Ÿ"/><glyph d="m27 122 296 414 52 42H27v122h485V578L214 160l-51-38h349V0H27v122zm271 748h159v-30l-160-88H194z" glyph-name="Zacute" horiz-adv-x="539" unicode="Ź"/><glyph d="m31 110 197 237 51 43H31v110h392V390L228 149l-50-39h245V0H31v110zm191 610h132v-30L243 566h-74z" glyph-name="zacute" horiz-adv-x="458" unicode="ź"/><glyph d="m27 122 296 414 52 42H27v122h485V578L214 160l-51-38h349V0H27v122zm159 677q0 25 21.5 43t64.5 18 66-18 23-43q0-26-23-44t-66-18-64.5 18-21.5 44z" glyph-name="Zdotaccent" horiz-adv-x="539" unicode="Ż"/><glyph d="m31 110 197 237 51 43H31v110h392V390L228 149l-50-39h245V0H31v110zm120 531q0 29 21.5 49.5T232 711t61.5-20.5T317 641t-23.5-48.5T232 573t-59.5 19.5T151 641z" glyph-name="zdotaccent" horiz-adv-x="458" unicode="ż"/><glyph d="m27 122 296 414 52 42H27v122h485V578L214 160l-51-38h349V0H27v122zm282 615h-94L88 831v39h105l53-45 19-30 21 29 56 46h100v-40z" glyph-name="Zcaron" horiz-adv-x="539" unicode="Ž"/><glyph d="m31 110 197 237 51 43H31v110h392V390L228 149l-50-39h245V0H31v110zm238 440h-91L63 732h110l39-66 16-49 18 49 45 66h101z" glyph-name="zcaron" horiz-adv-x="458" unicode="ž"/><glyph d="M12 500h69v28q0 95 40 137.5T237 708q45 0 76-6.5t58-17.5l-26-101q-23 8-40 11.5t-37 3.5-31.5-6-17-18.5-7-31T211 500V0H81v390H12v110z" glyph-name="longs" horiz-adv-x="249" unicode="ſ"/><glyph d="M342 390 271-34q-6-37-17.5-68.5t-32-55-51-37T96-208q-14 0-34.5 2T20-201t-40.5 7.5T-52-184l21 105q23-10 44-14.5T62-98q36 0 56 24.5T147 8l61 382h-78v110h96l11 67q6 37 16.5 64.5t29 46T330 705t72 9q16 0 36.5-2.5t41.5-7 41-10 35-12.5l-32-97q-49 19-95 19-32 0-44.5-15.5T366 533l-5-33h119V390H342z" glyph-name="florin" unicode="ƒ"/><glyph d="M307 365h261V53Q526 18 467.5 2T352-14q-67 0-124.5 21T128 72.5 62 186 38 350q0 99 28.5 168.5t75 113 104.5 63T364 714t105.5-9 72.5-19l-28-115q-25 10-56 15.5t-79 5.5q-43 0-79-13t-62.5-42.5-41-75.5T182 349q0-63 14-108.5t39-75 58.5-43.5 71.5-14q26 0 51 6.5t42 19.5v132l-151 16v83zm84 505h159v-30l-160-88H287z" glyph-name="uni01F4" horiz-adv-x="609" unicode="Ǵ"/><glyph d="M480 0q0-109-59-160.5T256-212q-72 0-113.5 10T80-181l27 103q23-9 53.5-18t75.5-9q68 0 92.5 29.5T353 7v32h-4Q314-8 225-8 128-8 80.5 52T33 240q0 134 64 203t186 69q64 0 114.5-9t82.5-21V0zM260 96q38 0 58.5 17t31.5 51v225q-31 13-77 13-50 0-78-37.5T167 245q0-73 24-111t69-38zm18 624h132v-30L299 566h-74z" glyph-name="uni01F5" horiz-adv-x="536" unicode="ǵ"/><glyph d="M362 188q0 32-23.5 52t-59 36.5-77 34-77 43-59 63.5T43 514q0 51 17 88.5t48.5 62.5 74.5 37 96 12q61 0 115-10.5t89-30.5l-43-115q-22 14-66 25.5T279 595q-48 0-73.5-19T180 525q0-30 23.5-50t59-37 77-35 77-43.5 59-63T499 203t-18.5-96.5-52-67.5-81-40T243-14q-75 0-132 14T27 28l44 117q11-6 28.5-13t39.5-13 46.5-10 50.5-4q61 0 93.5 20.5T362 188zM185-105q0 29 19.5 46T253-42q35 0 57-23t22-65q0-33-11-58t-27-42.5-34-28-31-14.5l-34 54q14 7 28 19.5t16 33.5q-20-1-37 14.5T185-105z" glyph-name="Scommaaccent" horiz-adv-x="530" unicode="Ș"/><glyph d="M264 138q0 20-17 32t-42 22-55 20.5-55 29-42 47T36 362q0 74 44 113t127 39q57 0 103-12t72-27l-29-94q-23 9-58 19t-71 10q-58 0-58-45 0-18 17-29t42-20.5 55-20.5 55-28.5 42-45.5 17-72q0-76-48.5-119.5T200-14q-53 0-99.5 13.5T25 31l36 97q23-13 61-25.5T200 90q29 0 46.5 11t17.5 37zM141-105q0 29 19.5 46T209-42q35 0 57-23t22-65q0-33-11-58t-27-42.5-34-28-31-14.5l-34 54q14 7 28 19.5t16 33.5q-20-1-37 14.5T141-105z" glyph-name="scommaaccent" horiz-adv-x="422" unicode="ș"/><glyph d="M557 578H353V0H216v578H11v122h546V578zM205-105q0 29 19.5 46T273-42q35 0 57-23t22-65q0-33-11-58t-27-42.5-34-28-31-14.5l-34 54q14 7 28 19.5t16 33.5q-20-1-37 14.5T205-105z" glyph-name="Tcommaaccent" horiz-adv-x="568" unicode="Ț"/><glyph d="M5 500h69v94l130 37V500h122V390H204V198q0-52 10.5-74.5T254 101q20 0 34.5 4t32.5 12l23-100Q317 4 281-5t-73-9q-69 0-101.5 35.5T74 138v252H5v110zm104-605q0 29 19.5 46T177-42q35 0 57-23t22-65q0-33-11-58t-27-42.5-34-28-31-14.5l-34 54q14 7 28 19.5t16 33.5q-20-1-37 14.5T109-105z" glyph-name="tcommaaccent" horiz-adv-x="349" unicode="ț"/><glyph d="M69 500h130V-21q0-91-36-139T48-208q-30 0-64 7v109q4 0 7-.5t6-.5q45 0 58.5 29T69 16v484z" glyph-name="uni0237" horiz-adv-x="268" unicode="ȷ"/><glyph d="M38 644q0 29 19.5 47t49.5 18q36 0 57-24t21-63q0-40-12.5-68t-30-46.5-37-29T73 463l-33 55q20 9 35.5 24T93 580q-20-1-37.5 15.5T38 644z" glyph-name="afii57929" horiz-adv-x="223" unicode="ʼ"/><glyph d="M183 732h86l111-182H277l-39 66-17 49-17-49-45-66H60z" glyph-name="circumflex" horiz-adv-x="440" unicode="ˆ"/><glyph d="M266 550h-91L60 732h110l39-66 16-49 18 49 45 66h101z" glyph-name="caron" horiz-adv-x="449" unicode="ˇ"/><glyph d="M123 720q17-30 47.5-44.5T235 661t62.5 15 43.5 44l60-27q-3-24-16.5-47.5T349 604t-51.5-29-63.5-11q-66 0-113 33.5T60 688z" glyph-name="breve" horiz-adv-x="461" unicode="˘"/><glyph d="M60 641q0 29 21.5 49.5T141 711t61.5-20.5T226 641t-23.5-48.5T141 573t-59.5 19.5T60 641z" glyph-name="dotaccent" horiz-adv-x="286" unicode="˙"/><glyph d="M60 647q0 42 28.5 69t82.5 27q51 0 81-24.5t30-71.5q0-39-29.5-66.5T171 553q-53 0-82 25.5T60 647zm72 0q0-16 12-24.5t27-8.5q17 0 28 8t11 25-11.5 25.5T171 681q-15 0-27-8t-12-26z" glyph-name="ring" horiz-adv-x="342" unicode="˚"/><glyph d="M263 10q-76-22-76-79 0-18 11-30.5t31-12.5q18 0 42 12l19-62q-15-12-47.5-23.5T175-197q-56 0-85.5 25T60-106t27.5 70T163 10h100z" glyph-name="ogonek" horiz-adv-x="350" unicode="˛"/><glyph d="M60 658q31 37 57.5 51t50.5 14q20 0 38.5-7t36.5-15 35-15 35-7q14 0 28.5 6t30.5 21l20-70q-29-32-53.5-44T291 580q-20 0-39 6.5T215 601t-36 14.5-36 6.5q-15 0-31-6.5T79 593z" glyph-name="tilde" horiz-adv-x="452" unicode="˜"/><glyph d="M95 700h119v-16l-76-113H60zm178 0h126v-16L281 571h-81z" glyph-name="hungarumlaut" horiz-adv-x="459" unicode="˝"/><glyph d="M-252 720h132v-30l-111-124h-74z" glyph-name="acutecomb" horiz-adv-x="2" unicode="́"/><glyph d="M12 0v71l241 634h79L575 71V0H12zm146 116h270L316 414l-23 100h-5l-24-101z" glyph-name="uni0394" horiz-adv-x="585" unicode="Δ"/><glyph d="M12 0v71l241 634h79L575 71V0H12zm146 116h270L316 414l-23 100h-5l-24-101z" glyph-name="uni0394" horiz-adv-x="585" unicode="∆"/><glyph d="M58 110h105l85-13v28l-46 9q-30 14-56 37t-45.5 56T70 302.5 59 397q0 73 23.5 131.5t67 99.5T254 691.5 389 714q78 0 139.5-23.5T632 625t64.5-101T719 393q0-52-12-93.5T675.5 226t-45-54.5T578 135l-49-10V97l85 13h106V0H420v203q26 4 53.5 17t50 35.5 37 56T575 392q0 37-10 73t-32 64.5-57.5 45.5-87.5 17q-89 0-137-51t-48-152q0-45 14-78.5t36-56 49.5-35T357 203V0H58v110z" glyph-name="uni03A9" horiz-adv-x="778" unicode="Ω"/><glyph d="M58 110h105l85-13v28l-46 9q-30 14-56 37t-45.5 56T70 302.5 59 397q0 73 23.5 131.5t67 99.5T254 691.5 389 714q78 0 139.5-23.5T632 625t64.5-101T719 393q0-52-12-93.5T675.5 226t-45-54.5T578 135l-49-10V97l85 13h106V0H420v203q26 4 53.5 17t50 35.5 37 56T575 392q0 37-10 73t-32 64.5-57.5 45.5-87.5 17q-89 0-137-51t-48-152q0-45 14-78.5t36-56 49.5-35T357 203V0H58v110z" glyph-name="uni03A9" horiz-adv-x="778" unicode="Ω"/><glyph d="M566 156q0-28 9-39t23-11q10 0 22.5 2t21.5 4l20-90q-20-9-51.5-18.5T534-6q-56 0-77 30t-21 82v284H296V0H166v390h-14q-18 0-31.5-10T95 346l-76 48q19 51 56.5 78.5T166 500h483V390h-83V156z" glyph-name="pi" horiz-adv-x="696" unicode="π"/><glyph d="M60 700h415V578H197V415h253V293H197V122h283V0H60v700zm22 98q0 26 18 42t58 16q39 0 57-16t18-42-18-41.5-57-15.5q-40 0-58 15.5T82 798zm214 0q0 26 18 42t57 16q40 0 58-16t18-42-18-41.5-58-15.5q-39 0-57 15.5T296 798z" glyph-name="afii10023" horiz-adv-x="522" unicode="Ё"/><glyph d="M353 0H216v578H11v122h546V578H353V435q16 6 50 14t88 8q39 0 76.5-10t67.5-35.5 48.5-69T702 232q0-116-57-177.5T461-7q-28 0-41.5 1T398-3v117q7-2 23.5-2.5t33.5-.5q50 0 76.5 29t26.5 86q0 34-9 55.5T524 315t-38 16-48 4q-23 0-48.5-6T353 317V0z" glyph-name="afii10051" horiz-adv-x="740" unicode="Ђ"/><glyph d="M467 578H197V0H60v700h407V578zM292 870h159v-30l-160-88H188z" glyph-name="afii10052" horiz-adv-x="458" unicode="Ѓ"/><glyph d="M549 29q-15-11-37.5-19.5T463.5-4 411-11.5 358-14q-65 0-123 19.5t-101.5 63-69.5 113T38 350q0 103 29 172.5t75.5 112 104 61T362 714q60 0 105-8t72-19l-26-119q-23 11-58.5 17.5T374 592q-35 0-66.5-10.5t-56-32.5-42-55-24.5-78h275V304H182q11-89 62.5-142.5T384 108q45 0 80 9t57 22z" glyph-name="afii10053" horiz-adv-x="577" unicode="Є"/><glyph d="M362 188q0 32-23.5 52t-59 36.5-77 34-77 43-59 63.5T43 514q0 51 17 88.5t48.5 62.5 74.5 37 96 12q61 0 115-10.5t89-30.5l-43-115q-22 14-66 25.5T279 595q-48 0-73.5-19T180 525q0-30 23.5-50t59-37 77-35 77-43.5 59-63T499 203t-18.5-96.5-52-67.5-81-40T243-14q-75 0-132 14T27 28l44 117q11-6 28.5-13t39.5-13 46.5-10 50.5-4q61 0 93.5 20.5T362 188z" glyph-name="afii10054" horiz-adv-x="530" unicode="Ѕ"/><glyph d="M74 700h137V0H74v700z" glyph-name="afii10055" horiz-adv-x="285" unicode="І"/><glyph d="M19 792q0 31 15.5 47.5T79 856q28 0 43.5-16.5T138 792q0-30-15.5-46T79 730q-29 0-44.5 16T19 792zm140 0q0 31 15.5 47.5T218 856q29 0 44.5-16.5T278 792q0-30-15.5-46T218 730q-28 0-43.5 16T159 792zm-80-92h137V0H79v700z" glyph-name="afii10056" horiz-adv-x="296" unicode="Ї"/><glyph d="M131 700h137V188q0-40-9-76t-29.5-63.5-52.5-44T99-12q-29 0-63 6t-59 17L7 123q26-13 59-13 42 0 53.5 31t11.5 82v477z" glyph-name="afii10057" horiz-adv-x="334" unicode="Ј"/><glyph d="M426 578H277q-4-95-9-173t-13.5-140.5T232 154t-36-83q-14-23-31.5-38T128 9 90.5-3.5 56-7Q33-7 17.5-3.5T-13 7L2 125q6-2 12-3t12-1q16 0 31.5 8T84 156q15 22 26 64.5T129.5 329 143 486.5t7 213.5h413V449q5 1 16.5 2.5t25 2.5 27.5 2 26 1q49 0 95-10t81.5-35.5 56.5-69T912 232q0-120-74.5-181T624-10q-12 0-30 .5T554.5-8 509-5t-46 5h-37v578zm205-466q28 0 53 5.5t44 19 29.5 35.5 10.5 54q0 34-11.5 55.5t-30 33.5-43.5 16-52 4q-7 0-17-1l-20-2-18.5-2.5L563 327V118q11-3 29.5-4.5T631 112z" glyph-name="afii10058" horiz-adv-x="935" unicode="Љ"/><glyph d="M453 305H197V0H60v700h137V427h256v273h137V434q5 1 16.5 2.5t25 2.5 27.5 2 26 1q49 0 95-9t81.5-33 56.5-66 21-109q0-120-74-177.5T651-10q-14 0-38 1t-51.5 2.5-56.5 4T453 3v302zm205-193q31 0 56.5 5t43.5 17.5 27.5 33T795 219q0 32-10 51.5T757 301t-43.5 15-55.5 4q-7 0-17-1l-20-2-18.5-3-12.5-3V118q11-3 29.5-4.5T658 112z" glyph-name="afii10059" horiz-adv-x="962" unicode="Њ"/><glyph d="M353 0H216v578H11v122h546V578H353V401q25 15 68.5 28T525 442q42 0 77-11t60.5-34 39.5-60 14-89V0H579v206q0 60-24 89.5T477 325q-38 0-71-8.5T353 291V0z" glyph-name="afii10060" horiz-adv-x="758" unicode="Ћ"/><glyph d="M233 299h-36V0H60v700h137V390l32 14 193 296h156L374 406l-54-38 56-39L609 0H440zm85 571h159v-30l-160-88H214z" glyph-name="afii10061" horiz-adv-x="620" unicode="Ќ"/><glyph d="m294 391 20-91h6l16 94 105 306h141L396 216q-22-57-42.5-99t-44-69.5-52.5-41T189-7q-33 0-53.5 4.5T91 17l35 111q17-9 31-11t30-2q47 0 66 74L-9 700h161zm-66 483q4-32 23.5-46t50.5-14q67 0 74 59l111-17q-11-63-57.5-92T301 735q-41 0-75 6t-59.5 19.5-42 36.5-20.5 57z" glyph-name="afii10062" horiz-adv-x="568" unicode="Ў"/><glyph d="M60 0v700h137V122h245v578h137V0H379l-15-175h-88L256 0H60z" glyph-name="afii10145" horiz-adv-x="639" unicode="Џ"/><glyph d="M405 155H190L137 0H0l252 705h101L605 0H461zM225 265h150l-52 156-21 110h-5l-21-111z" glyph-name="afii10017" horiz-adv-x="605" unicode="А"/><glyph d="M60 700h431V578H197V432q17 3 41.5 6t48.5 3q56 0 103-11t80.5-36.5 52.5-67T542 225q0-59-19.5-103t-56-73-88-44T263-10q-17 0-42.5 1t-54 3T110-1 60 7v693zm213-597q26 0 48.5 6.5t39.5 20 27 34.5 10 51q0 36-11 58t-30 34.5-43.5 16.5-52.5 4q-14 0-35-2.5t-29-4.5V108q11-3 33.5-4t42.5-1z" glyph-name="afii10018" horiz-adv-x="570" unicode="Б"/><glyph d="M531 537q0-26-6.5-52T503 437.5t-39-38-58-24.5v-6q30-5 57-17t47-33 31.5-51 11.5-71q0-54-23-93.5T468.5 39 381 2 280-10h-43.5l-57 1.5-62 4.5L60 5v690q19 3 43.5 6t52.5 5 57.5 3 58.5 1q49 0 95.5-7.5t83-26.5 58.5-53 22-86zM281 103q25 0 48.5 6t41.5 18.5 29 31.5 11 45q0 33-13 52t-34 29.5-47 13.5-52 3h-73V109q5-2 16-3t23.5-1.5 26-1 23.5-.5zm-45 303q14 0 32.5 1t30.5 3q38 12 65.5 36t27.5 63q0 26-10 43t-26.5 27-37.5 14-44 4q-26 0-48-1t-34-3V406h44z" glyph-name="afii10019" horiz-adv-x="591" unicode="В"/><glyph d="M467 578H197V0H60v700h407V578z" glyph-name="afii10020" horiz-adv-x="458" unicode="Г"/><glyph d="M674-125h-97L562 0H112L97-125H0v247h74q7 11 23 49t32 107.5 27 174T166 700h419V122h89v-247zM448 122v456H293q-6-178-28.5-291.5T219 122h229z" glyph-name="afii10021" horiz-adv-x="691" unicode="Д"/><glyph d="M60 700h415V578H197V415h253V293H197V122h283V0H60v700z" glyph-name="afii10022" horiz-adv-x="522" unicode="Е"/><glyph d="M350 700h130V389l35 14 145 297h154L651 393l-47-34 57-42L845 0H680L519 304h-39V0H350v316l-36-14L153 0H-7l183 307 54 39-52 37L7 700h159l145-299h39v299z" glyph-name="afii10024" horiz-adv-x="839" unicode="Ж"/><glyph d="M120 310v107h46l26.5.5 26.5 2 21 3.5q35 8 60 28.5t25 55.5q0 48-30.5 65.5T214 590q-45 0-84-12t-59-23L36 671q11 6 31.5 13t47 13.5T172 708t63 4q44 0 86-8t75-28 53-53.5 20-85.5-27.5-96-88.5-64v-5q65-13 101.5-56T491 201q0-57-23-97.5T407.5 37 321-1.5 221-14q-66 0-120 11T18 23l35 119q23-11 66-22.5T221 108q22 0 44.5 5.5t40.5 18 29 32.5 11 48q0 47-35 71t-125 26q-12 1-18 1h-48z" glyph-name="afii10025" horiz-adv-x="526" unicode="З"/><glyph d="m468 388 8 91h-5l-47-94L163 0H60v700h137V319l-10-94h6l49 97 261 378h102V0H468v388z" glyph-name="afii10026" horiz-adv-x="666" unicode="И"/><glyph d="m468 388 8 91h-5l-47-94L163 0H60v700h137V319l-10-94h6l49 97 261 378h102V0H468v388zM273 874q4-32 23.5-46t50.5-14q67 0 74 59l111-17q-11-63-57.5-92T346 735q-41 0-75 6t-59.5 19.5-42 36.5-20.5 57z" glyph-name="afii10027" horiz-adv-x="666" unicode="Й"/><glyph d="M233 299h-36V0H60v700h137V390l32 14 193 296h156L374 406l-54-38 56-39L609 0H440z" glyph-name="afii10028" horiz-adv-x="620" unicode="К"/><glyph d="M426 578H277q-4-95-9-173t-13.5-140.5T232 154t-36-83q-14-23-31.5-38T128 9 90.5-3.5 56-7Q33-7 17.5-3.5T-13 7L2 125q6-2 12-3t12-1q16 0 31.5 8T84 156q15 22 26 64.5T129.5 329 143 486.5t7 213.5h413V0H426v578z" glyph-name="afii10029" horiz-adv-x="623" unicode="Л"/><glyph d="m603 363 15 139h-6l-43-112-149-261h-44L219 391l-44 111h-5l20-138V0H60v700h125l187-320 33-80h4l30 82 177 318h124V0H603v363z" glyph-name="afii10030" horiz-adv-x="800" unicode="М"/><glyph d="M453 293H197V0H60v700h137V415h256v285h137V0H453v293z" glyph-name="afii10031" horiz-adv-x="651" unicode="Н"/><glyph d="M38 350q0 175 77 269.5T335 714q75 0 131-26t93-74 55-115 18-149q0-175-77.5-269.5T335-14q-76 0-132 26t-92.5 74T56 201 38 350zm144 0q0-53 9-97.5t27.5-76.5 47.5-50 69-18q73 0 113 57t40 185q0 51-8.5 95T453 522t-47 51.5-71 18.5q-73 0-113-58.5T182 350z" glyph-name="afii10032" horiz-adv-x="670" unicode="О"/><glyph d="M442 578H197V0H60v700h519V0H442v578z" glyph-name="afii10033" horiz-adv-x="639" unicode="П"/><glyph d="M60 693q42 8 92.5 12.5T253 710q52 0 104.5-8.5t94.5-34 68.5-71T547 478q0-66-23-111.5T463 292t-86.5-42T276 237h-16l-23 .5-23.5 1.5-16.5 2V0H60v693zm204-101q-20 0-38-1.5t-29-3.5V360q4-1 12-2t17-1.5 17.5-.5H256q27 0 53.5 5t47.5 18.5 33.5 37.5 12.5 63q0 33-12 54.5T359.5 569 315 587t-51 5z" glyph-name="afii10034" horiz-adv-x="572" unicode="Р"/><glyph d="M534 29Q502 6 452.5-4T351-14q-63 0-119.5 19.5t-99.5 63-68.5 113T38 350q0 103 28.5 172.5t74 112 101.5 61T354 714q60 0 101.5-8t68.5-19l-27-116q-23 11-54.5 16t-76.5 5q-83 0-133.5-59T182 350q0-54 12-98.5t36.5-76 61-49T376 109q45 0 76 9t54 23z" glyph-name="afii10035" horiz-adv-x="559" unicode="С"/><glyph d="M557 578H353V0H216v578H11v122h546V578z" glyph-name="afii10036" horiz-adv-x="568" unicode="Т"/><glyph d="m294 391 20-91h6l16 94 105 306h141L396 216q-22-57-42.5-99t-44-69.5-52.5-41T189-7q-33 0-53.5 4.5T91 17l35 111q17-9 31-11t30-2q47 0 66 74L-9 700h161z" glyph-name="afii10037" horiz-adv-x="568" unicode="У"/><glyph d="M334 76q-19-3-39-4t-43-1q-48 0-89 16.5t-71.5 51-48 87T26 350q0 68 17.5 121.5t50 91T171 620t100 20q13 0 32-1t31-4v85h134v-88q19 5 43.5 6.5T551 640q49 0 90-17.5t71.5-53 47.5-88T776 360q1-71-18-125t-52-90.5-76.5-55T536 71q-16 0-34.5 1.5T468 78v-98H334v96zm185 454q-10-1-27-2t-29-4V184q9-2 21.5-2t23.5-1q28 1 52 11t42 32 28 55 9 80q1 80-31 125t-89 46zM287 182q8 0 24.5.5T339 187v339q-10 2-23 2.5t-24 .5q-55 0-92-42.5T163 351q0-81 34-125t90-44z" glyph-name="afii10038" horiz-adv-x="802" unicode="Ф"/><glyph d="M225 356 30 700h165l108-202 24-71 23 71 113 202h149L410 363 622 0H459L336 216l-27 74-26-74L159 0H10z" glyph-name="afii10039" horiz-adv-x="633" unicode="Х"/><glyph d="M665-125h-97L553 0H60v700h137V122h241v578h137V122h90v-247z" glyph-name="afii10040" horiz-adv-x="682" unicode="Ц"/><glyph d="M183 700V478q0-60 23.5-89.5T284 359q38 0 71.5 8.5T409 393v307h137V0H409v282q-26-15-69.5-27.5T236 242q-42 0-76.5 10.5t-60 34-39.5 60T46 435v265h137z" glyph-name="afii10041" horiz-adv-x="606" unicode="Ч"/><glyph d="M60 0v700h137V122h165v578h137V122h165v578h137V0H60z" glyph-name="afii10042" horiz-adv-x="861" unicode="Ш"/><glyph d="M60 0v700h137V122h165v578h137V122h165v578h137V122h92v-247h-96L782 0H60z" glyph-name="afii10043" horiz-adv-x="911" unicode="Щ"/><glyph d="M155 578H-4v122h296V449q5 1 16.5 2.5t25 2.5 28 2 26.5 1q49 0 94.5-10t81-35.5 56.5-69T641 232q0-120-74-181T353-10q-14 0-38 .5T263.5-7t-56 5T155 7v571zm205-466q28 0 53 5.5t44 19 29.5 35.5 10.5 54q0 34-11.5 55.5t-30 33.5-43.5 16-52 4q-7 0-17-1l-20-2-18.5-2.5L292 327V118q11-3 29.5-4.5T360 112z" glyph-name="afii10044" horiz-adv-x="664" unicode="Ъ"/><glyph d="M600 700h137V0H600v700zm-540 0h137V449q11 2 35 5t47 3q50 0 95.5-10t79.5-35.5 54-69T528 233q0-122-71-182.5T246-10q-14 0-36 .5T162.5-7 110-2 60 7v693zm196-588q57 0 92.5 26.5T384 227q0 33-10 54t-27 33-40 16.5-50 4.5q-14 0-33-2.5t-27-5.5V118q11-3 26.5-4.5T256 112z" glyph-name="afii10045" horiz-adv-x="798" unicode="Ы"/><glyph d="M60 700h137V449q5 1 16.5 2.5t25 2.5 27.5 2 26 1q49 0 95-10t81.5-35.5 56.5-69T546 232q0-120-74.5-181T258-10q-14 0-37.5.5T169-7t-56.5 5T60 7v693zm205-588q28 0 53 5.5t44 19 29.5 35.5 10.5 54q0 34-11.5 55.5t-30 33.5-43.5 16-52 4q-7 0-17-1l-20-2-18.5-2.5L197 327V118q11-3 29.5-4.5T265 112z" glyph-name="afii10046" horiz-adv-x="569" unicode="Ь"/><glyph d="M130 410h269q-3 40-16.5 73.5T346 541t-57 37.5-77 13.5q-54 0-94-11.5T53 555L24 671q35 18 88 30.5T217 714q69 0 127.5-19t101-62.5 66.5-113T536 350q0-104-28-174T433 64 325 4 198-14Q141-14 94.5-4T20 19l36 119q23-11 62-20.5t90-9.5q39 0 72 11t58.5 34.5T380 213t20 87H130v110z" glyph-name="afii10047" horiz-adv-x="574" unicode="Э"/><glyph d="M197 415h93q13 143 84 221t199 78q76 0 130-26t88.5-74 51-115T859 350q0-175-72-269.5T573-14q-66 0-116.5 22T371 70t-55 97-26 126h-93V0H60v700h137V415zm233-65q0-53 7.5-97.5t24-76.5 44-50 67.5-18q73 0 107.5 57T715 350q0 51-6.5 95T686 522t-43.5 51.5T573 592q-72 0-107.5-58.5T430 350z" glyph-name="afii10048" horiz-adv-x="897" unicode="Ю"/><glyph d="M519 0H382v277l-72-19L164 0H5l144 233 60 43q-32 8-60 24.5T100 343t-33 61.5T55 485q0 63 22 106t61 69.5 93 38T348 710q17 0 39-1t45.5-3 46-5 40.5-8V0zM331 588q-27 0-51-5t-42-17-28.5-33-10.5-54q0-31 10-52.5t28-35 42-19.5 52-6h51v217q-11 2-22.5 3.5T331 588z" glyph-name="afii10049" horiz-adv-x="580" unicode="Я"/><glyph d="M54 471q40 18 95 28.5T264 510q52 0 87-12.5t55.5-35.5 29-55 8.5-72q0-44-3-88.5t-3.5-87.5 2.5-83.5T455-1H349l-21 69h-5q-20-31-55.5-53.5T176-8q-35 0-63 10.5t-48 30-31 46T23 138q0 46 20.5 77.5t59 51 92 27T314 298q7 56-8 80.5T239 403q-39 0-82.5-8T85 374zM219 99q39 0 62 17.5t34 37.5v65q-31 3-59.5 1t-50.5-9-35-20-13-33q0-28 16.5-43.5T219 99z" glyph-name="afii10065" horiz-adv-x="496" unicode="а"/><glyph d="M142 406q29 44 68.5 63.5T306 489q91 0 144.5-55.5T504 261q0-135-61-205T271-14Q155-14 94 63T33 303q0 86 10 147t28.5 103 44 67 57 39.5T240 680t76 10q52 5 89 12.5t55 24.5l5-116q-20-17-57-23.5T308 576q-38-2-67-9t-50-25-33.5-50.5T139 406h3zm25-162q0-64 25-106t77-42q54 0 77.5 38T370 244q0 65-22 100t-73 35q-55 0-81.5-36T167 244z" glyph-name="afii10066" horiz-adv-x="537" unicode="б"/><glyph d="M57 499q35 3 84.5 6t106.5 3q110 0 156.5-31.5T451 382q0-35-20-68t-63-48v-4q54-12 78-42.5t24-78.5q0-75-57.5-112T228-8q-42 0-89 2.5T57 1v498zm127-399q14-2 26-3t30-1q54 0 77 15t23 46q0 26-19.5 42.5T251 216h-67V100zm69 196q32 0 52.5 15.5T326 351q0 26-17.5 39.5T245 404q-23 0-36.5-1t-24.5-2V296h69z" glyph-name="afii10067" horiz-adv-x="505" unicode="в"/><glyph d="M380 385H191V0H57v500h323V385z" glyph-name="afii10068" horiz-adv-x="376" unicode="г"/><glyph d="M554-114h-95L444 0H108L93-114H-2v229h59q8 11 20.5 37.5t25 72.5T124 339t9 161h348V115h73v-229zM351 109v281H246q-2-36-7-76.5T226.5 235 209 164t-22-55h164z" glyph-name="afii10069" horiz-adv-x="568" unicode="д"/><glyph d="M457 43q-30-24-81.5-40.5T266-14Q145-14 89 56.5T33 250q0 132 63 198t177 66q38 0 74-10t64-33 45-62 17-97q0-21-2.5-45t-7.5-50H163q3-63 32.5-95T291 90q41 0 73.5 12.5T414 128zM271 410q-51 0-75.5-30.5T166 298h186q4 54-16.5 83T271 410z" glyph-name="afii10070" horiz-adv-x="508" unicode="е"/><glyph d="M242 203 140 0H-6l131 229 34 30-51 38L5 500h139l93-203h43v203h124V287l38 14 94 199h138L565 297l-39-32 51-40L698 0H549L447 207h-43V0H280v217z" glyph-name="afii10072" horiz-adv-x="693" unicode="ж"/><glyph d="M109 207v91h61q35 0 57.5 14t22.5 37q0 27-20 38.5T169 399q-39 0-69-10t-48-21l-28 99q30 17 79.5 29.5T209 509q86 0 128.5-32t42.5-93q0-17-4.5-34.5T361 316t-24.5-28.5T302 268v-4q53-12 75-42.5t22-81.5q0-32-13-59.5T346.5 33 280 1t-95-12T89.5.5 22 27l28 101q23-13 55.5-21t72.5-8q91 0 91 58 0 26-23.5 38T158 207h-49z" glyph-name="afii10073" horiz-adv-x="432" unicode="з"/><glyph d="m358 228 5 71h-3l-43-73L139 0H57v500h130V262l-6-68h4l41 71 180 235h82V0H358v228z" glyph-name="afii10074" horiz-adv-x="545" unicode="и"/><glyph d="m358 228 5 71h-3l-43-73L139 0H57v500h130V262l-6-68h4l41 71 180 235h82V0H358v228zM219 704q7-39 23.5-55t42.5-16q28 0 44.5 16t22.5 54l99-25q-12-65-59-96.5T282 550q-31 0-60 7t-52 22.5-39 39.5-22 59z" glyph-name="afii10075" horiz-adv-x="545" unicode="й"/><glyph d="M222 207h-35V0H57v500h130V287l31 14 117 199h139L353 310l-51-38 56-39L493 0H344z" glyph-name="afii10076" horiz-adv-x="489" unicode="к"/><glyph d="M329 385h-99q-6-71-14-141t-25.5-125.5-47.5-90T65-6Q7-6-17 9l16 108q16-6 30-6 20 0 35 17t25.5 61 17 119.5T116 500h343V0H329v385z" glyph-name="afii10077" horiz-adv-x="515" unicode="л"/><glyph d="m485 229 8 104h-5l-40-86-94-155h-47L204 247l-38 86h-6l13-103V0H57v500h135l115-188 28-63h4l29 65 106 186h136V0H485v229z" glyph-name="afii10078" horiz-adv-x="666" unicode="м"/><glyph d="M350 197H187V0H57v500h130V312h163v188h130V0H350v197z" glyph-name="afii10079" horiz-adv-x="537" unicode="н"/><glyph d="M33 250q0 127 62 195.5T269 514q60 0 104-19t73-53.5 43.5-83.5T504 250q0-127-61.5-195.5T269-14q-60 0-104 19T91.5 58.5t-44 83.5T33 250zm134 0q0-33 6-61t18-49 31.5-32.5T269 96q51 0 76 37t25 117q0 69-23 111.5T269 404q-48 0-75-36t-27-118z" glyph-name="afii10080" horiz-adv-x="537" unicode="о"/><glyph d="M345 385H187V0H57v500h418V0H345v385z" glyph-name="afii10081" horiz-adv-x="532" unicode="п"/><glyph d="M57 500h95l15-60h4q26 38 61.5 56t86.5 18q94 0 141-59.5T507 263q0-64-15-115.5T447.5 60t-72-55T278-14q-31 0-51 4.5T187 5v-205H57v700zm223-96q-38 0-59.5-19T187 328V120q14-11 30.5-17.5T261 96q56 0 84 39.5T373 266q0 66-22 102t-71 36z" glyph-name="afii10082" horiz-adv-x="540" unicode="р"/><glyph d="M411 31Q381 9 338.5-2.5T251-14q-60 0-101.5 19T82 58.5 44.5 142 33 250q0 127 57 195.5T256 514q55 0 88.5-9t60.5-23l-31-106q-23 11-45.5 17t-51.5 6q-54 0-82-35.5T167 250q0-32 7-59t21-47 36.5-31.5T284 101q33 0 56 8.5t41 20.5z" glyph-name="afii10083" horiz-adv-x="433" unicode="с"/><glyph d="M417 385H276V0H142v385H1v115h416V385z" glyph-name="afii10084" horiz-adv-x="418" unicode="т"/><glyph d="m239 219 18-78h6l13 79 76 280h134L334 49Q315-7 297.5-53.5T259-134t-46.5-52.5T152-205q-52 0-83 17L93-84q15-6 30-6 23 0 44.5 19.5T200 0L-9 500h156z" glyph-name="afii10085" horiz-adv-x="478" unicode="у"/><glyph d="M286-6q-17-6-35.5-7T217-14q-91 0-140 65T28 250q0 128 54 194t156 66q28 0 48-4v194h128V505q18 3 32 4t27 1q99 0 149-58.5T672 260q0-63-13.5-113.5T619 60 555.5 5 469-14q-9 0-26.5 1.5T414-7v-193H286V-6zm158 413q-10 0-17.5-1.5T408 402V92q8-2 18.5-2.5T449 89q48 0 70.5 39.5T542 260q0 78-22 112.5T444 407zM251 89q11 0 20.5 1.5T292 94v309q-19 4-39 4-46 0-70.5-35.5T158 250q0-78 22.5-119.5T251 89z" glyph-name="afii10086" horiz-adv-x="700" unicode="ф"/><glyph d="M170 256 20 500h155l65-107 28-70 30 70 68 107h141L356 260 517 0H366l-77 120-30 74-32-74L150 0H8z" glyph-name="afii10087" horiz-adv-x="525" unicode="х"/><glyph d="M545-114h-95L435 0H57v500h130V115h155v385h130V115h73v-229z" glyph-name="afii10088" horiz-adv-x="559" unicode="ц"/><glyph d="M163 500V386q0-31 2.5-53.5t10-37 21-21.5 35.5-7q29 0 50.5 7t35.5 17v209h130V0H318v196q-15-11-46-24.5T189 158q-37 0-66 8t-49 28-30.5 53T33 330v170h130z" glyph-name="afii10089" horiz-adv-x="505" unicode="ч"/><glyph d="M57 0v500h130V115h125v385h130V115h125v385h130V0H57z" glyph-name="afii10090" horiz-adv-x="754" unicode="ш"/><glyph d="M769-114h-94L660 0H57v500h130V115h125v385h130V115h125v385h130V115h72v-229z" glyph-name="afii10091" horiz-adv-x="783" unicode="щ"/><glyph d="M235 109q28-6 57-6 48 0 70 16.5t22 51.5q0 65-89 65-35 0-60-7V109zm0 213q24 4 49 5.5t45 1.5q52 0 88-11.5t58.5-32.5 32.5-49.5 10-61.5q0-91-54.5-136T281-7q-57 0-99 2t-77 5v385H-5v115h240V322z" glyph-name="afii10092" horiz-adv-x="539" unicode="ъ"/><glyph d="M187 109q30-6 57-6 45 0 63 16.5t18 51.5q0 32-18 48.5T247 236q-33 0-60-7V109zm0 213q24 4 48.5 5.5T280 329q51 0 85-11.5t55-32.5 30-49.5 9-61.5q0-45-12-79t-39-56.5-70-34T232-7q-57 0-98.5 2T57 0v500h130V322zm329 178h130V0H516v500z" glyph-name="afii10093" horiz-adv-x="703" unicode="ы"/><glyph d="M187 109q30-6 57-6 48 0 69.5 16.5T335 171q0 65-88 65-33 0-60-7V109zm0 213q24 4 48.5 5.5T280 329q52 0 88-11.5t58.5-32.5 32.5-49.5 10-61.5q0-91-54-136T232-7q-57 0-98.5 2T57 0v500h130V322z" glyph-name="afii10094" horiz-adv-x="490" unicode="ь"/><glyph d="M109 300h186q-5 50-33 77t-83 27q-38 0-67-9t-51-21l-35 94q66 46 178 46t167-66.5T426 250q0-132-62-198T194-14q-47 0-95 9.5T23 22l32 102q23-13 54.5-20.5T173 96q64 0 91 27t32 84H109v93z" glyph-name="afii10095" horiz-adv-x="459" unicode="э"/><glyph d="M480-14q-56 0-95.5 15t-65 43-39 68-17.5 90h-76V0H57v500h130V312h77q10 97 61.5 149.5T482 514q57 0 98-19t68-53.5 39.5-83.5T700 250q0-127-54-195.5T480-14zm-93 264q0-73 20.5-113.5T480 96q46 0 66 34t20 120q0 77-19 115.5T477 404q-46 0-68-35t-22-119z" glyph-name="afii10096" horiz-adv-x="734" unicode="ю"/><glyph d="m321 189-60-12L165 0H10l97 157 49 37q-49 8-81 46.5T43 337q0 91 60.5 134T289 514q48 0 89.5-5t72.5-11V0H321v189zm0 68v138q-11 5-24 7t-25 2q-45 0-70-19t-25-57 27.5-56 80.5-17z" glyph-name="afii10097" horiz-adv-x="503" unicode="я"/><glyph d="M457 43q-30-24-81.5-40.5T266-14Q145-14 89 56.5T33 250q0 132 63 198t177 66q38 0 74-10t64-33 45-62 17-97q0-21-2.5-45t-7.5-50H163q3-63 32.5-95T291 90q41 0 73.5 12.5T414 128zM271 410q-51 0-75.5-30.5T166 298h186q4 54-16.5 83T271 410zM85 632q0 32 19.5 51t51.5 19 50.5-19 18.5-51q0-30-18.5-49T156 564t-51.5 19T85 632zm219 0q0 32 18.5 51t50.5 19 51.5-19 19.5-51q0-30-19.5-49T373 564t-50.5 19-18.5 49z" glyph-name="afii10071" horiz-adv-x="508" unicode="ё"/><glyph d="M-12 600h74v100h130V600h161v-80H192V390h4q23 32 59 51t90 19q38 0 67-10t48-33 28.5-62.5T498 257V-21q0-91-36-139t-115-48q-30 0-64 7v109q4 0 7.5-.5t7.5-.5q43 0 56.5 24.5T368 0v230q0 61-16.5 88T290 345q-33 0-61.5-22T192 266V0H62v520h-74v80z" glyph-name="afii10099" horiz-adv-x="550" unicode="ђ"/><glyph d="M380 385H191V0H57v500h323V385zM217 720h132v-30L238 566h-74z" glyph-name="afii10100" horiz-adv-x="376" unicode="ѓ"/><glyph d="M435 31Q405 9 360-2.5T270-14q-60 0-104 19T93.5 58.5 51 142 37 250q0 63 17 112t48 83 75 51.5 98 17.5 90-9 63-23l-30-106q-23 11-48.5 17t-54.5 6q-47 0-80.5-24T171 297h196v-88H170q9-48 41.5-78t90.5-30q34 0 59 8.5t44 20.5z" glyph-name="afii10101" horiz-adv-x="457" unicode="є"/><glyph d="M264 138q0 20-17 32t-42 22-55 20.5-55 29-42 47T36 362q0 74 44 113t127 39q57 0 103-12t72-27l-29-94q-23 9-58 19t-71 10q-58 0-58-45 0-18 17-29t42-20.5 55-20.5 55-28.5 42-45.5 17-72q0-76-48.5-119.5T200-14q-53 0-99.5 13.5T25 31l36 97q23-13 61-25.5T200 90q29 0 46.5 11t17.5 37z" glyph-name="afii10102" horiz-adv-x="422" unicode="ѕ"/><glyph d="M68 500h130V0H68v500zM52 641q0 29 21.5 49.5T133 711t61.5-20.5T218 641t-23.5-48.5T133 573t-59.5 19.5T52 641z" glyph-name="afii10103" horiz-adv-x="269" unicode="і"/><glyph d="M21 642q0 31 15.5 50.5T84 712t47.5-19.5T147 642q0-30-15.5-49.5T84 573t-47.5 19.5T21 642zm151 0q0 31 15.5 50.5T235 712t47.5-19.5T298 642q0-30-15.5-49.5T235 573t-47.5 19.5T172 642zM93 500h130V0H93v500z" glyph-name="afii10104" horiz-adv-x="318" unicode="ї"/><glyph d="M69 500h130V-21q0-91-36-139T48-208q-30 0-64 7v109q4 0 7-.5t6-.5q45 0 58.5 29T69 16v484zM51 641q0 29 21.5 49.5T132 711t61.5-20.5T217 641t-23.5-48.5T132 573t-59.5 19.5T51 641z" glyph-name="afii10105" horiz-adv-x="268" unicode="ј"/><glyph d="M459 322q24 4 48.5 5.5T552 329q52 0 88-11.5t58.5-32.5 32.5-49.5 10-61.5q0-91-54-136T504-7q-57 0-98.5 2T329 0v385h-99q-6-71-14-141t-25.5-125.5-47.5-90T65-6Q7-6-17 9l16 108q16-6 30-6 20 0 35 17t25.5 61 17 119.5T116 500h343V322zm60-86q-35 0-60-7V108q14-3 28.5-4t28.5-1q48 0 69.5 16.5T607 171q0 65-88 65z" glyph-name="afii10106" horiz-adv-x="762" unicode="љ"/><glyph d="M480 321q24 4 49 5.5t45 1.5q52 0 88-11.5t58.5-32.5 32.5-49 10-61q0-91-54.5-136T526-7q-57 0-99 2t-77 5v199H187V0H57v500h130V314h163v186h130V321zm0-212q28-6 57-6 48 0 70 16.5t22 51.5q0 64-89 64-35 0-60-7V109z" glyph-name="afii10107" horiz-adv-x="784" unicode="њ"/><glyph d="M-12 600h74v100h130V600h161v-80H192V390h4q23 32 59 51t90 19q38 0 67-10t48-33 28.5-62.5T498 257V0H368v230q0 61-16.5 88T290 345q-33 0-61.5-22T192 266V0H62v520h-74v80z" glyph-name="afii10108" horiz-adv-x="550" unicode="ћ"/><glyph d="M222 207h-35V0H57v500h130V287l31 14 117 199h139L353 310l-51-38 56-39L493 0H344zm22 513h132v-30L265 566h-74z" glyph-name="afii10109" horiz-adv-x="489" unicode="ќ"/><glyph d="m239 219 18-78h6l13 79 76 280h134L334 49Q315-7 297.5-53.5T259-134t-46.5-52.5T152-205q-52 0-83 17L93-84q15-6 30-6 23 0 44.5 19.5T200 0L-9 500h156zm-54 485q7-39 23.5-55t42.5-16q28 0 44.5 16t22.5 54l99-25q-12-65-59-96.5T248 550q-31 0-60 7t-52 22.5T97 619t-22 59z" glyph-name="afii10110" horiz-adv-x="478" unicode="ў"/><glyph d="M57 0v500h130V115h158v385h130V0H327l-15-175h-88L204 0H57z" glyph-name="afii10193" horiz-adv-x="532" unicode="џ"/><glyph d="M0 648h142v77h137v-77h200V533H279v-90q5 1 16.5 2.5t25 2.5 27.5 2 26 1q49 0 95-9.5t81.5-34.5 56.5-67 21-108q0-120-74.5-181T340-10q-14 0-37.5.5T251-7t-56.5 5T142 7v526H0v115zm347-536q28 0 53 5.5t44 19 29.5 35.5 10.5 54q0 34-11.5 55.5t-30 33.5-43.5 16-52 4q-7 0-17-1l-20-2-18.5-2.5L279 327V118q11-3 29.5-4.5T347 112z" glyph-name="afii10146" horiz-adv-x="651" unicode="Ѣ"/><glyph d="M-5 500h110v200h130V500h160v-93H235v-85q24 4 49 5.5t45 1.5q52 0 88-11.5t58.5-32.5 32.5-49.5 10-61.5q0-91-54.5-136T281-7q-57 0-99 2t-77 5v407H-5v93zm240-391q28-6 57-6 48 0 70 16.5t22 51.5q0 65-89 65-35 0-60-7V109z" glyph-name="afii10194" horiz-adv-x="539" unicode="ѣ"/><glyph d="M38 350q0 175 77 269.5T335 714q75 0 131-26t93-74 55-115 18-149q0-175-77.5-269.5T335-14q-76 0-132 26t-92.5 74T56 201 38 350zm450 57q-8 89-48 137t-105 48q-29 0-55-10t-46.5-32-34-57.5T182 407h306zM182 297q8-95 49-142t104-47q29 0 55.5 9.5t47 31 34 57.5 16.5 91H182z" glyph-name="afii10147" horiz-adv-x="670" unicode="Ѳ"/><glyph d="M33 250q0 127 62 195.5T269 514q60 0 104-19t73-53.5 43.5-83.5T504 250q0-127-61.5-195.5T269-14q-60 0-104 19T91.5 58.5t-44 83.5T33 250zm337 39q-8 60-33.5 87.5T269 404q-19 0-36-6t-30.5-19.5-23-35.5-12.5-54h203zm-203-82q6-54 34-82.5T269 96q38 0 66.5 24.5T370 207H167z" glyph-name="afii10195" horiz-adv-x="537" unicode="ѳ"/><glyph d="M347-5h-98L-13 700h159l140-411 18-119h4l16 120 69 229q16 54 33 90.5t38.5 58.5 48.5 31.5 63 9.5q38 0 62-6t45-17l-30-116q-17 9-31.5 12t-30.5 3q-23 0-38-17.5T525 510z" glyph-name="afii10148" horiz-adv-x="629" unicode="Ѵ"/><glyph d="M289-5h-79L-7 500h151l93-262 17-77h4l15 79 23 71q17 54 32.5 92t34 61.5 42 34T461 509q24 0 46-4.5t36-12.5l-18-106q-18 9-34 9-17 0-32.5-14T427 329z" glyph-name="afii10196" horiz-adv-x="527" unicode="ѵ"/><glyph d="m468 388 8 91h-5l-47-94L163 0H60v700h137V319l-10-94h6l49 97 261 378h102V115h117V84l-96-214h-94L577 0H468v388zM260 874q4-32 23.5-46t50.5-14q67 0 74 59l111-17q-11-63-57.5-92T333 735q-41 0-75 6t-59.5 19.5-42 36.5-20.5 57z" glyph-name="uni048A" horiz-adv-x="712" unicode="Ҋ"/><glyph d="m358 228 5 71h-3l-43-73L139 0H57v500h130V262l-6-68h4l41 71 180 235h82V115h107V84l-96-198h-94L450 0h-92v228zM219 704q7-39 23.5-55t42.5-16q28 0 44.5 16t22.5 54l99-25q-12-65-59-96.5T282 550q-31 0-60 7t-52 22.5-39 39.5-22 59z" glyph-name="uni048B" horiz-adv-x="590" unicode="ҋ"/><glyph d="M0 648h142v77h137v-77h200V533H279v-90q5 1 16.5 2.5t25 2.5 27.5 2 26 1q49 0 95-9.5t81.5-34.5 56.5-67 21-108q0-120-74.5-181T340-10q-14 0-37.5.5T251-7t-56.5 5T142 7v526H0v115zm347-536q28 0 53 5.5t44 19 29.5 35.5 10.5 54q0 34-11.5 55.5t-30 33.5-43.5 16-52 4q-7 0-17-1l-20-2-18.5-2.5L279 327V118q11-3 29.5-4.5T347 112z" glyph-name="uni048C" horiz-adv-x="651" unicode="Ҍ"/><glyph d="M-5 500h110v200h130V500h160v-93H235v-85q24 4 49 5.5t45 1.5q52 0 88-11.5t58.5-32.5 32.5-49.5 10-61.5q0-91-54.5-136T281-7q-57 0-99 2t-77 5v407H-5v93zm240-391q28-6 57-6 48 0 70 16.5t22 51.5q0 65-89 65-35 0-60-7V109z" glyph-name="uni048D" horiz-adv-x="539" unicode="ҍ"/><glyph d="M60 693q42 8 92.5 12.5T253 710q52 0 104.5-8.5t94.5-34 68.5-71T547 478q0-69-25-116t-67-76l64-91-79-58-77 109q-42-9-87-9h-16l-23 .5-23.5 1.5-16.5 2V0H60v693zm243-215 63-92q17 14 27 36.5t10 57.5q0 33-12 54.5T359.5 569 315 587t-51 5q-20 0-38-1.5t-29-3.5V360q4-1 12-2t17-1.5 17.5-.5H256q14 0 27 1t26 4l-58 83z" glyph-name="uni048E" horiz-adv-x="572" unicode="Ҏ"/><glyph d="M57 500h95l15-60h4q26 38 61.5 56t86.5 18q94 0 141-59.5T507 263q0-142-70-215l47-56-73-61-55 67q-18-5-37.5-8.5T278-14q-31 0-51 4.5T187 5v-205H57v700zm237-307 48-60q15 21 23 53.5t8 79.5q0 66-22 102t-71 36q-38 0-59.5-19T187 328V120q14-11 30.5-17.5T261 96q10 0 19.5 1t17.5 4l-47 57z" glyph-name="uni048F" horiz-adv-x="540" unicode="ҏ"/><glyph d="m468 700-1-122H197V0H60v700h298l21 152h88V700h1z" glyph-name="afii10050" horiz-adv-x="458" unicode="Ґ"/><glyph d="M191 385V0H57v500h215l21 152h87V385H191z" glyph-name="afii10098" horiz-adv-x="376" unicode="ґ"/><glyph d="M503 578H233V387h224v-93H233V0H96v294H0v93h96v313h407V578z" glyph-name="uni0492" horiz-adv-x="508" unicode="Ғ"/><glyph d="M406 385H217V274h162v-80H217V0H83v194H0v80h83v226h323V385z" glyph-name="uni0493" horiz-adv-x="414" unicode="ғ"/><glyph d="M197 0H60v700h407V578H197V375q16 6 49.5 14t81.5 8q42 0 81-11.5t69.5-40 49-78T546 142q0-129-57-199t-184-70q-27 0-40.5 1t-21.5 3V-5q7-2 23.5-2.5T299-8q51 0 77 35t26 109q0 41-9 68t-25 42.5-38 22-47 6.5q-24 0-49-6t-37-12V0z" glyph-name="uni0494" horiz-adv-x="582" unicode="Ҕ"/><glyph d="M187 0H57v500h318V385H187V259q16 6 46 13.5t78 7.5q38 0 72.5-11t60.5-38 41-73 15-116q0-63-11.5-111T450-149t-70.5-48T273-213q-28 0-41.5 1.5T210-208v112q8-1 24.5-1.5T267-98q98 0 98 132 0 71-26.5 101T267 165q-23 0-45.5-6T187 147V0z" glyph-name="uni0495" horiz-adv-x="534" unicode="ҕ"/><glyph d="M350 700h130V389l35 14 145 297h154L651 393l-47-34 57-42 113-195h78v-247h-96L741 0h-61L519 304h-39V0H350v316l-36-14L153 0H-7l183 307 54 39-52 37L7 700h159l145-299h39v299z" glyph-name="uni0496" horiz-adv-x="857" unicode="Җ"/><glyph d="M242 203 140 0H-6l131 229 34 30-51 38L5 500h139l93-203h43v203h124V287l38 14 94 199h138L565 297l-39-32 51-40 59-110h84v-229h-95L610 0h-61L447 207h-43V0H280v217z" glyph-name="uni0497" horiz-adv-x="727" unicode="җ"/><glyph d="M120 310v107h46l26.5.5 26.5 2 21 3.5q35 8 60 28.5t25 55.5q0 48-30.5 65.5T214 590q-45 0-84-12t-59-23L36 671q11 6 31.5 13t47 13.5T172 708t63 4q44 0 86-8t75-28 53-53.5 20-85.5-27.5-96-88.5-64v-5q65-13 101.5-56T491 201q0-49-17.5-85.5T427 53t-67.5-41.5T278-10l-14-165h-88L157-11Q112-6 76 3T18 23l35 119q23-11 66-22.5T221 108q22 0 44.5 5.5t40.5 18 29 32.5 11 48q0 47-35 71t-125 26q-12 1-18 1h-48z" glyph-name="uni0498" horiz-adv-x="526" unicode="Ҙ"/><glyph d="M109 207v91h61q35 0 57.5 14.5T250 350q0 27-19.5 38T170 399q-39 0-69.5-10.5T52 367L24 467q30 17 79.5 29.5T209 509q86 0 128.5-32t42.5-93q0-17-4.5-34.5T361 316t-24.5-28.5T302 268v-4q53-12 75-42.5t22-81.5-34-90.5T259-4l-14-171h-88L138-8Q100-4 71.5 5.5T22 27l28 101q23-13 56-21.5t73-8.5q90 0 90 58 0 26-23.5 38.5T158 207h-49z" glyph-name="uni0499" horiz-adv-x="432" unicode="ҙ"/><glyph d="M233 299h-36V0H60v700h137V390l32 14 193 296h156L374 406l-54-38 56-39 146-207h106v-247h-96L517 0h-77z" glyph-name="uni049A" horiz-adv-x="635" unicode="Қ"/><glyph d="M222 207h-35V0H57v500h130V287l31 14 117 199h139L353 310l-51-38 56-39 68-118h93v-229h-95L409 0h-65z" glyph-name="uni049B" horiz-adv-x="527" unicode="қ"/><glyph d="M251 299h-54V0H60v700h137V390l54 4v133h93V402l22 2 162 296h148L505 406l-54-38 56-39L705 0H546L370 299h-26V172h-93v127z" glyph-name="uni049C" horiz-adv-x="716" unicode="Ҝ"/><glyph d="M229 207h-42V0H57v500h130V287l42 4v120h76V299l22 2 92 199h136l-96-190-53-38 56-39L572 0H428l-97 207h-26V89h-76v118z" glyph-name="uni049D" horiz-adv-x="587" unicode="ҝ"/><glyph d="M0 643h132v57h137v-57h93v-93h-93V390l54 14 177 296h150L462 406l-64-38 61-39L681 0H512L316 299h-47V0H132v539H0v104z" glyph-name="uni049E" horiz-adv-x="692" unicode="Ҟ"/><glyph d="M-14 626h82v74h130v-74h153v-80H198V287l30 14 114 199h143L365 310l-51-38 55-39L504 0H355L233 207h-35V0H68v546h-82v80z" glyph-name="uni049F" horiz-adv-x="502" unicode="ҟ"/><glyph d="M159 578H0v122h296V390l32 14 193 296h156L473 406l-54-38 56-39L708 0H539L332 299h-36V0H159v578z" glyph-name="uni04A0" horiz-adv-x="719" unicode="Ҡ"/><glyph d="m235 287 32 14 116 199h140L402 310l-52-38 57-39L541 0H392L271 207h-36V0H105v385H-5v115h240V287z" glyph-name="uni04A1" horiz-adv-x="540" unicode="ҡ"/><glyph d="M453 293H197V0H60v700h137V415h256v285h137V122h88v-247h-96L567 0H453v293z" glyph-name="uni04A2" horiz-adv-x="696" unicode="Ң"/><glyph d="M350 197H187V0H57v500h130V312h163v188h130V115h78v-229h-95L448 0h-98v197z" glyph-name="uni04A3" unicode="ң"/><glyph d="M860 578H590V0H453v293H197V0H60v700h137V415h256v285h407V578z" glyph-name="uni04A4" horiz-adv-x="851" unicode="Ҥ"/><glyph d="M668 385H480V0H350v197H187V0H57v500h130V312h163v188h318V385z" glyph-name="uni04A5" horiz-adv-x="664" unicode="ҥ"/><glyph d="M579 228V0H442v578H197V0H60v700h519V375q16 6 49.5 14t81.5 8q42 0 81-11.5t69.5-40 49-78T928 142q0-129-57-199t-184-70q-27 0-40.5 1t-21.5 3V-5q7-2 23.5-2.5T681-8q51 0 77 35t26 109q0 41-9 68t-25 42.5-38 22-48 6.5q-23 0-48-6t-37-12v-29z" glyph-name="uni04A6" horiz-adv-x="962" unicode="Ҧ"/><glyph d="M475 0H345v385H187V0H57v500h418V259q16 6 46 13.5t78 7.5q36 0 70-11t60.5-38 42.5-73 16-116q0-63-12-111t-38.5-80-70-48T561-213q-28 0-41.5 1.5T498-208v112q8-1 24.5-1.5T555-98q98 0 98 132 0 71-26.5 101T555 165q-23 0-46-6t-35-12z" glyph-name="uni04A7" horiz-adv-x="822" unicode="ҧ"/><glyph d="M355 592q-80 0-126.5-58T182 358q0-58 17.5-104.5T245 175t63.5-49.5T380 108q11 0 23.5 1t20.5 5q-23 15-43.5 39.5T345 211t-23.5 72.5T313 367q0 76 18.5 134t52 98 80.5 60.5T569 680q63 0 109.5-21.5T755 599t44.5-89.5T814 398q0-56-13-103.5T767.5 210 722 147.5 674 110q5-1 11.5-1.5t12.5-.5q30 0 57 8.5t46 21.5l42-107Q821 9 786.5-2.5T698-14q-20 0-41 3t-41.5 9-38 15T547 34q-33-23-73.5-35.5T379-14q-81 0-144 25T128 83 61 197.5 38 350q0 175 80.5 269.5T355 714V592zm102-221q0-30 6.5-61.5t20-60.5 32.5-53.5 45-42.5q23 16 43 40.5t34.5 55 23 67T670 392q0 34-5 64.5t-17 53-31.5 35.5-48.5 13q-51 0-81-46t-30-141z" glyph-name="uni04A8" horiz-adv-x="876" unicode="Ҩ"/><glyph d="M272 404q-56-4-81-39.5T166 254q0-36 10-65t27-50 41-32 52-11q8 0 20 2t19 7q-27 20-47 63t-20 100q0 39 10 80t33.5 74.5T374 478t96 22q55 0 92.5-17t60-45.5 32.5-66 10-79.5q0-34-9-65t-23-57-32-45.5T565 94q22-9 50-3.5t47 23.5l30-89Q672 7 643.5-3.5T571-14q-41 0-72 11.5T447 28Q415 5 374.5-4.5T290-14q-62 0-110 19T99 58.5 49 142 32 250q0 58 13 105t42 81.5 74.5 54.5T272 514V404zm122-136q0-45 17.5-81t47.5-60q32 21 52 62.5t20 95.5q0 45-16.5 75T466 390q-22 0-36-10t-22-26.5-11-38.5-3-47z" glyph-name="uni04A9" horiz-adv-x="709" unicode="ҩ"/><glyph d="M534 29q-24-17-58.5-26.5T403-11l-14-164h-88L282-7q-51 9-95.5 34T109 95.5 57 202 38 350q0 103 28.5 172.5t74 112 101.5 61T354 714q60 0 101.5-8t68.5-19l-27-116q-23 11-54.5 16t-76.5 5q-83 0-133.5-59T182 350q0-54 12-98.5t36.5-76 61-49T376 109q45 0 76 9t54 23z" glyph-name="uni04AA" horiz-adv-x="559" unicode="Ҫ"/><glyph d="M411 31Q373 4 317-7l-14-168h-88L196-9q-45 8-76 30T69.5 76.5t-28 77.5-8.5 96q0 127 57 195.5T256 514q55 0 88.5-9t60.5-23l-31-106q-23 11-45.5 17t-51.5 6q-54 0-82-35.5T167 250q0-32 7-59t21-47 36.5-31.5T284 101q33 0 56 8.5t41 20.5z" glyph-name="uni04AB" horiz-adv-x="433" unicode="ҫ"/><glyph d="M216 578H11v122h546V578H353V122h87v-247h-96L329 0H216v578z" glyph-name="uni04AC" horiz-adv-x="568" unicode="Ҭ"/><glyph d="M142 385H1v115h416V385H276V115h84v-229h-95L250 0H142v385z" glyph-name="uni04AD" horiz-adv-x="418" unicode="ҭ"/><glyph d="M228 260-2 700h163l128-263 14-74h5l15 76 124 261h147L365 261V0H228v260z" glyph-name="uni04AE" horiz-adv-x="592" unicode="Ү"/><glyph d="M-7 500h151l93-297 18-93h4l14 95 85 295h140L317-1v-199H187V-1z" glyph-name="uni04AF" horiz-adv-x="491" unicode="ү"/><glyph d="M73 294h137L-2 700h163l128-263 14-74h5l15 76 124 261h147L382 294h138v-91H365V0H228v203H73v91z" glyph-name="uni04B0" horiz-adv-x="592" unicode="Ұ"/><glyph d="M67 0h119L-7 500h151l93-297 18-93h4l14 95 85 295h140L317 0h120v-80H317v-120H187v120H67V0z" glyph-name="uni04B1" horiz-adv-x="491" unicode="ұ"/><glyph d="M225 356 30 700h165l108-202 24-71 23 71 113 202h149L410 363l140-241h110v-247h-96L549 0h-90L336 216l-27 74-26-74L159 0H10z" glyph-name="uni04B2" horiz-adv-x="667" unicode="Ҳ"/><glyph d="M170 256 20 500h155l65-107 28-70 30 70 68 107h141L356 260l90-145h89v-229h-95L425 0h-59l-77 120-30 74-32-74L150 0H8z" glyph-name="uni04B3" horiz-adv-x="542" unicode="ҳ"/><glyph d="M820-125h-97L708 0H215v578H11v122h483V578H352V122h241v578h137V122h90v-247z" glyph-name="uni04B4" horiz-adv-x="838" unicode="Ҵ"/><glyph d="M631-114h-95L521 0H142v385H1v115h376V385H272V115h156v385h130V115h73v-229z" glyph-name="uni04B5" horiz-adv-x="647" unicode="ҵ"/><glyph d="M409 282q-26-15-69.5-27.5T236 242q-42 0-76.5 10.5t-60 34-39.5 60T46 435v265h137V478q0-60 23.5-89.5T284 359q38 0 71.5 8.5T409 393v307h137V122h87v-247h-96L522 0H409v282z" glyph-name="uni04B6" horiz-adv-x="651" unicode="Ҷ"/><glyph d="M163 500V386q0-31 2.5-53.5t10-37 21-21.5 35.5-7q29 0 50.5 7t35.5 17v209h130V115h84v-229h-95L422 0H318v196q-15-11-46-24.5T189 158q-37 0-66 8t-49 28-30.5 53T33 330v170h130z" glyph-name="uni04B7" horiz-adv-x="546" unicode="ҷ"/><glyph d="M272 243q-8-1-15-1h-15q-44 0-80 10.5t-62 34-40 60T46 435v265h137V478q0-57 20.5-86t68.5-33v118h93V365q25 5 46.5 11.5T447 393v307h137V0H447v282q-27-16-82-28V122h-93v121z" glyph-name="uni04B8" horiz-adv-x="645" unicode="Ҹ"/><glyph d="M223 159q-9-1-17.5-1H188q-37 0-66 8t-49 28-30.5 53T32 330v170h130V386q0-56 12-84.5t49-33.5v118h76V273q34 6 51 18v209h130V0H350v196q-15-11-51-22V59h-76v100z" glyph-name="uni04B9" horiz-adv-x="536" unicode="ҹ"/><glyph d="M423 0v222q0 60-23.5 89.5T322 341q-38 0-71.5-8.5T197 307V0H60v700h137V418q26 15 69.5 27.5T370 458q42 0 76.5-10.5t60-34 39.5-60 14-88.5V0H423z" glyph-name="uni04BA" horiz-adv-x="606" unicode="Һ"/><glyph d="M363 0v284q0 61-17 88t-62 27q-33 0-60.5-22.5T187 319V0H57v700h130V444h4q24 32 59 51t89 19q38 0 67-10t48.5-33 29-62.5T493 311V0H363z" glyph-name="uni04BB" horiz-adv-x="545" unicode="һ"/><glyph d="M343 293q3-40 15.5-74t35.5-59 57.5-38.5T533 108q45 0 82.5 13.5T686 157l35-116Q676 15 623 .5T508-14q-137 0-215.5 78T206 293h-32q-50 1-83 13.5T37.5 340t-29 48.5T0 445q2 49 24 76h115q-12-14-16.5-31t-3.5-31q0-8 3-18t12-18 26-13 46-2q4 69 24.5 125.5T286 630t86 62 117 22q134 0 200.5-76.5T756 415q0-28-2.5-58t-7.5-64H343zm279 115q3 19 3 39 0 31-7.5 58.5t-24 48.5-41.5 33.5-59 12.5q-73 0-110-49.5T343 408h279z" glyph-name="uni04BC" horiz-adv-x="794" unicode="Ҽ"/><glyph d="M596 43q-30-24-81.5-40.5T405-14q-110 0-166.5 59T173 208h-7q-77 0-118.5 35T6 344v7q1 27 8 43t21 33h109q-14-12-22-28.5t-8-40.5q0-20 12.5-34t49.5-14q14 102 75 153t161 51q38 0 74-10t64-33 45-62 17-97q0-21-2.5-45t-7.5-50H303q3-63 32-95t95-32q41 0 73.5 12.5T553 128zM410 410q-51 0-74.5-30.5T307 298h184q0 4 .5 8t.5 8q0 46-20.5 71T410 410z" glyph-name="uni04BD" horiz-adv-x="647" unicode="ҽ"/><glyph d="M343 293q3-40 15.5-74t35.5-59 57.5-38.5T533 108q45 0 82.5 13.5T686 157l35-116q-37-21-78-34t-88-18l-14-164h-88L434-7Q330 12 271 87.5T206 293h-32q-50 1-83 13.5T37.5 340t-29 48.5T0 445q2 49 24 76h115q-12-14-16.5-31t-3.5-31q0-8 3-18t12-18 26-13 46-2q4 69 24.5 125.5T286 630t86 62 117 22q134 0 200.5-76.5T756 415q0-28-2.5-58t-7.5-64H343zm279 115q3 19 3 39 0 31-7.5 58.5t-24 48.5-41.5 33.5-59 12.5q-73 0-110-49.5T343 408h279z" glyph-name="uni04BE" horiz-adv-x="794" unicode="Ҿ"/><glyph d="M596 43q-23-18-56.5-31.5T465-9l-14-166h-88L344-8Q264 7 222.5 63T173 208h-7q-77 0-118.5 35T6 344v7q1 27 8 43t21 33h109q-14-12-22-28.5t-8-40.5q0-20 12.5-34t49.5-14q14 102 75 153t161 51q38 0 74-10t64-33 45-62 17-97q0-21-2.5-45t-7.5-50H303q3-63 32-95t95-32q41 0 73.5 12.5T553 128zM410 410q-51 0-74.5-30.5T307 298h184q0 4 .5 8t.5 8q0 46-20.5 71T410 410z" glyph-name="uni04BF" horiz-adv-x="647" unicode="ҿ"/><glyph d="M74 700h137V0H74v700z" glyph-name="uni04C0" horiz-adv-x="285" unicode="Ӏ"/><glyph d="M424 76q0 49-10 90.5T381 237t-59.5 45.5T233 299h-36V0H60v700h137V390l32 14 193 296h156L381 420l-61-40h52q48-12 82.5-34t56.5-56 32.5-82.5T554 94V67q0-140-56.5-207T345-207q-29 0-60 6v111h15q63 0 93.5 39T424 76z" glyph-name="uni04C3" horiz-adv-x="611" unicode="Ӄ"/><glyph d="M338 27q0 87-28 128.5T222 202h-35V0H57v500h130V283l31 14 117 203h139L352 303l-46-32 41-2q39-11 62.5-34t36.5-53.5 17.5-66T468 45V28q0-123-46.5-180T290-209q-15 0-31.5 1.5T225-202v110q6-1 12-1.5t11-.5q90 0 90 121z" glyph-name="uni04C4" horiz-adv-x="501" unicode="ӄ"/><glyph d="M426 578H277q-4-95-9-173t-13.5-140.5T232 154t-36-83q-14-23-31.5-38T128 9 90.5-3.5 56-7Q33-7 17.5-3.5T-13 7L2 125q6-2 12-3t12-1q16 0 31.5 8T84 156q15 22 26 64.5T129.5 329 143 486.5t7 213.5h413V115h98V84l-96-214h-94L516 0h-90v578z" glyph-name="uni04C5" horiz-adv-x="651" unicode="Ӆ"/><glyph d="M329 385h-99q-6-71-14-141t-25.5-125.5-47.5-90T65-6Q7-6-17 9l16 108q16-6 30-6 20 0 35 17t25.5 61 17 119.5T116 500h343V115h95V84l-96-198h-94L409 0h-80v385z" glyph-name="uni04C6" horiz-adv-x="550" unicode="ӆ"/><glyph d="M590-21q0-91-36-139t-114-48q-14 0-30.5 1.5T376-201v109q4 0 7.5-.5t7.5-.5q21 0 33.5 6t19 18 8 29.5T453 0v293H197V0H60v700h137V415h256v285h137V-21z" glyph-name="uni04C7" horiz-adv-x="651" unicode="Ӈ"/><glyph d="M350 197H187V0H57v500h130V312h163v188h130V-21q0-91-36-139t-115-48q-30 0-64 7v109q4 0 7.5-.5t7.5-.5q43 0 56.5 24.5T350 0v197z" glyph-name="uni04C8" horiz-adv-x="537" unicode="ӈ"/><glyph d="M453 293H197V0H60v700h137V415h256v285h137V115h103V84l-96-214h-94L548 0h-95v293z" glyph-name="uni04C9" horiz-adv-x="683" unicode="Ӊ"/><glyph d="M350 197H187V0H57v500h130V312h163v188h130V115h101V84l-96-198h-94L436 0h-86v197z" glyph-name="uni04CA" horiz-adv-x="576" unicode="ӊ"/><glyph d="M183 700V478q0-60 23.5-89.5T284 359q38 0 71.5 8.5T409 393v307h137V0H434l-15-125h-96v247h86v160q-26-15-69.5-27.5T236 242q-42 0-76.5 10.5t-60 34-39.5 60T46 435v265h137z" glyph-name="uni04CB" horiz-adv-x="606" unicode="Ӌ"/><glyph d="M318 207q-15-11-46-22t-83-11q-74 0-115 38.5T33 341v159h130V397q0-28 2.5-49t10-35.5 21-21.5 35.5-7q29 0 50.5 7t35.5 17v192h130V0H328l-15-114h-95V98h100v109z" glyph-name="uni04CC" horiz-adv-x="505" unicode="ӌ"/><glyph d="m603 363 15 139h-6l-43-112-149-261h-44L219 391l-44 111h-5l20-138V0H60v700h125l187-320 33-80h4l30 82 177 318h124V115h116V84l-96-214h-94L711 0H603v363z" glyph-name="uni04CD" horiz-adv-x="846" unicode="Ӎ"/><glyph d="m485 229 8 104h-5l-40-86-94-155h-47L204 247l-38 86h-6l13-103V0H57v500h135l115-188 28-63h4l29 65 106 186h136V115h105V84l-96-198h-94L570 0h-85v229z" glyph-name="uni04CE" horiz-adv-x="710" unicode="ӎ"/><glyph d="M66 700h130V0H66v700z" glyph-name="uni04CF" horiz-adv-x="262" unicode="ӏ"/><glyph d="M405 155H190L137 0H0l252 705h101L605 0H461zM225 265h150l-52 156-21 110h-5l-21-111zm4 609q4-32 23.5-46t50.5-14q67 0 74 59l111-17q-11-63-57.5-92T302 735q-41 0-75 6t-59.5 19.5-42 36.5-20.5 57z" glyph-name="uni04D0" horiz-adv-x="605" unicode="Ӑ"/><glyph d="M54 471q40 18 95 28.5T264 510q52 0 87-12.5t55.5-35.5 29-55 8.5-72q0-44-3-88.5t-3.5-87.5 2.5-83.5T455-1H349l-21 69h-5q-20-31-55.5-53.5T176-8q-35 0-63 10.5t-48 30-31 46T23 138q0 46 20.5 77.5t59 51 92 27T314 298q7 56-8 80.5T239 403q-39 0-82.5-8T85 374zM219 99q39 0 62 17.5t34 37.5v65q-31 3-59.5 1t-50.5-9-35-20-13-33q0-28 16.5-43.5T219 99zm-32 605q7-39 23.5-55t42.5-16q28 0 44.5 16t22.5 54l99-25q-12-65-59-96.5T250 550q-31 0-60 7t-52 22.5T99 619t-22 59z" glyph-name="uni04D1" horiz-adv-x="496" unicode="ӑ"/><glyph d="M405 155H190L137 0H0l252 705h101L605 0H461zM225 265h150l-52 156-21 110h-5l-21-111zM119 798q0 26 18 42t58 16q39 0 57-16t18-42-18-41.5-57-15.5q-40 0-58 15.5T119 798zm214 0q0 26 18 42t57 16q40 0 58-16t18-42-18-41.5-58-15.5q-39 0-57 15.5T333 798z" glyph-name="uni04D2" horiz-adv-x="605" unicode="Ӓ"/><glyph d="M54 471q40 18 95 28.5T264 510q52 0 87-12.5t55.5-35.5 29-55 8.5-72q0-44-3-88.5t-3.5-87.5 2.5-83.5T455-1H349l-21 69h-5q-20-31-55.5-53.5T176-8q-35 0-63 10.5t-48 30-31 46T23 138q0 46 20.5 77.5t59 51 92 27T314 298q7 56-8 80.5T239 403q-39 0-82.5-8T85 374zM219 99q39 0 62 17.5t34 37.5v65q-31 3-59.5 1t-50.5-9-35-20-13-33q0-28 16.5-43.5T219 99zM67 632q0 32 19.5 51t51.5 19 50.5-19 18.5-51q0-30-18.5-49T138 564t-51.5 19T67 632zm219 0q0 32 18.5 51t50.5 19 51.5-19 19.5-51q0-30-19.5-49T355 564t-50.5 19-18.5 49z" glyph-name="uni04D3" horiz-adv-x="496" unicode="ӓ"/><glyph d="m394 532-36-103-84-148h126v251h-6zm6-362H214L115 0H-29l424 700h419V578H537V415h252V293H537V122h282V0H400v170z" glyph-name="uni04D4" horiz-adv-x="862" unicode="Ӕ"/><glyph d="M219 99q39 0 62 17.5t34 37.5v65q-31 3-59.5 1t-50.5-9-35-20-13-33q0-28 16.5-43.5T219 99zm131-23q-27-34-66.5-59T176-8q-35 0-63 10.5t-48 30-31 46T23 138q0 46 20.5 77.5t58.5 51 91.5 27T313 298q7 56-7.5 80.5T239 403q-39 0-79.5-10.5T88 367l-34 94q38 20 94 34.5T264 510q52 0 83-13.5t51-40.5q25 28 65 43t87 15q38 0 74-10t64-33 45-62 17-97q0-21-2.5-44.5T740 217H439q4-63 33.5-95T568 90q41 0 73.5 12.5T691 128l43-85q-30-24-81.5-40.5T543-14q-64 0-112.5 23.5T355 76h-5zm198 334q-51 0-75.5-30.5T443 298h187q3 54-17 83t-65 29z" glyph-name="uni04D5" horiz-adv-x="785" unicode="ӕ"/><glyph d="M60 700h415V578H197V415h253V293H197V122h283V0H60v700zm138 174q4-32 23.5-46t50.5-14q67 0 74 59l111-17q-11-63-57.5-92T271 735q-41 0-75 6t-59.5 19.5-42 36.5T74 854z" glyph-name="uni04D6" horiz-adv-x="522" unicode="Ӗ"/><glyph d="M457 43q-30-24-81.5-40.5T266-14Q145-14 89 56.5T33 250q0 132 63 198t177 66q38 0 74-10t64-33 45-62 17-97q0-21-2.5-45t-7.5-50H163q3-63 32.5-95T291 90q41 0 73.5 12.5T414 128zM271 410q-51 0-75.5-30.5T166 298h186q4 54-16.5 83T271 410zm-72 294q7-39 23.5-55t42.5-16q28 0 44.5 16t22.5 54l99-25q-12-65-59-96.5T262 550q-31 0-60 7t-52 22.5-39 39.5-22 59z" glyph-name="uni04D7" horiz-adv-x="508" unicode="ӗ"/><glyph d="M184 296q-3-20-3-38 0-31 7.5-59.5t23-50.5 39.5-35.5T309 99q70 0 107.5 50T454 296H184zm271 113q-6 87-49 135t-133 48q-52 0-92-15.5T118 547L89 664q15 9 37.5 18t50 16 58 11.5T296 714q69 0 124-20.5t93.5-65T572 515t20-165q0-85-16.5-152.5T523.5 83t-90-72T303-14q-68 0-118 22t-83 62-49 96-16 124q0 28 2.5 57.5T47 409h408z" glyph-name="uni04D8" horiz-adv-x="630" unicode="Ә"/><glyph d="M50 457q30 24 81.5 40.5T241 514q60 0 104-19t72.5-53.5T460 358t14-108q0-127-62-195.5T243-14q-39 0-76.5 11t-67 36T52 99.5 34 201q0 42 10 91h303q-5 62-34.5 90T217 410q-41 0-72.5-14.5T96 369zM242 90q50 0 75.5 34.5T344 211H155q-5-54 18.5-87.5T242 90z" glyph-name="afii10846" horiz-adv-x="508" unicode="ә"/><glyph d="M184 296q-3-20-3-38 0-31 7.5-59.5t23-50.5 39.5-35.5T309 99q70 0 107.5 50T454 296H184zm271 113q-6 87-49 135t-133 48q-52 0-92-15.5T118 547L89 664q15 9 37.5 18t50 16 58 11.5T296 714q69 0 124-20.5t93.5-65T572 515t20-165q0-85-16.5-152.5T523.5 83t-90-72T303-14q-68 0-118 22t-83 62-49 96-16 124q0 28 2.5 57.5T47 409h408zM127 798q0 26 18 42t58 16q39 0 57-16t18-42-18-41.5-57-15.5q-40 0-58 15.5T127 798zm214 0q0 26 18 42t57 16q40 0 58-16t18-42-18-41.5-58-15.5q-39 0-57 15.5T341 798z" glyph-name="uni04DA" horiz-adv-x="630" unicode="Ӛ"/><glyph d="M49 457q30 24 81.5 40.5T240 514q60 0 104-19t72.5-53.5T459 358t14-108q0-127-62-195.5T242-14q-39 0-76.5 11t-67 36T51 99.5 33 201q0 42 10 91h303q-5 62-34.5 90T216 410q-41 0-72.5-14.5T95 369zM241 90q50 0 75.5 34.5T343 211H154q-5-54 18.5-87.5T241 90zM64 632q0 32 19.5 51t51.5 19 50.5-19 18.5-51q0-30-18.5-49T135 564t-51.5 19T64 632zm219 0q0 32 18.5 51t50.5 19 51.5-19 19.5-51q0-30-19.5-49T352 564t-50.5 19-18.5 49z" glyph-name="uni04DB" horiz-adv-x="508" unicode="ӛ"/><glyph d="M350 700h130V389l35 14 145 297h154L651 393l-47-34 57-42L845 0H680L519 304h-39V0H350v316l-36-14L153 0H-7l183 307 54 39-52 37L7 700h159l145-299h39v299zm-115 98q0 26 18 42t58 16q39 0 57-16t18-42-18-41.5-57-15.5q-40 0-58 15.5T235 798zm214 0q0 26 18 42t57 16q40 0 58-16t18-42-18-41.5-58-15.5q-39 0-57 15.5T449 798z" glyph-name="uni04DC" horiz-adv-x="839" unicode="Ӝ"/><glyph d="M242 203 140 0H-6l131 229 34 30-51 38L5 500h139l93-203h43v203h124V287l38 14 94 199h138L565 297l-39-32 51-40L698 0H549L447 207h-43V0H280v217zm-77 429q0 32 19.5 51t51.5 19 50.5-19 18.5-51q0-30-18.5-49T236 564t-51.5 19-19.5 49zm219 0q0 32 18.5 51t50.5 19 51.5-19 19.5-51q0-30-19.5-49T453 564t-50.5 19-18.5 49z" glyph-name="uni04DD" horiz-adv-x="693" unicode="ӝ"/><glyph d="M120 310v107h46l26.5.5 26.5 2 21 3.5q35 8 60 28.5t25 55.5q0 48-30.5 65.5T214 590q-45 0-84-12t-59-23L36 671q11 6 31.5 13t47 13.5T172 708t63 4q44 0 86-8t75-28 53-53.5 20-85.5-27.5-96-88.5-64v-5q65-13 101.5-56T491 201q0-57-23-97.5T407.5 37 321-1.5 221-14q-66 0-120 11T18 23l35 119q23-11 66-22.5T221 108q22 0 44.5 5.5t40.5 18 29 32.5 11 48q0 47-35 71t-125 26q-12 1-18 1h-48zM58 798q0 26 18 42t58 16q39 0 57-16t18-42-18-41.5-57-15.5q-40 0-58 15.5T58 798zm214 0q0 26 18 42t57 16q40 0 58-16t18-42-18-41.5-58-15.5q-39 0-57 15.5T272 798z" glyph-name="uni04DE" horiz-adv-x="526" unicode="Ӟ"/><glyph d="M109 207v91h61q35 0 57.5 14t22.5 37q0 27-20 38.5T169 399q-39 0-69-10t-48-21l-28 99q30 17 79.5 29.5T209 509q86 0 128.5-32t42.5-93q0-17-4.5-34.5T361 316t-24.5-28.5T302 268v-4q53-12 75-42.5t22-81.5q0-32-13-59.5T346.5 33 280 1t-95-12T89.5.5 22 27l28 101q23-13 55.5-21t72.5-8q91 0 91 58 0 26-23.5 38T158 207h-49zM19 632q0 32 19.5 51T90 702t50.5-19 18.5-51q0-30-18.5-49T90 564t-51.5 19T19 632zm219 0q0 32 18.5 51t50.5 19 51.5-19 19.5-51q0-30-19.5-49T307 564t-50.5 19-18.5 49z" glyph-name="uni04DF" horiz-adv-x="432" unicode="ӟ"/><glyph d="M222 108q30 0 56 7t45.5 21 30.5 34 11 47q0 57-44 80t-129 23h-81v58l156 174 45 43-59-12H46v117h431v-75L307 437l-45-32v-4l46 10q44 0 80.5-12.5T451 362t40.5-60.5T506 217q0-54-19.5-96.5T431 48 344.5 2 231-14q-22 0-49 2.5t-54 7-52 12T34 25l32 120q14-8 32.5-14.5T138 119t42.5-8 41.5-3z" glyph-name="uni04E0" horiz-adv-x="548" unicode="Ӡ"/><glyph d="M191-102q59 0 96 28.5T324 7q0 111-160 111h-64v53l117 177 54 49-73-7H27v110h396v-70L284 245l-40-29v-2l31 3q34 0 66.5-13.5T399 165t40-61 15-81q0-55-19.5-98.5t-55-74T294-196t-111-16q-45 0-90 10t-83 32L56-67q27-14 59.5-24.5T191-102z" glyph-name="uni04E1" horiz-adv-x="484" unicode="ӡ"/><glyph d="m468 388 8 91h-5l-47-94L163 0H60v700h137V319l-10-94h6l49 97 261 378h102V0H468v388zM166 856h343v-89H166v89z" glyph-name="uni04E2" horiz-adv-x="666" unicode="Ӣ"/><glyph d="m358 228 5 71h-3l-43-73L139 0H57v500h130V262l-6-68h4l41 71 180 235h82V0H358v228zM114 658h323v-92H114v92z" glyph-name="uni04E3" horiz-adv-x="545" unicode="ӣ"/><glyph d="m468 388 8 91h-5l-47-94L163 0H60v700h137V319l-10-94h6l49 97 261 378h102V0H468v388zM150 798q0 26 18 42t58 16q39 0 57-16t18-42-18-41.5-57-15.5q-40 0-58 15.5T150 798zm214 0q0 26 18 42t57 16q40 0 58-16t18-42-18-41.5-58-15.5q-39 0-57 15.5T364 798z" glyph-name="uni04E4" horiz-adv-x="666" unicode="Ӥ"/><glyph d="m358 228 5 71h-3l-43-73L139 0H57v500h130V262l-6-68h4l41 71 180 235h82V0H358v228zM103 632q0 32 19.5 51t51.5 19 50.5-19 18.5-51q0-30-18.5-49T174 564t-51.5 19-19.5 49zm219 0q0 32 18.5 51t50.5 19 51.5-19 19.5-51q0-30-19.5-49T391 564t-50.5 19-18.5 49z" glyph-name="uni04E5" horiz-adv-x="545" unicode="ӥ"/><glyph d="M38 350q0 175 77 269.5T335 714q75 0 131-26t93-74 55-115 18-149q0-175-77.5-269.5T335-14q-76 0-132 26t-92.5 74T56 201 38 350zm144 0q0-53 9-97.5t27.5-76.5 47.5-50 69-18q73 0 113 57t40 185q0 51-8.5 95T453 522t-47 51.5-71 18.5q-73 0-113-58.5T182 350zm-30 448q0 26 18 42t58 16q39 0 57-16t18-42-18-41.5-57-15.5q-40 0-58 15.5T152 798zm214 0q0 26 18 42t57 16q40 0 58-16t18-42-18-41.5-58-15.5q-39 0-57 15.5T366 798z" glyph-name="uni04E6" horiz-adv-x="670" unicode="Ӧ"/><glyph d="M33 250q0 127 62 195.5T269 514q60 0 104-19t73-53.5 43.5-83.5T504 250q0-127-61.5-195.5T269-14q-60 0-104 19T91.5 58.5t-44 83.5T33 250zm134 0q0-33 6-61t18-49 31.5-32.5T269 96q51 0 76 37t25 117q0 69-23 111.5T269 404q-48 0-75-36t-27-118zM88 632q0 32 19.5 51t51.5 19 50.5-19 18.5-51q0-30-18.5-49T159 564t-51.5 19T88 632zm219 0q0 32 18.5 51t50.5 19 51.5-19 19.5-51q0-30-19.5-49T376 564t-50.5 19-18.5 49z" glyph-name="uni04E7" horiz-adv-x="537" unicode="ӧ"/><glyph d="M38 350q0 175 77 269.5T335 714q75 0 131-26t93-74 55-115 18-149q0-175-77.5-269.5T335-14q-76 0-132 26t-92.5 74T56 201 38 350zm450 57q-8 89-48 137t-105 48q-29 0-55-10t-46.5-32-34-57.5T182 407h306zM182 297q8-95 49-142t104-47q29 0 55.5 9.5t47 31 34 57.5 16.5 91H182z" glyph-name="uni04E8" horiz-adv-x="670" unicode="Ө"/><glyph d="M33 250q0 127 62 195.5T269 514q60 0 104-19t73-53.5 43.5-83.5T504 250q0-127-61.5-195.5T269-14q-60 0-104 19T91.5 58.5t-44 83.5T33 250zm337 39q-8 60-33.5 87.5T269 404q-19 0-36-6t-30.5-19.5-23-35.5-12.5-54h203zm-203-82q6-54 34-82.5T269 96q38 0 66.5 24.5T370 207H167z" glyph-name="uni04E9" horiz-adv-x="537" unicode="ө"/><glyph d="M38 350q0 175 77 269.5T335 714q75 0 131-26t93-74 55-115 18-149q0-175-77.5-269.5T335-14q-76 0-132 26t-92.5 74T56 201 38 350zm450 57q-8 89-48 137t-105 48q-29 0-55-10t-46.5-32-34-57.5T182 407h306zM182 297q8-95 49-142t104-47q29 0 55.5 9.5t47 31 34 57.5 16.5 91H182zm-29 501q0 26 18 42t58 16q39 0 57-16t18-42-18-41.5-57-15.5q-40 0-58 15.5T153 798zm214 0q0 26 18 42t57 16q40 0 58-16t18-42-18-41.5-58-15.5q-39 0-57 15.5T367 798z" glyph-name="uni04EA" horiz-adv-x="670" unicode="Ӫ"/><glyph d="M33 250q0 127 62 195.5T269 514q60 0 104-19t73-53.5 43.5-83.5T504 250q0-127-61.5-195.5T269-14q-60 0-104 19T91.5 58.5t-44 83.5T33 250zm337 39q-8 60-33.5 87.5T269 404q-19 0-36-6t-30.5-19.5-23-35.5-12.5-54h203zm-203-82q6-54 34-82.5T269 96q38 0 66.5 24.5T370 207H167zM88 632q0 32 19.5 51t51.5 19 50.5-19 18.5-51q0-30-18.5-49T159 564t-51.5 19T88 632zm219 0q0 32 18.5 51t50.5 19 51.5-19 19.5-51q0-30-19.5-49T376 564t-50.5 19-18.5 49z" glyph-name="uni04EB" horiz-adv-x="537" unicode="ӫ"/><glyph d="M130 410h269q-3 40-16.5 73.5T346 541t-57 37.5-77 13.5q-54 0-94-11.5T53 555L24 671q35 18 88 30.5T217 714q69 0 127.5-19t101-62.5 66.5-113T536 350q0-104-28-174T433 64 325 4 198-14Q141-14 94.5-4T20 19l36 119q23-11 62-20.5t90-9.5q39 0 72 11t58.5 34.5T380 213t20 87H130v110zM48 798q0 26 18 42t58 16q39 0 57-16t18-42-18-41.5-57-15.5q-40 0-58 15.5T48 798zm214 0q0 26 18 42t57 16q40 0 58-16t18-42-18-41.5-58-15.5q-39 0-57 15.5T262 798z" glyph-name="uni04EC" horiz-adv-x="574" unicode="Ӭ"/><glyph d="M109 300h186q-5 50-33 77t-83 27q-38 0-67-9t-51-21l-35 94q66 46 178 46t167-66.5T426 250q0-132-62-198T194-14q-47 0-95 9.5T23 22l32 102q23-13 54.5-20.5T173 96q64 0 91 27t32 84H109v93zM24 632q0 32 19.5 51T95 702t50.5-19 18.5-51q0-30-18.5-49T95 564t-51.5 19T24 632zm219 0q0 32 18.5 51t50.5 19 51.5-19 19.5-51q0-30-19.5-49T312 564t-50.5 19-18.5 49z" glyph-name="uni04ED" horiz-adv-x="459" unicode="ӭ"/><glyph d="m294 391 20-91h6l16 94 105 306h141L396 216q-22-57-42.5-99t-44-69.5-52.5-41T189-7q-33 0-53.5 4.5T91 17l35 111q17-9 31-11t30-2q47 0 66 74L-9 700h161zM126 856h343v-89H126v89z" glyph-name="uni04EE" horiz-adv-x="568" unicode="Ӯ"/><glyph d="m239 219 18-78h6l13 79 76 280h134L334 49Q315-7 297.5-53.5T259-134t-46.5-52.5T152-205q-52 0-83 17L93-84q15-6 30-6 23 0 44.5 19.5T200 0L-9 500h156zM86 658h323v-92H86v92z" glyph-name="uni04EF" horiz-adv-x="478" unicode="ӯ"/><glyph d="m294 391 20-91h6l16 94 105 306h141L396 216q-22-57-42.5-99t-44-69.5-52.5-41T189-7q-33 0-53.5 4.5T91 17l35 111q17-9 31-11t30-2q47 0 66 74L-9 700h161zM123 798q0 26 18 42t58 16q39 0 57-16t18-42-18-41.5-57-15.5q-40 0-58 15.5T123 798zm214 0q0 26 18 42t57 16q40 0 58-16t18-42-18-41.5-58-15.5q-39 0-57 15.5T337 798z" glyph-name="uni04F0" horiz-adv-x="568" unicode="Ӱ"/><glyph d="m239 219 18-78h6l13 79 76 280h134L334 49Q315-7 297.5-53.5T259-134t-46.5-52.5T152-205q-52 0-83 17L93-84q15-6 30-6 23 0 44.5 19.5T200 0L-9 500h156zM72 632q0 32 19.5 51t51.5 19 50.5-19 18.5-51q0-30-18.5-49T143 564t-51.5 19T72 632zm219 0q0 32 18.5 51t50.5 19 51.5-19 19.5-51q0-30-19.5-49T360 564t-50.5 19-18.5 49z" glyph-name="uni04F1" horiz-adv-x="478" unicode="ӱ"/><glyph d="m294 391 20-91h6l16 94 105 306h141L396 216q-22-57-42.5-99t-44-69.5-52.5-41T189-7q-33 0-53.5 4.5T91 17l35 111q17-9 31-11t30-2q47 0 66 74L-9 700h161zm-92 459h134v-16l-100-93h-93zm198 0h140v-16l-143-93h-94z" glyph-name="uni04F2" horiz-adv-x="568" unicode="Ӳ"/><glyph d="m239 219 18-78h6l13 79 76 280h134L334 49Q315-7 297.5-53.5T259-134t-46.5-52.5T152-205q-52 0-83 17L93-84q15-6 30-6 23 0 44.5 19.5T200 0L-9 500h156zm-78 481h119v-16l-76-113h-78zm178 0h126v-16L347 571h-81z" glyph-name="uni04F3" horiz-adv-x="478" unicode="ӳ"/><glyph d="M183 700V478q0-60 23.5-89.5T284 359q38 0 71.5 8.5T409 393v307h137V0H409v282q-26-15-69.5-27.5T236 242q-42 0-76.5 10.5t-60 34-39.5 60T46 435v265h137zm-62 98q0 26 18 42t58 16q39 0 57-16t18-42-18-41.5-57-15.5q-40 0-58 15.5T121 798zm214 0q0 26 18 42t57 16q40 0 58-16t18-42-18-41.5-58-15.5q-39 0-57 15.5T335 798z" glyph-name="uni04F4" horiz-adv-x="606" unicode="Ӵ"/><glyph d="M163 500V386q0-31 2.5-53.5t10-37 21-21.5 35.5-7q29 0 50.5 7t35.5 17v209h130V0H318v196q-15-11-46-24.5T189 158q-37 0-66 8t-49 28-30.5 53T33 330v170h130zM60 632q0 32 19.5 51t51.5 19 50.5-19 18.5-51q0-30-18.5-49T131 564t-51.5 19T60 632zm219 0q0 32 18.5 51t50.5 19 51.5-19 19.5-51q0-30-19.5-49T348 564t-50.5 19-18.5 49z" glyph-name="uni04F5" horiz-adv-x="505" unicode="ӵ"/><glyph d="M467 578H197V122h88v-247h-96L174 0H60v700h407V578z" glyph-name="uni04F6" horiz-adv-x="458" unicode="Ӷ"/><glyph d="M57 500h323V385H191V115h90v-229h-95L171 0H57v500z" glyph-name="uni04F7" horiz-adv-x="376" unicode="ӷ"/><glyph d="M600 700h137V0H600v700zm-540 0h137V449q11 2 35 5t47 3q50 0 95.5-10t79.5-35.5 54-69T528 233q0-122-71-182.5T246-10q-14 0-36 .5T162.5-7 110-2 60 7v693zm196-588q57 0 92.5 26.5T384 227q0 33-10 54t-27 33-40 16.5-50 4.5q-14 0-33-2.5t-27-5.5V118q11-3 26.5-4.5T256 112zm-44 686q0 26 18 42t58 16q39 0 57-16t18-42-18-41.5-57-15.5q-40 0-58 15.5T212 798zm214 0q0 26 18 42t57 16q40 0 58-16t18-42-18-41.5-58-15.5q-39 0-57 15.5T426 798z" glyph-name="uni04F8" horiz-adv-x="798" unicode="Ӹ"/><glyph d="M187 109q30-6 57-6 45 0 63 16.5t18 51.5q0 32-18 48.5T247 236q-33 0-60-7V109zm0 213q24 4 48.5 5.5T280 329q51 0 85-11.5t55-32.5 30-49.5 9-61.5q0-45-12-79t-39-56.5-70-34T232-7q-57 0-98.5 2T57 0v500h130V322zm329 178h130V0H516v500zM164 632q0 32 19.5 51t51.5 19 50.5-19 18.5-51q0-30-18.5-49T235 564t-51.5 19-19.5 49zm219 0q0 32 18.5 51t50.5 19 51.5-19 19.5-51q0-30-19.5-49T452 564t-50.5 19-18.5 49z" glyph-name="uni04F9" horiz-adv-x="703" unicode="ӹ"/><glyph d="M452-21q0 34-15 66t-29 55l-71 116-28 74-26-74L159 0H10l215 356L30 700h165l108-202 24-71 23 71 113 202h149L410 363l130-213q25-39 39-83t14-87q0-91-40.5-139T431-207q-15 0-31.5 1.5T366-200v109q4 0 7.5-.5t7.5-.5q43 0 57 21t14 50z" glyph-name="uni04FC" horiz-adv-x="633" unicode="Ӽ"/><glyph d="M443 128q22-32 37-74t15-79q0-88-38-135.5T339-208q-31 0-65 7v104q5-1 9.5-1h9.5q42 0 57.5 18T365-32q0 27-12.5 53.5T326 69l-34 51-34 72-31-72L150 0H8l162 256L20 500h155l65-107 28-70 30 70 68 107h141L356 260z" glyph-name="uni04FD" horiz-adv-x="525" unicode="ӽ"/><glyph d="M384 310h-21l-18-1q-88-2-124.5-28T184 209q0-26 10.5-45t28-31.5 41-18.5 50.5-6q51 0 92.5 12.5T471 144l37-108q-14-9-35.5-17.5T424 2.5t-57.5-12T303-14q-60 0-108.5 12.5t-83 38-53 65T40 195q0 73 35.5 117.5T176 370v5q-58 22-86 66t-28 96q0 48 19.5 81.5t53 54.5 77 30 91.5 9q29 0 58.5-4t55-10.5 46-14T494 669l-36-109q-25 11-63 20.5t-74 9.5q-55 0-85-18t-30-60q0-20 8-35t20.5-26 29-18 34.5-10q17-5 44-5.5t45-.5h24V310h-27z" glyph-name="uni0510" horiz-adv-x="526" unicode="Ԑ"/><glyph d="M274 207q-32 0-53.5-3t-34.5-9.5-18-16-5-22.5q0-26 22.5-41.5T253 99q40 0 73 9t56 23l28-101q-26-15-67-28t-96-13Q137-11 85 31.5T33 140q0 51 23.5 80.5T130 264v4q-40 14-59 45.5T52 380q0 64 46 96.5T223 509q62 0 108.5-12.5T408 467l-28-99q-18 11-48.5 21T262 399q-41 0-60.5-11T182 350q0-23 22.5-37.5T262 298h61v-91h-49z" glyph-name="uni0511" horiz-adv-x="432" unicode="ԑ"/><glyph d="M574-21q0-91-36-139t-114-48q-14 0-30.5 1.5T360-201v109q5 0 8.5-.5t7.5-.5q21 0 33 6t18 17.5 8 29T437 0v578H288q-4-95-9.5-173t-15-140.5-24-110.5T204 71q-15-23-32-38T137 9 101-3.5 67-7Q44-7 23-3T-13 8L9 125q13-5 27-5 15 0 30.5 8T95 156q15 22 26 64.5T140.5 329 154 486.5t7 213.5h413V-21z" glyph-name="uni0512" horiz-adv-x="634" unicode="Ԓ"/><glyph d="M329 385h-99q-6-71-14-141t-25.5-125.5-47.5-90T65-6Q7-6-17 9l16 108q16-6 30-6 20 0 35 17t25.5 61 17 119.5T116 500h343V-21q0-91-36-139t-115-48q-30 0-64 7v109q4 0 7.5-.5t7.5-.5q43 0 56.5 24.5T329 0v385z" glyph-name="uni0513" horiz-adv-x="515" unicode="ԓ"/><glyph d="m242 309 13-124h4l14 126 122 389h90l120-391 14-124h4l15 126 85 389h139L669-5h-92L452 384l-17 107h-5l-17-108L289-5h-97L0 700h149z" glyph-name="uni051C" horiz-adv-x="862" unicode="Ԝ"/><glyph d="m419 500 91-256 18-83h4l14 84 64 255h119L575-5h-96L378 275l-13 63h-5l-12-64L252-5h-99L-8 500h141l73-251 12-89h5l17 90 83 250h96z" glyph-name="uni051D" horiz-adv-x="721" unicode="ԝ"/><glyph d="M442 578H197V0H60v700h519V122h87v-247h-96L555 0H442v578z" glyph-name="uni0524" horiz-adv-x="684" unicode="Ԥ"/><glyph d="M345 385H187V0H57v500h418V115h83v-229h-95L448 0H345v385z" glyph-name="uni0525" horiz-adv-x="574" unicode="ԥ"/><glyph d="M423 222q0 60-23.5 89.5T322 341q-38 0-71.5-8.5T197 307V0H60v700h137V418q26 15 69.5 27.5T370 458q42 0 76.5-10.5t60-34 39.5-60 14-88.5V122h88v-247h-96L537 0H423v222z" glyph-name="uni0526" horiz-adv-x="661" unicode="Ԧ"/><glyph d="M493 115h80v-229h-95L463 0H363v284q0 61-17 88t-62 27q-33 0-60.5-22.5T187 319V0H57v700h130V444h4q24 32 59 51t89 19q38 0 67-10t48.5-33 29-62.5T493 311V115z" glyph-name="uni0527" horiz-adv-x="590" unicode="ԧ"/><glyph d="M233 299h-36V0H60v700h137V390l32 14 193 296h156L374 406l-54-38 56-39L609 0H440zm77 571h159v-30l-160-88H206z" glyph-name="uni1E30" horiz-adv-x="620" unicode="Ḱ"/><glyph d="M222 207h-35V0H57v700h130V287l30 14 114 199h143L354 310l-51-38 55-39L493 0H344zm77 513h132v-30L320 566h-74z" glyph-name="uni1E31" horiz-adv-x="491" unicode="ḱ"/><glyph d="m603 363 15 139h-6l-43-112-149-261h-44L219 391l-44 111h-5l20-138V0H60v700h125l187-320 33-80h4l30 82 177 318h124V0H603v363zM422 870h159v-30l-160-88H318z" glyph-name="uni1E3E" horiz-adv-x="800" unicode="Ḿ"/><glyph d="M341 0v272q0 69-13 98t-54 29q-34 0-55-18.5T187 333V0H57v500h101l15-66h4q23 32 58.5 56t91.5 24q48 0 78.5-19.5T453 429q23 39 59 62t87 23q42 0 71.5-10t48-34.5T746 404t9-104V0H625v281q0 59-12.5 88.5T557 399q-35 0-55.5-19T471 328V0H341zm58 720h132v-30L420 566h-74z" glyph-name="uni1E3F" horiz-adv-x="805" unicode="ḿ"/><glyph d="M60 693q42 8 92.5 12.5T253 710q52 0 104.5-8.5t94.5-34 68.5-71T547 478q0-66-23-111.5T463 292t-86.5-42T276 237h-16l-23 .5-23.5 1.5-16.5 2V0H60v693zm204-101q-20 0-38-1.5t-29-3.5V360q4-1 12-2t17-1.5 17.5-.5H256q27 0 53.5 5t47.5 18.5 33.5 37.5 12.5 63q0 33-12 54.5T359.5 569 315 587t-51 5zm28 278h159v-30l-160-88H188z" glyph-name="uni1E54" horiz-adv-x="572" unicode="Ṕ"/><glyph d="M57 500h95l15-60h4q26 38 61.5 56t86.5 18q94 0 141-59.5T507 263q0-64-15-115.5T447.5 60t-72-55T278-14q-31 0-51 4.5T187 5v-205H57v700zm223-96q-38 0-59.5-19T187 328V120q14-11 30.5-17.5T261 96q56 0 84 39.5T373 266q0 66-22 102t-71 36zm-16 316h132v-30L285 566h-74z" glyph-name="uni1E55" horiz-adv-x="540" unicode="ṕ"/><glyph d="M419 570q-18 16-48.5 25t-67.5 9q-35 0-56-12.5t-32-35-14.5-54T197 433V0H60v478q0 57 13 100.5t42.5 73.5 76 45.5T304 713q51 0 91.5-7.5t74-21 61.5-31 55-37.5L451 437l-35-29v-5l35 8q81-6 129.5-55T629 217q0-108-61.5-169.5T388-14q-14 0-34 2t-40.5 6T275 3t-28 10l27 114q10-5 24-8.5t28.5-5.5 28.5-3.5 25-1.5q50 0 77.5 27.5T485 215q0 55-37 80t-113 25h-50v83z" glyph-name="uni1E9E" horiz-adv-x="672" unicode="ẞ"/><glyph d="M54 345h251V230H54v115z" glyph-name="uni2011" horiz-adv-x="360" unicode="‑"/><glyph d="M109 346h442V231H109v115z" glyph-name="endash" horiz-adv-x="660" unicode="–"/><glyph d="M109 346h602V231H109v115z" glyph-name="emdash" horiz-adv-x="820" unicode="—"/><glyph d="M185 618q0-29-19.5-46.5T117 554q-37 0-58 23.5T38 640q0 40 12.5 68t30 46.5 36.5 29 33 15.5l32-54q-20-8-34-25.5T132 682q20 0 36.5-17.5T185 618z" glyph-name="quoteleft" horiz-adv-x="223" unicode="‘"/><glyph d="M38 644q0 29 19.5 47t49.5 18q36 0 57-24t21-63q0-40-12.5-68t-30-46.5-37-29T73 463l-33 55q20 9 35.5 24T93 580q-20-1-37.5 15.5T38 644z" glyph-name="quoteright" horiz-adv-x="223" unicode="’"/><glyph d="M38 62q0 29 19.5 47t49.5 18q36 0 57-24t21-63q0-40-12.5-68t-30-46.5-37-29T73-119L40-64q20 9 35.5 24T93-2Q73-3 55.5 13.5T38 62z" glyph-name="quotesinglbase" horiz-adv-x="223" unicode="‚"/><glyph d="M358 618q0-29-19.5-46.5T290 554q-37 0-58 23.5T211 640q0 40 12.5 68t30 46.5 36.5 29 33 15.5l32-54q-20-8-34-25.5T305 682q20 0 36.5-17.5T358 618zm-173 0q0-29-19.5-46.5T117 554q-37 0-58 23.5T38 640q0 40 12.5 68t30 46.5 36.5 29 33 15.5l32-54q-20-8-34-25.5T132 682q20 0 36.5-17.5T185 618z" glyph-name="quotedblleft" horiz-adv-x="396" unicode="“"/><glyph d="M211 644q0 29 19.5 47t49.5 18q36 0 57-24t21-63q0-40-12.5-68t-30-46.5-37-29T246 463l-33 55q20 9 35.5 24t17.5 38q-20-1-37.5 15.5T211 644zm-173 0q0 29 19.5 47t49.5 18q36 0 57-24t21-63q0-40-12.5-68t-30-46.5-37-29T73 463l-33 55q20 9 35.5 24T93 580q-20-1-37.5 15.5T38 644z" glyph-name="quotedblright" horiz-adv-x="396" unicode="”"/><glyph d="M211 62q0 29 19.5 47t49.5 18q36 0 57-24t21-63q0-40-12.5-68t-30-46.5-37-29T246-119l-33 55q20 9 35.5 24T266-2q-20-1-37.5 15.5T211 62zM38 62q0 29 19.5 47t49.5 18q36 0 57-24t21-63q0-40-12.5-68t-30-46.5-37-29T73-119L40-64q20 9 35.5 24T93-2Q73-3 55.5 13.5T38 62z" glyph-name="quotedblbase" horiz-adv-x="396" unicode="„"/><glyph d="M40 513h116l52-16-16 54v149h124V551l-15-54 51 16h117V401H350l-49 16 15-50V0l-16-200h-92L192 1v366l16 50-52-16H40v112z" glyph-name="dagger" horiz-adv-x="509" unicode="†"/><glyph d="m192 371 16 45-52-15H40v112h116l52-15-16 50v152h124V548l-15-50 51 15h117V401H350l-49 15 15-45v-84l-15-45 49 15h119V145H352l-51 15 15-50V0l-17-200h-90L192 1v109l16 50-52-15H40v112h116l52-15-16 45v84z" glyph-name="daggerdbl" horiz-adv-x="509" unicode="‡"/><glyph d="M73 311q0 34 12 62t33 48 48.5 31.5T225 464q32 0 60-10.5t48.5-30 32.5-48 12-64.5-12-64-32.5-47.5-48.5-30-60-10.5q-31 0-58.5 10.5t-48.5 30T85 247t-12 64z" glyph-name="bullet" horiz-adv-x="452" unicode="•"/><glyph d="M53 66q0 35 22 55.5t58 20.5q38 0 60-20.5T215 66t-22-56-60-21q-36 0-58 21T53 66zm272 0q0 35 22 55.5t58 20.5q38 0 60-20.5T487 66t-22-56-60-21q-36 0-58 21t-22 56zm272 0q0 35 22 55.5t58 20.5q38 0 60-20.5T759 66t-22-56-60-21q-36 0-58 21t-22 56z" glyph-name="ellipsis" horiz-adv-x="809" unicode="…"/><glyph d="M51 542q0 45 13 77t36 53 55.5 30.5T226 712t70-9 55.5-29 36.5-52.5 14-79.5q-1-47-14-79.5T351.5 410 296 381t-70-9-70.5 9-55.5 29-36 52.5T51 542zm116 0q0-86 59-86 31 0 44.5 18.5T285 542q-1 48-14.5 67T226 628t-45-19-14-67zm285-371q0 45 13 77t36 53 55.5 30.5T627 341t70-9 55.5-29 36.5-52.5 14-79.5q-1-47-14-79.5T752.5 39 697 10t-70-9-70.5 9T501 39t-36 52.5-13 79.5zm116 0q0-86 59-86 31 0 44.5 18.5T686 171q-1 48-14.5 67T627 257t-45-19-14-67zm272 0q0 45 13 77t36 53 55.5 30.5 70.5 9.5 70-9 55.5-29 36.5-52.5 14-79.5q-1-47-14-79.5T1140.5 39 1085 10t-70-9-70.5 9T889 39t-36 52.5-13 79.5zm116 0q0-86 59-86 31 0 44.5 18.5T1074 171q-1 48-14.5 67t-44.5 19-45-19-14-67zM677 714l73-66L174-14l-73 69z" glyph-name="perthousand" horiz-adv-x="1232" unicode="‰"/><glyph d="m29 259 160 230 75-62-83-126-48-41 48-36 91-122-77-64z" glyph-name="guilsinglleft" horiz-adv-x="307" unicode="‹"/><glyph d="M278 268 118 38 42 99l84 127 48 41-48 36-92 123 78 63z" glyph-name="guilsinglright" horiz-adv-x="307" unicode="›"/><glyph d="m266 715 85-50L-79-14l-86 53z" glyph-name="fraction" horiz-adv-x="184" unicode="⁄"/><glyph d="M72 0h97v164l10 46-30-32-59-39-49 77 158 111h85V0h88v-100H72V0z" glyph-name="uni2081" horiz-adv-x="412" unicode="₁"/><glyph d="M348 200q0-59-30-101t-72-80L199-6v-4l59 11h106v-101H51v71q26 18 58 42t59.5 51.5 46 56.5 18.5 55q0 49-56 49-27 0-51-8.5T84 197l-34 90q35 21 74.5 30.5T200 327q71 0 109.5-32.5T348 200z" glyph-name="uni2082" horiz-adv-x="412" unicode="₂"/><glyph d="M169-12q44 0 62.5 14T251 39q-1 23-20 36t-70 13h-42v38l73 80 43 25-58-6H62v95h283v-62l-87-92-34-18v-5l30 3q52-2 81.5-31.5T366 31q-1-36-15.5-62t-39-43T254-99t-68-8q-39 0-72.5 6.5T56-83L79 7q41-19 90-19z" glyph-name="uni2083" horiz-adv-x="412" unicode="₃"/><glyph d="M402-22h-76v-78H225v78H18v67l218 283h90V67h76v-89zM225 153l6 53h-5l-22-49-48-66-36-32 52 8h53v86z" glyph-name="uni2084" horiz-adv-x="412" unicode="₄"/><glyph d="M34 475h62q15 66 43.5 111t66.5 73.5 83.5 41.5 94.5 13q52 0 92.5-8t67.5-19l-35-103q-22 9-51 13.5t-68 4.5q-60 0-103-30t-65-97h259l-26-93H206q-1-8-1-15.5V324h230l-26-93H221q20-66 63.5-99.5T400 98q42 0 72.5 9t54.5 23l27-101q-15-11-36-19.5T474-4t-47-7.5-46-2.5q-110 0-185.5 58.5T94 231H2l32 93h49v42l1 16H2z" glyph-name="Euro" unicode="€"/><glyph d="M495 321v-93H246q-14-14-24.5-37T211 148q0-26 22-41.5T309 91q53 0 84.5 9.5T447 122l29-98q-25-14-70-26T279-14q-94 0-144 36T85 130q0 16 3.5 31.5t9 29 11 22.5 9.5 15H45v93h450zM45 378v93h250q15 14 26 37t11 45q0 56-80 56-40 0-68.5-8.5T131 580l-37 98q16 8 32.5 14.5T163 704t47.5 7.5T277 714q88 0 134-33t46-101q0-32-12.5-62.5T417 471h78v-93H45z" glyph-name="uni20B4" unicode="₴"/><glyph d="M23 364h79v329q42 8 87 12.5t95 4.5q52 0 100-9t84-33 57.5-66T547 494q0-61-21-103t-56-68.5-80-38-94-11.5h-68v-58h160v-91H228V0H102v124H23v91h79v58H23v91zm205 3h52q27 0 51.5 6.5T374 394t28.5 37.5T413 488q0 61-33 86.5T295 600q-20 0-38-1.5t-29-3.5V367z" glyph-name="uni20B6" unicode="₶"/><glyph d="M23 364h79v329q42 8 87 12.5t95 4.5q52 0 100-9t84-33 57.5-66T547 494q0-61-21-103t-56-68.5-80-38-94-11.5h-68v-58h160v-91H228V0H102v124H23v91h79v58H23v91zm205 3h52q27 0 51.5 6.5T374 394t28.5 37.5T413 488q0 61-33 86.5T295 600q-20 0-38-1.5t-29-3.5V367z" glyph-name="uni20B7" unicode="₷"/><glyph d="M23 364h79v329q42 8 87 12.5t95 4.5q52 0 100-9t84-33 57.5-66T547 494q0-61-21-103t-56-68.5-80-38-94-11.5h-68v-58h160v-91H228V0H102v124H23v91h79v58H23v91zm205 3h52q27 0 51.5 6.5T374 394t28.5 37.5T413 488q0 61-33 86.5T295 600q-20 0-38-1.5t-29-3.5V367z" glyph-name="uni20B9" unicode="₹"/><glyph d="M23 364h79v329q42 8 87 12.5t95 4.5q52 0 100-9t84-33 57.5-66T547 494q0-61-21-103t-56-68.5-80-38-94-11.5h-68v-58h160v-91H228V0H102v124H23v91h79v58H23v91zm205 3h52q27 0 51.5 6.5T374 394t28.5 37.5T413 488q0 61-33 86.5T295 600q-20 0-38-1.5t-29-3.5V367z" glyph-name="uni20BA" unicode="₺"/><glyph d="M23 364h79v329q42 8 87 12.5t95 4.5q52 0 100-9t84-33 57.5-66T547 494q0-61-21-103t-56-68.5-80-38-94-11.5h-68v-58h160v-91H228V0H102v124H23v91h79v58H23v91zm205 3h52q27 0 51.5 6.5T374 394t28.5 37.5T413 488q0 61-33 86.5T295 600q-20 0-38-1.5t-29-3.5V367z" glyph-name="uni20BB" unicode="₻"/><glyph d="M23 364h79v329q42 8 87 12.5t95 4.5q52 0 100-9t84-33 57.5-66T547 494q0-61-21-103t-56-68.5-80-38-94-11.5h-68v-58h160v-91H228V0H102v124H23v91h79v58H23v91zm205 3h52q27 0 51.5 6.5T374 394t28.5 37.5T413 488q0 61-33 86.5T295 600q-20 0-38-1.5t-29-3.5V367z" glyph-name="uni20BC" unicode="₼"/><glyph d="M23 364h79v329q42 8 87 12.5t95 4.5q52 0 100-9t84-33 57.5-66T547 494q0-61-21-103t-56-68.5-80-38-94-11.5h-68v-58h160v-91H228V0H102v124H23v91h79v58H23v91zm205 3h52q27 0 51.5 6.5T374 394t28.5 37.5T413 488q0 61-33 86.5T295 600q-20 0-38-1.5t-29-3.5V367z" glyph-name="uni20BD" unicode="₽"/><glyph d="M23 364h79v329q42 8 87 12.5t95 4.5q52 0 100-9t84-33 57.5-66T547 494q0-61-21-103t-56-68.5-80-38-94-11.5h-68v-58h160v-91H228V0H102v124H23v91h79v58H23v91zm205 3h52q27 0 51.5 6.5T374 394t28.5 37.5T413 488q0 61-33 86.5T295 600q-20 0-38-1.5t-29-3.5V367z" glyph-name="uni20BE" unicode="₾"/><glyph d="M23 364h79v329q42 8 87 12.5t95 4.5q52 0 100-9t84-33 57.5-66T547 494q0-61-21-103t-56-68.5-80-38-94-11.5h-68v-58h160v-91H228V0H102v124H23v91h79v58H23v91zm205 3h52q27 0 51.5 6.5T374 394t28.5 37.5T413 488q0 61-33 86.5T295 600q-20 0-38-1.5t-29-3.5V367z" glyph-name="uni20BF" unicode="₿"/><glyph d="M23 364h79v329q42 8 87 12.5t95 4.5q52 0 100-9t84-33 57.5-66T547 494q0-61-21-103t-56-68.5-80-38-94-11.5h-68v-58h160v-91H228V0H102v124H23v91h79v58H23v91zm205 3h52q27 0 51.5 6.5T374 394t28.5 37.5T413 488q0 61-33 86.5T295 600q-20 0-38-1.5t-29-3.5V367z" glyph-name="uni20C0" unicode="⃀"/><glyph d="M23 364h79v329q42 8 87 12.5t95 4.5q52 0 100-9t84-33 57.5-66T547 494q0-61-21-103t-56-68.5-80-38-94-11.5h-68v-58h160v-91H228V0H102v124H23v91h79v58H23v91zm205 3h52q27 0 51.5 6.5T374 394t28.5 37.5T413 488q0 61-33 86.5T295 600q-20 0-38-1.5t-29-3.5V367z" glyph-name="uni20C1" unicode="⃁"/><glyph d="M23 364h79v329q42 8 87 12.5t95 4.5q52 0 100-9t84-33 57.5-66T547 494q0-61-21-103t-56-68.5-80-38-94-11.5h-68v-58h160v-91H228V0H102v124H23v91h79v58H23v91zm205 3h52q27 0 51.5 6.5T374 394t28.5 37.5T413 488q0 61-33 86.5T295 600q-20 0-38-1.5t-29-3.5V367z" glyph-name="uni20C2" unicode="⃂"/><glyph d="M23 364h79v329q42 8 87 12.5t95 4.5q52 0 100-9t84-33 57.5-66T547 494q0-61-21-103t-56-68.5-80-38-94-11.5h-68v-58h160v-91H228V0H102v124H23v91h79v58H23v91zm205 3h52q27 0 51.5 6.5T374 394t28.5 37.5T413 488q0 61-33 86.5T295 600q-20 0-38-1.5t-29-3.5V367z" glyph-name="uni20C3" unicode="⃃"/><glyph d="M23 364h79v329q42 8 87 12.5t95 4.5q52 0 100-9t84-33 57.5-66T547 494q0-61-21-103t-56-68.5-80-38-94-11.5h-68v-58h160v-91H228V0H102v124H23v91h79v58H23v91zm205 3h52q27 0 51.5 6.5T374 394t28.5 37.5T413 488q0 61-33 86.5T295 600q-20 0-38-1.5t-29-3.5V367z" glyph-name="uni20C4" unicode="⃄"/><glyph d="M23 364h79v329q42 8 87 12.5t95 4.5q52 0 100-9t84-33 57.5-66T547 494q0-61-21-103t-56-68.5-80-38-94-11.5h-68v-58h160v-91H228V0H102v124H23v91h79v58H23v91zm205 3h52q27 0 51.5 6.5T374 394t28.5 37.5T413 488q0 61-33 86.5T295 600q-20 0-38-1.5t-29-3.5V367z" glyph-name="uni20C5" unicode="⃅"/><glyph d="M23 364h79v329q42 8 87 12.5t95 4.5q52 0 100-9t84-33 57.5-66T547 494q0-61-21-103t-56-68.5-80-38-94-11.5h-68v-58h160v-91H228V0H102v124H23v91h79v58H23v91zm205 3h52q27 0 51.5 6.5T374 394t28.5 37.5T413 488q0 61-33 86.5T295 600q-20 0-38-1.5t-29-3.5V367z" glyph-name="uni20C6" unicode="⃆"/><glyph d="M23 364h79v329q42 8 87 12.5t95 4.5q52 0 100-9t84-33 57.5-66T547 494q0-61-21-103t-56-68.5-80-38-94-11.5h-68v-58h160v-91H228V0H102v124H23v91h79v58H23v91zm205 3h52q27 0 51.5 6.5T374 394t28.5 37.5T413 488q0 61-33 86.5T295 600q-20 0-38-1.5t-29-3.5V367z" glyph-name="uni20C7" unicode="⃇"/><glyph d="M23 364h79v329q42 8 87 12.5t95 4.5q52 0 100-9t84-33 57.5-66T547 494q0-61-21-103t-56-68.5-80-38-94-11.5h-68v-58h160v-91H228V0H102v124H23v91h79v58H23v91zm205 3h52q27 0 51.5 6.5T374 394t28.5 37.5T413 488q0 61-33 86.5T295 600q-20 0-38-1.5t-29-3.5V367z" glyph-name="uni20C8" unicode="⃈"/><glyph d="M23 364h79v329q42 8 87 12.5t95 4.5q52 0 100-9t84-33 57.5-66T547 494q0-61-21-103t-56-68.5-80-38-94-11.5h-68v-58h160v-91H228V0H102v124H23v91h79v58H23v91zm205 3h52q27 0 51.5 6.5T374 394t28.5 37.5T413 488q0 61-33 86.5T295 600q-20 0-38-1.5t-29-3.5V367z" glyph-name="uni20C9" unicode="⃉"/><glyph d="M23 364h79v329q42 8 87 12.5t95 4.5q52 0 100-9t84-33 57.5-66T547 494q0-61-21-103t-56-68.5-80-38-94-11.5h-68v-58h160v-91H228V0H102v124H23v91h79v58H23v91zm205 3h52q27 0 51.5 6.5T374 394t28.5 37.5T413 488q0 61-33 86.5T295 600q-20 0-38-1.5t-29-3.5V367z" glyph-name="uni20CA" unicode="⃊"/><glyph d="M23 364h79v329q42 8 87 12.5t95 4.5q52 0 100-9t84-33 57.5-66T547 494q0-61-21-103t-56-68.5-80-38-94-11.5h-68v-58h160v-91H228V0H102v124H23v91h79v58H23v91zm205 3h52q27 0 51.5 6.5T374 394t28.5 37.5T413 488q0 61-33 86.5T295 600q-20 0-38-1.5t-29-3.5V367z" glyph-name="uni20CB" unicode="⃋"/><glyph d="M23 364h79v329q42 8 87 12.5t95 4.5q52 0 100-9t84-33 57.5-66T547 494q0-61-21-103t-56-68.5-80-38-94-11.5h-68v-58h160v-91H228V0H102v124H23v91h79v58H23v91zm205 3h52q27 0 51.5 6.5T374 394t28.5 37.5T413 488q0 61-33 86.5T295 600q-20 0-38-1.5t-29-3.5V367z" glyph-name="uni20CC" unicode="⃌"/><glyph d="M23 364h79v329q42 8 87 12.5t95 4.5q52 0 100-9t84-33 57.5-66T547 494q0-61-21-103t-56-68.5-80-38-94-11.5h-68v-58h160v-91H228V0H102v124H23v91h79v58H23v91zm205 3h52q27 0 51.5 6.5T374 394t28.5 37.5T413 488q0 61-33 86.5T295 600q-20 0-38-1.5t-29-3.5V367z" glyph-name="uni20CD" unicode="⃍"/><glyph d="M23 364h79v329q42 8 87 12.5t95 4.5q52 0 100-9t84-33 57.5-66T547 494q0-61-21-103t-56-68.5-80-38-94-11.5h-68v-58h160v-91H228V0H102v124H23v91h79v58H23v91zm205 3h52q27 0 51.5 6.5T374 394t28.5 37.5T413 488q0 61-33 86.5T295 600q-20 0-38-1.5t-29-3.5V367z" glyph-name="uni20CE" unicode="⃎"/><glyph d="M23 364h79v329q42 8 87 12.5t95 4.5q52 0 100-9t84-33 57.5-66T547 494q0-61-21-103t-56-68.5-80-38-94-11.5h-68v-58h160v-91H228V0H102v124H23v91h79v58H23v91zm205 3h52q27 0 51.5 6.5T374 394t28.5 37.5T413 488q0 61-33 86.5T295 600q-20 0-38-1.5t-29-3.5V367z" glyph-name="uni20CF" unicode="⃏"/><glyph d="M406 30q-22-14-57.5-28T278-12q-63 0-91.5 30.5T158 114v104l-50-44-35 44 85 74v254q0 44 10 75.5t27.5 51.5 41 29.5T287 712q48 0 79-29.5t31-89.5q0-74-40-157T226 265V125q0-44 17-60.5T284 48q25 0 55 10.5T389 80zm-73 558q0 34-14 49t-32 15q-12 0-23-3.5t-19.5-14-13.5-29-5-48.5V345q56 65 81.5 125.5T333 588z" glyph-name="afii61289" horiz-adv-x="500" unicode="ℓ"/><glyph d="M655 321h314V210H655v111zm-421 41-55 113h-5l16-110V0H60v705h100l250-370 52-110h6l-16 107v368h130V-5h-99zm400 180q0 45 13 77t36 53 55.5 30.5T809 712t70-9 55.5-29 36.5-52.5 13-79.5-13-79.5-36.5-52.5-55.5-29-70-9-70.5 9-55.5 29-36 52.5-13 79.5zm116 0q0-86 59-86 31 0 44.5 18.5T867 542q0 48-13.5 67T809 628t-45-19-14-67z" glyph-name="afii61352" horiz-adv-x="1027" unicode="№"/><glyph d="M395 590H277V340H147v250H29v110h366V590zm405-106 17 103h-6l-36-85-68-117h-78l-68 114-39 88h-5l23-102V340H429v360h130l91-150 24-63h1l25 65 84 148h129V340H800v144z" glyph-name="trademark" horiz-adv-x="948" unicode="™"/><glyph d="M157 259V78q62-59 145-59 124 0 193 120l35-21q-43-66-99-100.5T302-17q-59 0-107 21.5T113.5 63 62 150.5 44 259q0 59 18.5 109.5T115 456t81.5 58T302 535q62 0 109.5-22t80.5-59.5 50-87.5 19-107H157zm291 36v145q-63 60-147 60-86 0-144-60V295h291z" glyph-name="estimated" horiz-adv-x="600" unicode="℮"/><glyph d="M276 503q21 0 36-2t26-5.5 20-8 17-9.5h5q-5 39-25 65t-48.5 42-62.5 22.5-68 6.5h-14.5l-13.5-1 22 101q8 1 16.5 1H203q66 0 123-15t98.5-50 65.5-94 24-146q0-112-21.5-192T433 86.5t-90.5-76T228-14q-99 0-154.5 54.5T18 189q0 57 15.5 113t47 101 80.5 72.5T276 503zm8-110q-57 0-94.5-53T152 194q0-41 21.5-69.5T239 96q41 0 68 23t43.5 60 23 84 6.5 94q-18 17-40 26.5t-56 9.5z" glyph-name="partialdiff" horiz-adv-x="538" unicode="∂"/><glyph d="M463 578H197v-778H60v900h533v-900H463v778z" glyph-name="product" horiz-adv-x="654" unicode="∏"/><glyph d="m183-38-42-40h360v-122H20v122l186 292 42 34-46 37L20 578v122h481V578H153l46-41 172-281z" glyph-name="summation" horiz-adv-x="527" unicode="∑"/><glyph d="M43 394h442V282H43v112z" glyph-name="minus" horiz-adv-x="527" unicode="−"/><glyph d="m436 715 85-50L91-14 5 39z" glyph-name="uni2215" horiz-adv-x="527" unicode="∕"/><glyph d="m187 475 79-186 22-115h4l18 117 120 409h125L325-5h-67L107 364H-5v111h192z" glyph-name="radical" horiz-adv-x="527" unicode="√"/><glyph d="M417 265q-36-58-87-86t-113-28q-36 0-69 13.5t-58 39-40 62T35 348q0 48 15 86t40.5 64.5 60.5 40 76 13.5q74 0 124-29.5t87-74.5q45 56 96 80t112 24q37 0 69-13.5t56-38.5 37.5-61.5T822 356q0-49-15-87t-42-64.5-64-40-80-13.5q-36 0-66 9t-54.5 24.5-45 36T417 265zm203-3q35 0 57.5 25.5T700 353q0 16-5 32t-15 28.5-25.5 20T618 441q-31 0-64-18.5T492 366q11-21 25-39.5t30.5-33 35-23T620 262zM237 441q-34 0-57.5-26.5T156 349q0-38 25-62.5t62-24.5q32 0 65 22.5t57 55.5q-23 45-54.5 73T237 441z" glyph-name="infinity" horiz-adv-x="857" unicode="∞"/><glyph d="M247-34q0-96-39-135T91-208q-46 0-87.5 7T-62-184l29 102q44-17 84-17 38 0 52 23.5T117 3v535q0 96 36.5 136T271 714q18 0 38.5-2t40.5-5.5 38-8 31-9.5l-22-102q-23 8-42.5 12.5T308 604q-35 0-48-20.5T247 509V-34z" glyph-name="integral" horiz-adv-x="368" unicode="∫"/><glyph d="M30 473q47 38 84.5 52.5T184 540q29 0 54-8.5t48-18 45.5-18T377 487q18 0 37 6t40 23l47-103q-36-27-66-38t-56-11q-28 0-52 9t-46.5 20-45.5 20-49 9q-24 0-51.5-10.5T74 373zm0-193q47 38 84.5 52.5T184 347q29 0 54-8.5t48-18 45.5-18T377 294q18 0 37 6t40 23l47-103q-36-27-66-38t-56-11q-28 0-52 9t-46.5 20-45.5 20-49 9q-24 0-51.5-10.5T74 180z" glyph-name="approxequal" horiz-adv-x="527" unicode="≈"/><glyph d="M43 490h232l50 113h113l-50-113h97V378H338l-36-80h183V186H253L196 57H84l57 129H43v112h147l36 80H43v112z" glyph-name="notequal" horiz-adv-x="527" unicode="≠"/><glyph d="m483 80-56-96L45 199l56 96zM34 413v70l386 231 57-90-224-139-91-35 90-31 230-137-57-90z" glyph-name="lessequal" horiz-adv-x="527" unicode="≤"/><glyph d="M488 205 107-16 51 79l380 222zm0 288v-70L102 192l-57 90 224 139 91 35-90 31L40 624l57 90z" glyph-name="greaterequal" horiz-adv-x="527" unicode="≥"/><glyph d="M299-5h-75L27 342l197 363h75l201-358zm-1 206 80 133-91 157-27 84h-5l-28-86-78-134 90-156 28-84h4z" glyph-name="lozenge" horiz-adv-x="527" unicode="◊"/><glyph d="M453 293H197V0H60v700h137V415h256v285h137V122h88v-247h-96L567 0H453v293z" glyph-name="uni2C67" horiz-adv-x="696" unicode="Ⱨ"/><glyph d="M493 115h80v-229h-95L463 0H363v284q0 61-17 88t-62 27q-33 0-60.5-22.5T187 319V0H57v700h130V444h4q24 32 59 51t89 19q38 0 67-10t48.5-33 29-62.5T493 311V115z" glyph-name="uni2C68" horiz-adv-x="590" unicode="ⱨ"/><glyph d="M-283 870h159v-30l-160-88h-103z" glyph-name="uniF401" horiz-adv-x="2" unicode=""/><glyph d="M112 875q20-26 58-40t85-14q48 0 82.5 15t54.5 39l49-32q-12-29-32-50t-45-35-53.5-21-56.5-7q-27 0-55.5 6T144 754.5t-48 33T60 838z" glyph-name="uniF406" horiz-adv-x="501" unicode=""/><glyph d="m208 0-24-43q41-4 64.5-21.5T272-118q0-23-11.5-40T229-186.5 182-204t-58-6-64 6l9 48q7-1 13-1h11q38 0 49 9t11 21q0 28-86 32l57 95h84z" glyph-name="uniF407" horiz-adv-x="332" unicode=""/><glyph d="M193 870h96l127-93v-39h-99l-57 41-20 34-21-33-62-42H60v40z" glyph-name="uniF408" horiz-adv-x="476" unicode=""/><glyph d="M60-105q0 29 19.5 46T128-42q35 0 57-23t22-65q0-33-11-58t-27-42.5-34-28-31-14.5l-34 54q14 7 28 19.5t16 33.5q-20-1-37 14.5T60-105z" glyph-name="uniF409" horiz-adv-x="267" unicode=""/><glyph d="M38 644q0 29 19.5 47t49.5 18q36 0 57-24t21-63q0-40-12.5-68t-30-46.5-37-29T73 463l-33 55q20 9 35.5 24T93 580q-20-1-37.5 15.5T38 644z" glyph-name="uniF40A" horiz-adv-x="223" unicode=""/><glyph d="M60 799q0 25 21.5 43t64.5 18 66-18 23-43q0-26-23-44t-66-18-64.5 18T60 799z" glyph-name="uniF40B" horiz-adv-x="295" unicode=""/><glyph d="M60 772q0 18 6 34.5t20.5 29 39 19.5 62.5 7q70 0 99-24t29-66q0-18-6.5-34T288 710.5 248.5 692t-60.5-7q-71 0-99.5 24.5T60 772zm84 0q0-31 44-31 25 0 35 8t10 23q0 17-10.5 25t-34.5 8q-44 0-44-33z" glyph-name="uniF40C" horiz-adv-x="376" unicode=""/><glyph d="M60 800q32 35 61.5 48t58.5 13q22 0 44-5.5t42.5-12 40.5-12 38-5.5q16 0 31 5t29 19l25-67q-28-26-54.5-36.5T324 736q-23 0-44 5.5T238.5 754 198 766.5t-39 5.5-37.5-7.5T84 737z" glyph-name="uniF40D" horiz-adv-x="490" unicode=""/><glyph d="M263 10q-76-22-76-79 0-18 11-30.5t31-12.5q18 0 42 12l19-62q-15-12-47.5-23.5T175-197q-56 0-85.5 25T60-106t27.5 70T163 10h100z" glyph-name="uniF40E" horiz-adv-x="350" unicode=""/><glyph d="M531 537q0-26-6.5-52T503 437.5t-39-38-58-24.5v-6q30-5 57-17t47-33 31.5-51 11.5-71q0-54-23-93.5T468.5 39 381 2 280-10h-43.5l-57 1.5-62 4.5L60 5v690q19 3 43.5 6t52.5 5 57.5 3 58.5 1q49 0 95.5-7.5t83-26.5 58.5-53 22-86zM281 103q25 0 48.5 6t41.5 18.5 29 31.5 11 45q0 33-13 52t-34 29.5-47 13.5-52 3h-73V109q5-2 16-3t23.5-1.5 26-1 23.5-.5zm-45 303q14 0 32.5 1t30.5 3q38 12 65.5 36t27.5 63q0 26-10 43t-26.5 27-37.5 14-44 4q-26 0-48-1t-34-3V406h44zm52 464h159v-30l-160-88H184z" glyph-name="uniF486" horiz-adv-x="591" unicode=""/><glyph d="M57 700h130V460h4q21 24 54 38t73 14q90 0 137.5-61.5T503 263q0-135-66.5-205T254-12q-64 0-117 10.5T57 22v678zm223-298q-36 0-58.5-18.5T187 330V112q16-8 34.5-11t39.5-3q53 0 80.5 38.5T369 259q0 143-89 143zm33 318h132v-30L334 566h-74z" glyph-name="uniF487" horiz-adv-x="536" unicode=""/><glyph d="M60 700h415V578H197V405h256V283H197V0H60v700zm228 170h159v-30l-160-88H184z" glyph-name="uniF488" horiz-adv-x="508" unicode=""/><glyph d="M11 500h69v28q0 95 40 137.5T236 708q80 0 133-19l-25-104q-23 8-40.5 10.5T267 598q-20 0-31.5-6t-17-18.5-7-31T210 500h110V390H210V0H80v390H11v110zm240 370h159v-30l-160-88H147z" glyph-name="uniF489" horiz-adv-x="321" unicode=""/><glyph d="M-17 607h77v93h137v-93h221v-93H197v-96q26 15 69.5 27.5T370 458q42 0 76.5-10.5t60-34 39.5-60 14-88.5V0H423v222q0 60-23.5 89.5T322 341q-38 0-71.5-8.5T197 307V0H60v514h-77v93z" glyph-name="uniF49E" horiz-adv-x="606" unicode=""/><glyph d="M-6 641h74v59h130v-59h161v-80H198V444h4q24 32 59 51t89 19q38 0 67-10t48.5-33 29-62.5T504 311V0H374v284q0 61-17 88t-62 27q-33 0-60.5-22.5T198 319V0H68v561H-6v80z" glyph-name="uniF49F" horiz-adv-x="556" unicode=""/><glyph d="M183 700V478q0-60 23.5-89.5T284 359q38 0 71.5 8.5T409 393v307h137V-21q0-91-38.5-139T389-208q-15 0-31.5 1.5T324-201v109q4 0 7.5-.5t7.5-.5q43 0 56.5 24.5T409 0v282q-26-15-69.5-27.5T236 242q-42 0-76.5 10.5t-60 34-39.5 60T46 435v265h137z" glyph-name="uniF4C6" horiz-adv-x="606" unicode=""/><glyph d="M318 196q-15-11-46-24.5T189 158q-37 0-66 8t-49 28-30.5 53T33 330v170h130V386q0-31 2.5-53.5t10-36.5 21-21 35.5-7q29 0 50.5 6.5T318 291v209h130V-21q0-91-36-139t-115-48q-30 0-64 7v109q4 0 7.5-.5t7.5-.5q43 0 56.5 24.5T318 0v196z" glyph-name="uniF4C7" horiz-adv-x="505" unicode=""/><glyph d="m294 391 20-91h6l16 94 105 306h141L396 216q-22-57-42.5-99t-44-69.5-52.5-41T189-7q-33 0-53.5 4.5T91 17l35 111q17-9 31-11t30-2q47 0 66 74L-9 700h161zm7 479h159v-30l-160-88H197z" glyph-name="uniF4CC" horiz-adv-x="568" unicode=""/><glyph d="m239 219 18-78h6l13 79 76 280h134L334 49Q315-7 297.5-53.5T259-134t-46.5-52.5T152-205q-52 0-83 17L93-84q15-6 30-6 23 0 44.5 19.5T200 0L-9 500h156zm14 501h132v-30L274 566h-74z" glyph-name="uniF4CD" horiz-adv-x="478" unicode=""/><glyph d="M130 410h269q-3 40-16.5 73.5T346 541t-57 37.5-77 13.5q-54 0-94-11.5T53 555L24 671q35 18 88 30.5T217 714q69 0 127.5-19t101-62.5 66.5-113T536 350q0-104-28-174T433 64 325 4 198-14Q141-14 94.5-4T20 19l36 119q23-11 62-20.5t90-9.5q39 0 72 11t58.5 34.5T380 213t20 87H130v110zm16 389q0 25 21.5 43t64.5 18 66-18 23-43q0-26-23-44t-66-18-64.5 18-21.5 44z" glyph-name="uniF4D6" horiz-adv-x="574" unicode=""/><glyph d="M109 300h186q-5 50-33 77t-83 27q-38 0-67-9t-51-21l-35 94q66 46 178 46t167-66.5T426 250q0-132-62-198T194-14q-47 0-95 9.5T23 22l32 102q23-13 54.5-20.5T173 96q64 0 91 27t32 84H109v93zm1 341q0 29 21.5 49.5T191 711t61.5-20.5T276 641t-23.5-48.5T191 573t-59.5 19.5T110 641z" glyph-name="uniF4D7" horiz-adv-x="459" unicode=""/><glyph d="M120 310v107h46l26.5.5 26.5 2 21 3.5q35 8 60 28.5t25 55.5q0 48-30.5 65.5T214 590q-45 0-84-12t-59-23L36 671q11 6 31.5 13t47 13.5T172 708t63 4q44 0 86-8t75-28 53-53.5 20-85.5-27.5-96-88.5-64v-5q65-13 101.5-56T491 201q0-49-17.5-85.5T427 53t-67.5-41.5T278-10l-14-165h-88L157-11Q112-6 76 3T18 23l35 119q23-11 66-22.5T221 108q22 0 44.5 5.5t40.5 18 29 32.5 11 48q0 47-35 71t-125 26q-12 1-18 1h-48z" glyph-name="uni0498.alt" horiz-adv-x="526" unicode=""/><glyph d="M109 207v91h61q35 0 57.5 14.5T250 350q0 27-19.5 38T170 399q-39 0-69.5-10.5T52 367L24 467q30 17 79.5 29.5T209 509q86 0 128.5-32t42.5-93q0-17-4.5-34.5T361 316t-24.5-28.5T302 268v-4q53-12 75-42.5t22-81.5-34-90.5T259-4l-14-171h-88L138-8Q100-4 71.5 5.5T22 27l28 101q23-13 56-21.5t73-8.5q90 0 90 58 0 26-23.5 38.5T158 207h-49z" glyph-name="uni0499.alt" horiz-adv-x="432" unicode=""/><glyph d="M534 29q-26-19-65.5-29T385-13l-16-30q41-4 64.5-21.5T457-118q0-23-11.5-40T414-186.5 367-204t-58-6-64 6l9 48q7-1 13-1h11q38 0 49 9t11 21q0 28-86 32l50 84q-55 7-103 30.5T115 87 58.5 196 38 350q0 103 28.5 172.5t74 112 101.5 61T354 714q60 0 101.5-8t68.5-19l-27-116q-23 11-54.5 16t-76.5 5q-83 0-133.5-59T182 350q0-54 12-98.5t36.5-76 61-49T376 109q45 0 76 9t54 23z" glyph-name="uni04AA.alt02" horiz-adv-x="559" unicode=""/><glyph d="M411 31q-23-17-52.5-27T296-11l-18-32q41-4 64.5-21.5T366-118q0-23-11.5-40T323-186.5 276-204t-58-6-64 6l9 48q7-1 13-1h11q38 0 49 9t11 21q0 28-86 32l50 84q-49 6-83 27.5t-55 55-30.5 79T33 250q0 127 57 195.5T256 514q55 0 88.5-9t60.5-23l-31-106q-23 11-45.5 17t-51.5 6q-54 0-82-35.5T167 250q0-32 7-59t21-47 36.5-31.5T284 101q33 0 56 8.5t41 20.5z" glyph-name="uni04AB.alt02" horiz-adv-x="433" unicode=""/><glyph d="M405 155H190L137 0H0l252 705h101L605 0H461zM225 265h150l-52 156-21 110h-5l-21-111zm-91 591h343v-89H134v89z" glyph-name="uniF50E" horiz-adv-x="605" unicode=""/><glyph d="M54 471q40 18 95 28.5T264 510q52 0 87-12.5t55.5-35.5 29-55 8.5-72q0-44-3-88.5t-3.5-87.5 2.5-83.5T455-1H349l-21 69h-5q-20-31-55.5-53.5T176-8q-35 0-63 10.5t-48 30-31 46T23 138q0 46 20.5 77.5t59 51 92 27T314 298q7 56-8 80.5T239 403q-39 0-82.5-8T85 374zM219 99q39 0 62 17.5t34 37.5v65q-31 3-59.5 1t-50.5-9-35-20-13-33q0-28 16.5-43.5T219 99zM91 658h323v-92H91v92z" glyph-name="uniF50F" horiz-adv-x="496" unicode=""/><glyph d="M60 700h415V578H197V415h253V293H197V122h283V0H60v700zm37 156h343v-89H97v89z" glyph-name="uniF510" horiz-adv-x="522" unicode=""/><glyph d="M457 43q-30-24-81.5-40.5T266-14Q145-14 89 56.5T33 250q0 132 63 198t177 66q38 0 74-10t64-33 45-62 17-97q0-21-2.5-45t-7.5-50H163q3-63 32.5-95T291 90q41 0 73.5 12.5T414 128zM271 410q-51 0-75.5-30.5T166 298h186q4 54-16.5 83T271 410zM97 658h323v-92H97v92z" glyph-name="uniF511" horiz-adv-x="508" unicode=""/><glyph d="M60 700h415V578H197V415h253V293H197V122h283V0H60v700zm22 98q0 26 18 42t58 16q39 0 57-16t18-42-18-41.5-57-15.5q-40 0-58 15.5T82 798zm214 0q0 26 18 42t57 16q40 0 58-16t18-42-18-41.5-58-15.5q-39 0-57 15.5T296 798zM92 983h343v-89H92v89z" glyph-name="uniF512" horiz-adv-x="522" unicode=""/><glyph d="M457 43q-30-24-81.5-40.5T266-14Q145-14 89 56.5T33 250q0 132 63 198t177 66q38 0 74-10t64-33 45-62 17-97q0-21-2.5-45t-7.5-50H163q3-63 32.5-95T291 90q41 0 73.5 12.5T414 128zM271 410q-51 0-75.5-30.5T166 298h186q4 54-16.5 83T271 410zM82 626q0 32 19.5 51t51.5 19 50.5-19 18.5-51q0-30-18.5-49T153 558t-51.5 19T82 626zm219 0q0 32 18.5 51t50.5 19 51.5-19 19.5-51q0-30-19.5-49T370 558t-50.5 19-18.5 49zM90 848h343v-89H90v89z" glyph-name="uniF513" horiz-adv-x="508" unicode=""/><glyph d="M60 700h415V578H197V415h253V293H197V122h283V0H60v700zm22 98q0 26 18 42t58 16q39 0 57-16t18-42-18-41.5-57-15.5q-40 0-58 15.5T82 798zm214 0q0 26 18 42t57 16q40 0 58-16t18-42-18-41.5-58-15.5q-39 0-57 15.5T296 798zm-99 212q4-32 23.5-46t50.5-14q67 0 74 59l111-17q-11-63-57.5-92T270 871q-41 0-75 6t-59.5 19.5-42 36.5T73 990z" glyph-name="uniF514" horiz-adv-x="522" unicode=""/><glyph d="M457 43q-30-24-81.5-40.5T266-14Q145-14 89 56.5T33 250q0 132 63 198t177 66q38 0 74-10t64-33 45-62 17-97q0-21-2.5-45t-7.5-50H163q3-63 32.5-95T291 90q41 0 73.5 12.5T414 128zM271 410q-51 0-75.5-30.5T166 298h186q4 54-16.5 83T271 410zM82 632q0 32 19.5 51t51.5 19 50.5-19 18.5-51q0-30-18.5-49T153 564t-51.5 19T82 632zm219 0q0 32 18.5 51t50.5 19 51.5-19 19.5-51q0-30-19.5-49T370 564t-50.5 19-18.5 49zM196 866q4-32 23.5-46t50.5-14q67 0 74 59l111-17q-11-63-57.5-92T269 727q-41 0-75 6t-59.5 19.5-42 36.5T72 846z" glyph-name="uniF515" horiz-adv-x="508" unicode=""/><glyph d="M120 310v107h46l26.5.5 26.5 2 21 3.5q35 8 60 28.5t25 55.5q0 48-30.5 65.5T214 590q-45 0-84-12t-59-23L36 671q11 6 31.5 13t47 13.5T172 708t63 4q44 0 86-8t75-28 53-53.5 20-85.5-27.5-96-88.5-64v-5q65-13 101.5-56T491 201q0-57-23-97.5T407.5 37 321-1.5 221-14q-66 0-120 11T18 23l35 119q23-11 66-22.5T221 108q22 0 44.5 5.5t40.5 18 29 32.5 11 48q0 47-35 71t-125 26q-12 1-18 1h-48zm163 427h-94L62 831v39h105l53-45 19-30 21 29 56 46h100v-40z" glyph-name="uniF516" horiz-adv-x="526" unicode=""/><glyph d="M109 207v91h61q35 0 57.5 14t22.5 37q0 27-20 38.5T169 399q-39 0-69-10t-48-21l-28 99q30 17 79.5 29.5T209 509q86 0 128.5-32t42.5-93q0-17-4.5-34.5T361 316t-24.5-28.5T302 268v-4q53-12 75-42.5t22-81.5q0-32-13-59.5T346.5 33 280 1t-95-12T89.5.5 22 27l28 101q23-13 55.5-21t72.5-8q91 0 91 58 0 26-23.5 38T158 207h-49zm132 343h-91L35 732h110l39-66 16-49 18 49 45 66h101z" glyph-name="uniF517" horiz-adv-x="432" unicode=""/><glyph d="M38 350q0 175 77 269.5T335 714q75 0 131-26t93-74 55-115 18-149q0-175-77.5-269.5T335-14q-76 0-132 26t-92.5 74T56 201 38 350zm144 0q0-53 9-97.5t27.5-76.5 47.5-50 69-18q73 0 113 57t40 185q0 51-8.5 95T453 522t-47 51.5-71 18.5q-73 0-113-58.5T182 350zm-15 506h343v-89H167v89z" glyph-name="uniF518" horiz-adv-x="670" unicode=""/><glyph d="M33 250q0 127 62 195.5T269 514q60 0 104-19t73-53.5 43.5-83.5T504 250q0-127-61.5-195.5T269-14q-60 0-104 19T91.5 58.5t-44 83.5T33 250zm134 0q0-33 6-61t18-49 31.5-32.5T269 96q51 0 76 37t25 117q0 69-23 111.5T269 404q-48 0-75-36t-27-118zm-61 408h323v-92H106v92z" glyph-name="uniF519" horiz-adv-x="537" unicode=""/><glyph d="M38 350q0 175 77 269.5T335 714q75 0 131-26t93-74 55-115 18-149q0-175-77.5-269.5T335-14q-76 0-132 26t-92.5 74T56 201 38 350zm144 0q0-53 9-97.5t27.5-76.5 47.5-50 69-18q73 0 113 57t40 185q0 51-8.5 95T453 522t-47 51.5-71 18.5q-73 0-113-58.5T182 350zm84 524q4-32 23.5-46t50.5-14q67 0 74 59l111-17q-11-63-57.5-92T339 735q-41 0-75 6t-59.5 19.5-42 36.5-20.5 57z" glyph-name="uniF51A" horiz-adv-x="670" unicode=""/><glyph d="M33 250q0 127 62 195.5T269 514q60 0 104-19t73-53.5 43.5-83.5T504 250q0-127-61.5-195.5T269-14q-60 0-104 19T91.5 58.5t-44 83.5T33 250zm134 0q0-33 6-61t18-49 31.5-32.5T269 96q51 0 76 37t25 117q0 69-23 111.5T269 404q-48 0-75-36t-27-118zm41 454q7-39 23.5-55t42.5-16q28 0 44.5 16t22.5 54l99-25q-12-65-59-96.5T271 550q-31 0-60 7t-52 22.5-39 39.5-22 59z" glyph-name="uniF51B" horiz-adv-x="537" unicode=""/><glyph d="M38 350q0 175 77 269.5T335 714q75 0 131-26t93-74 55-115 18-149q0-175-77.5-269.5T335-14q-76 0-132 26t-92.5 74T56 201 38 350zm450 57q-8 89-48 137t-105 48q-29 0-55-10t-46.5-32-34-57.5T182 407h306zM182 297q8-95 49-142t104-47q29 0 55.5 9.5t47 31 34 57.5 16.5 91H182zm85 577q4-32 23.5-46t50.5-14q67 0 74 59l111-17q-11-63-57.5-92T340 735q-41 0-75 6t-59.5 19.5-42 36.5-20.5 57z" glyph-name="uniF51C" horiz-adv-x="670" unicode=""/><glyph d="M33 250q0 127 62 195.5T269 514q60 0 104-19t73-53.5 43.5-83.5T504 250q0-127-61.5-195.5T269-14q-60 0-104 19T91.5 58.5t-44 83.5T33 250zm337 39q-8 60-33.5 87.5T269 404q-19 0-36-6t-30.5-19.5-23-35.5-12.5-54h203zm-203-82q6-54 34-82.5T269 96q38 0 66.5 24.5T370 207H167zm41 497q7-39 23.5-55t42.5-16q28 0 44.5 16t22.5 54l99-25q-12-65-59-96.5T271 550q-31 0-60 7t-52 22.5-39 39.5-22 59z" glyph-name="uniF51D" horiz-adv-x="537" unicode=""/><glyph d="M38 350q0 175 77 269.5T335 714q75 0 131-26t93-74 55-115 18-149q0-175-77.5-269.5T335-14q-76 0-132 26t-92.5 74T56 201 38 350zm144 0q0-53 9-97.5t27.5-76.5 47.5-50 69-18q73 0 113 57t40 185q0 51-8.5 95T453 522t-47 51.5-71 18.5q-73 0-113-58.5T182 350zm-29 448q0 26 18 42t58 16q39 0 57-16t18-42-18-41.5-57-15.5q-40 0-58 15.5T153 798zm214 0q0 26 18 42t57 16q40 0 58-16t18-42-18-41.5-58-15.5q-39 0-57 15.5T367 798zm-99 212q4-32 23.5-46t50.5-14q67 0 74 59l111-17q-11-63-57.5-92T341 871q-41 0-75 6t-59.5 19.5-42 36.5-20.5 57z" glyph-name="uniF51E" horiz-adv-x="670" unicode=""/><glyph d="M33 250q0 127 62 195.5T269 514q60 0 104-19t73-53.5 43.5-83.5T504 250q0-127-61.5-195.5T269-14q-60 0-104 19T91.5 58.5t-44 83.5T33 250zm134 0q0-33 6-61t18-49 31.5-32.5T269 96q51 0 76 37t25 117q0 69-23 111.5T269 404q-48 0-75-36t-27-118zM90 632q0 32 19.5 51t51.5 19 50.5-19 18.5-51q0-30-18.5-49T161 564t-51.5 19T90 632zm219 0q0 32 18.5 51t50.5 19 51.5-19 19.5-51q0-30-19.5-49T378 564t-50.5 19-18.5 49zM196 866q4-32 23.5-46t50.5-14q67 0 74 59l111-17q-11-63-57.5-92T269 727q-41 0-75 6t-59.5 19.5-42 36.5T72 846z" glyph-name="uniF51F" horiz-adv-x="537" unicode=""/><glyph d="M600 700h137V0H600v700zm-540 0h137V449q11 2 35 5t47 3q50 0 95.5-10t79.5-35.5 54-69T528 233q0-122-71-182.5T246-10q-14 0-36 .5T162.5-7 110-2 60 7v693zm196-588q57 0 92.5 26.5T384 227q0 33-10 54t-27 33-40 16.5-50 4.5q-14 0-33-2.5t-27-5.5V118q11-3 26.5-4.5T256 112zm-36 744h343v-89H220v89z" glyph-name="uniF520" horiz-adv-x="798" unicode=""/><glyph d="M187 109q30-6 57-6 45 0 63 16.5t18 51.5q0 32-18 48.5T247 236q-33 0-60-7V109zm0 213q24 4 48.5 5.5T280 329q51 0 85-11.5t55-32.5 30-49.5 9-61.5q0-45-12-79t-39-56.5-70-34T232-7q-57 0-98.5 2T57 0v500h130V322zm329 178h130V0H516v500zM184 658h323v-92H184v92z" glyph-name="uniF521" horiz-adv-x="703" unicode=""/><glyph d="M130 410h269q-3 40-16.5 73.5T346 541t-57 37.5-77 13.5q-54 0-94-11.5T53 555L24 671q35 18 88 30.5T217 714q69 0 127.5-19t101-62.5 66.5-113T536 350q0-104-28-174T433 64 325 4 198-14Q141-14 94.5-4T20 19l36 119q23-11 62-20.5t90-9.5q39 0 72 11t58.5 34.5T380 213t20 87H130v110zM67 856h343v-89H67v89z" glyph-name="uniF522" horiz-adv-x="574" unicode=""/><glyph d="M109 300h186q-5 50-33 77t-83 27q-38 0-67-9t-51-21l-35 94q66 46 178 46t167-66.5T426 250q0-132-62-198T194-14q-47 0-95 9.5T23 22l32 102q23-13 54.5-20.5T173 96q64 0 91 27t32 84H109v93zM49 658h323v-92H49v92z" glyph-name="uniF523" horiz-adv-x="459" unicode=""/><glyph d="M130 410h269q-3 40-16.5 73.5T346 541t-57 37.5-77 13.5q-54 0-94-11.5T53 555L24 671q35 18 88 30.5T217 714q69 0 127.5-19t101-62.5 66.5-113T536 350q0-104-28-174T433 64 325 4 198-14Q141-14 94.5-4T20 19l36 119q23-11 62-20.5t90-9.5q39 0 72 11t58.5 34.5T380 213t20 87H130v110zm38 464q4-32 23.5-46t50.5-14q67 0 74 59l111-17q-11-63-57.5-92T241 735q-41 0-75 6t-59.5 19.5-42 36.5T44 854z" glyph-name="uniF524" horiz-adv-x="574" unicode=""/><glyph d="M109 300h186q-5 50-33 77t-83 27q-38 0-67-9t-51-21l-35 94q66 46 178 46t167-66.5T426 250q0-132-62-198T194-14q-47 0-95 9.5T23 22l32 102q23-13 54.5-20.5T173 96q64 0 91 27t32 84H109v93zm38 404q7-39 23.5-55t42.5-16q28 0 44.5 16t22.5 54l99-25q-12-65-59-96.5T210 550q-31 0-60 7t-52 22.5T59 619t-22 59z" glyph-name="uniF525" horiz-adv-x="459" unicode=""/><glyph d="M549 29q-15-11-37.5-19.5T463.5-4 411-11.5 358-14q-65 0-123 19.5t-101.5 63-69.5 113T38 350q0 103 29 172.5t75.5 112 104 61T362 714q60 0 105-8t72-19l-26-119q-23 11-58.5 17.5T374 592q-35 0-66.5-10.5t-56-32.5-42-55-24.5-78h275V304H182q11-89 62.5-142.5T384 108q45 0 80 9t57 22zM158 798q0 26 18 42t58 16q39 0 57-16t18-42-18-41.5-57-15.5q-40 0-58 15.5T158 798zm214 0q0 26 18 42t57 16q40 0 58-16t18-42-18-41.5-58-15.5q-39 0-57 15.5T372 798z" glyph-name="uniF526" horiz-adv-x="577" unicode=""/><glyph d="M435 31Q405 9 360-2.5T270-14q-60 0-104 19T93.5 58.5 51 142 37 250q0 63 17 112t48 83 75 51.5 98 17.5 90-9 63-23l-30-106q-23 11-48.5 17t-54.5 6q-47 0-80.5-24T171 297h196v-88H170q9-48 41.5-78t90.5-30q34 0 59 8.5t44 20.5zM82 632q0 32 19.5 51t51.5 19 50.5-19 18.5-51q0-30-18.5-49T153 564t-51.5 19T82 632zm219 0q0 32 18.5 51t50.5 19 51.5-19 19.5-51q0-30-19.5-49T370 564t-50.5 19-18.5 49z" glyph-name="uniF527" horiz-adv-x="457" unicode=""/><glyph d="M519 0H382v277l-72-19L164 0H5l144 233 60 43q-32 8-60 24.5T100 343t-33 61.5T55 485q0 63 22 106t61 69.5 93 38T348 710q17 0 39-1t45.5-3 46-5 40.5-8V0zM331 588q-27 0-51-5t-42-17-28.5-33-10.5-54q0-31 10-52.5t28-35 42-19.5 52-6h51v217q-11 2-22.5 3.5T331 588zM148 856h343v-89H148v89z" glyph-name="uniF528" horiz-adv-x="580" unicode=""/><glyph d="m321 189-60-12L165 0H10l97 157 49 37q-49 8-81 46.5T43 337q0 91 60.5 134T289 514q48 0 89.5-5t72.5-11V0H321v189zm0 68v138q-11 5-24 7t-25 2q-45 0-70-19t-25-57 27.5-56 80.5-17zM95 658h323v-92H95v92z" glyph-name="uniF529" horiz-adv-x="503" unicode=""/><glyph d="M519 0H382v277l-72-19L164 0H5l144 233 60 43q-32 8-60 24.5T100 343t-33 61.5T55 485q0 63 22 106t61 69.5 93 38T348 710q17 0 39-1t45.5-3 46-5 40.5-8V0zM331 588q-27 0-51-5t-42-17-28.5-33-10.5-54q0-31 10-52.5t28-35 42-19.5 52-6h51v217q-11 2-22.5 3.5T331 588zm-86 286q4-32 23.5-46t50.5-14q67 0 74 59l111-17q-11-63-57.5-92T318 735q-41 0-75 6t-59.5 19.5-42 36.5-20.5 57z" glyph-name="uniF52A" horiz-adv-x="580" unicode=""/><glyph d="m321 189-60-12L165 0H10l97 157 49 37q-49 8-81 46.5T43 337q0 91 60.5 134T289 514q48 0 89.5-5t72.5-11V0H321v189zm0 68v138q-11 5-24 7t-25 2q-45 0-70-19t-25-57 27.5-56 80.5-17zM202 704q7-39 23.5-55t42.5-16q28 0 44.5 16t22.5 54l99-25q-12-65-59-96.5T265 550q-31 0-60 7t-52 22.5-39 39.5-22 59z" glyph-name="uniF52B" horiz-adv-x="503" unicode=""/><glyph d="M197 415h93q13 143 84 221t199 78q76 0 130-26t88.5-74 51-115T859 350q0-175-72-269.5T573-14q-66 0-116.5 22T371 70t-55 97-26 126h-93V0H60v700h137V415zm233-65q0-53 7.5-97.5t24-76.5 44-50 67.5-18q73 0 107.5 57T715 350q0 51-6.5 95T686 522t-43.5 51.5T573 592q-72 0-107.5-58.5T430 350zM283 856h343v-89H283v89z" glyph-name="uniF52C" horiz-adv-x="897" unicode=""/><glyph d="M480-14q-56 0-95.5 15t-65 43-39 68-17.5 90h-76V0H57v500h130V312h77q10 97 61.5 149.5T482 514q57 0 98-19t68-53.5 39.5-83.5T700 250q0-127-54-195.5T480-14zm-93 264q0-73 20.5-113.5T480 96q46 0 66 34t20 120q0 77-19 115.5T477 404q-46 0-68-35t-22-119zM196 658h323v-92H196v92z" glyph-name="uniF52D" horiz-adv-x="734" unicode=""/><glyph d="M197 415h93q13 143 84 221t199 78q76 0 130-26t88.5-74 51-115T859 350q0-175-72-269.5T573-14q-66 0-116.5 22T371 70t-55 97-26 126h-93V0H60v700h137V415zm233-65q0-53 7.5-97.5t24-76.5 44-50 67.5-18q73 0 107.5 57T715 350q0 51-6.5 95T686 522t-43.5 51.5T573 592q-72 0-107.5-58.5T430 350zm-73 524q4-32 23.5-46t50.5-14q67 0 74 59l111-17q-11-63-57.5-92T430 735q-41 0-75 6t-59.5 19.5-42 36.5-20.5 57z" glyph-name="uniF52E" horiz-adv-x="897" unicode=""/><glyph d="M480-14q-56 0-95.5 15t-65 43-39 68-17.5 90h-76V0H57v500h130V312h77q10 97 61.5 149.5T482 514q57 0 98-19t68-53.5 39.5-83.5T700 250q0-127-54-195.5T480-14zm-93 264q0-73 20.5-113.5T480 96q46 0 66 34t20 120q0 77-19 115.5T477 404q-46 0-68-35t-22-119zm-86 454q7-39 23.5-55t42.5-16q28 0 44.5 16t22.5 54l99-25q-12-65-59-96.5T364 550q-31 0-60 7t-52 22.5-39 39.5-22 59z" glyph-name="uniF52F" horiz-adv-x="734" unicode=""/><glyph d="M426 578H277q-4-95-9-173t-13.5-140.5T232 154t-36-83q-14-23-31.5-38T128 9 90.5-3.5 56-7Q33-7 17.5-3.5T-13 7L2 125q6-2 12-3t12-1q16 0 31.5 8T84 156q15 22 26 64.5T129.5 329 143 486.5t7 213.5h413V122h88v-247h-96L540 0H426v578z" glyph-name="uniF530" horiz-adv-x="669" unicode=""/><glyph d="M329 385h-99q-6-71-14-141t-25.5-125.5-47.5-90T65-6Q7-6-17 9l16 108q16-6 30-6 20 0 35 17t25.5 61 17 119.5T116 500h343V115h88v-229h-95L437 0H329v385z" glyph-name="uniF531" horiz-adv-x="563" unicode=""/><glyph d="m468 388 8 91h-5l-46-94L163 0H60v700h137V319l-10-94h6l49 97 261 378h102V-21q0-90-34-139t-116-49q-16 0-33.5 2t-37.5 6v108q4 0 7.5-.5t7.5-.5q43 0 56 24.5T468 0v388zM273 874q4-32 23.5-46t50.5-14q67 0 74 59l111-17q-11-63-57.5-92T346 735q-41 0-75 6t-59.5 19.5-42 36.5-20.5 57z" glyph-name="uniF532" horiz-adv-x="666" unicode=""/><glyph d="m358 228 5 71h-3l-42-73L139 0H57v500h130V262l-6-68h4l41 71 180 235h82V-21q0-91-36-139t-115-48q-30 0-64 7v109q4 0 7.5-.5t7.5-.5q22 0 35.5 6t21 18T355-39.5 358 0v228zM219 704q7-39 23.5-55t42.5-16q28 0 44.5 16t22.5 54l99-25q-12-65-59-96.5T282 550q-31 0-60 7t-52 22.5-39 39.5-22 59z" glyph-name="uniF533" horiz-adv-x="545" unicode=""/><glyph d="M38 350q0 175 77 269.5T335 714q75 0 131-26t93-74 55-115 18-149q0-175-77.5-269.5T335-14q-76 0-132 26t-92.5 74T56 201 38 350zm144 0q0-53 9-97.5t27.5-76.5 47.5-50 69-18q73 0 113 57t40 185q0 51-8.5 95T453 522t-47 51.5-71 18.5q-73 0-113-58.5T182 350zm67 449q0 25 21.5 43t64.5 18 66-18 23-43q0-26-23-44t-66-18-64.5 18-21.5 44z" glyph-name="uniF534" horiz-adv-x="670" unicode=""/><glyph d="M33 250q0 127 62 195.5T269 514q60 0 104-19t73-53.5 43.5-83.5T504 250q0-127-61.5-195.5T269-14q-60 0-104 19T91.5 58.5t-44 83.5T33 250zm134 0q0-33 6-61t18-49 31.5-32.5T269 96q51 0 76 37t25 117q0 69-23 111.5T269 404q-48 0-75-36t-27-118zm20 391q0 29 21.5 49.5T268 711t61.5-20.5T353 641t-23.5-48.5T268 573t-59.5 19.5T187 641z" glyph-name="uniF535" horiz-adv-x="537" unicode=""/><glyph d="M600 700h137V0H600v700zm-540 0h137V449q11 2 35 5t47 3q50 0 95.5-10t79.5-35.5 54-69T528 233q0-122-71-182.5T246-10q-14 0-36 .5T162.5-7 110-2 60 7v693zm196-588q57 0 92.5 26.5T384 227q0 33-10 54t-27 33-40 16.5-50 4.5q-14 0-33-2.5t-27-5.5V118q11-3 26.5-4.5T256 112zm76 762q4-32 23.5-46t50.5-14q67 0 74 59l111-17q-11-63-57.5-92T405 735q-41 0-75 6t-59.5 19.5-42 36.5-20.5 57z" glyph-name="uniF536" horiz-adv-x="798" unicode=""/><glyph d="M187 109q30-6 57-6 45 0 63 16.5t18 51.5q0 32-18 48.5T247 236q-33 0-60-7V109zm0 213q24 4 48.5 5.5T280 329q51 0 85-11.5t55-32.5 30-49.5 9-61.5q0-45-12-79t-39-56.5-70-34T232-7q-57 0-98.5 2T57 0v500h130V322zm329 178h130V0H516v500zM293 704q7-39 23.5-55t42.5-16q28 0 44.5 16t22.5 54l99-25q-12-65-59-96.5T356 550q-31 0-60 7t-52 22.5-39 39.5-22 59z" glyph-name="uniF537" horiz-adv-x="703" unicode=""/><glyph d="M384 310h-21l-18-1q-88-2-124.5-28T184 209q0-26 10.5-45t28-31.5 41-18.5 50.5-6q51 0 92.5 12.5T471 144l37-108q-14-9-35.5-17.5T424 2.5t-57.5-12T303-14q-60 0-108.5 12.5t-83 38-53 65T40 195q0 73 35.5 117.5T176 370v5q-58 22-86 66t-28 96q0 48 19.5 81.5t53 54.5 77 30 91.5 9q29 0 58.5-4t55-10.5 46-14T494 669l-36-109q-25 11-63 20.5t-74 9.5q-55 0-85-18t-30-60q0-20 8-35t20.5-26 29-18 34.5-10q17-5 44-5.5t45-.5h24V310h-27zM106 798q0 26 18 42t58 16q39 0 57-16t18-42-18-41.5-57-15.5q-40 0-58 15.5T106 798zm214 0q0 26 18 42t57 16q40 0 58-16t18-42-18-41.5-58-15.5q-39 0-57 15.5T320 798z" glyph-name="uniF538" horiz-adv-x="526" unicode=""/><glyph d="M274 207q-32 0-53.5-3t-34.5-9.5-18-16-5-22.5q0-26 22.5-41.5T253 99q40 0 73 9t56 23l28-101q-26-15-67-28t-96-13Q137-11 85 31.5T33 140q0 51 23.5 80.5T130 264v4q-40 14-59 45.5T52 380q0 64 46 96.5T223 509q62 0 108.5-12.5T408 467l-28-99q-18 11-48.5 21T262 399q-41 0-60.5-11T182 350q0-23 22.5-37.5T262 298h61v-91h-49zM57 632q0 32 19.5 51t51.5 19 50.5-19 18.5-51q0-30-18.5-49T128 564t-51.5 19T57 632zm219 0q0 32 18.5 51t50.5 19 51.5-19 19.5-51q0-30-19.5-49T345 564t-50.5 19-18.5 49z" glyph-name="uniF539" horiz-adv-x="432" unicode=""/><glyph d="M74 700h137V0H74v700zm-17 99q0 25 21.5 43t64.5 18 66-18 23-43q0-26-23-44t-66-18-64.5 18T57 799z" glyph-name="afii10055.alt" horiz-adv-x="285" unicode=""/><glyph d="M70 500h130V0H70v500z" glyph-name="afii10103.alt" horiz-adv-x="269" unicode=""/><glyph d="M60 700h415V578H197V405h256V283H197V0H60v700z" glyph-name="uni0492.alt" horiz-adv-x="508" unicode=""/><glyph d="M380 385H191V277h169V173H191V0H57v500h323V385z" glyph-name="uni0493.alt" horiz-adv-x="408" unicode=""/><glyph d="M534 29q-24-17-58.5-26.5T403-11l-14-164h-88L282-7q-51 9-95.5 34T109 95.5 57 202 38 350q0 103 28.5 172.5t74 112 101.5 61T354 714q60 0 101.5-8t68.5-19l-27-116q-23 11-54.5 16t-76.5 5q-83 0-133.5-59T182 350q0-54 12-98.5t36.5-76 61-49T376 109q45 0 76 9t54 23z" glyph-name="uni04AA.alt" horiz-adv-x="559" unicode=""/><glyph d="M411 31Q373 4 317-7l-14-168h-88L196-9q-45 8-76 30T69.5 76.5t-28 77.5-8.5 96q0 127 57 195.5T256 514q55 0 88.5-9t60.5-23l-31-106q-23 11-45.5 17t-51.5 6q-54 0-82-35.5T167 250q0-32 7-59t21-47 36.5-31.5T284 101q33 0 56 8.5t41 20.5z" glyph-name="uni04AB.alt" horiz-adv-x="433" unicode=""/><glyph d="M60 700q21 3 47.5 5t54.5 3 54.5 1.5 47.5.5q93 0 159-26t107-73 60-112 19-143q0-71-18-137t-60-117-110.5-82T251-11q-16 0-42.5 1t-55 2.5-54.5 3T60-1v701zm215-112q-22 0-44.5-1t-33.5-3V115q4-1 13.5-1.5t20.5-1 21-1 15-.5q58 0 96.5 20.5t61 54.5 31.5 78.5 9 91.5q0 41-8 82.5T427.5 513 369 567t-94 21zm27 282h159v-30l-160-88H198z" glyph-name="uniF540" horiz-adv-x="647" unicode=""/><glyph d="M482 176q0-42 1-84t9-93h-93l-18 65h-4q-20-35-57.5-56.5T231-14q-94 0-146 62T33 242q0 128 58 199t170 71q31 0 51-3.5t40-11.5v203h130V176zM261 96q38 0 60 18.5t31 53.5v212q-14 11-31 16.5t-44 5.5q-55 0-82.5-37T167 238q0-64 22.5-103T261 96zm298 605h132v-30L580 547h-74z" glyph-name="uniF541" horiz-adv-x="539" unicode=""/><glyph d="M453 293H197V0H60v700h137V415h256v285h137V0H453v293zM347 870h159v-30l-160-88H243z" glyph-name="uniF542" horiz-adv-x="651" unicode=""/><glyph d="M363 0v284q0 61-17 88t-62 27q-33 0-60.5-22.5T187 319V0H57v700h130V444h4q24 32 59 51t89 19q38 0 67-10t48.5-33 29-62.5T493 311V0H363zm-41 720h132v-30L343 566h-74z" glyph-name="uniF543" horiz-adv-x="545" unicode=""/><glyph d="M503 0H60v700h137V122h306V0zM302 701h132v-30L323 547h-74z" glyph-name="uniF544" horiz-adv-x="514" unicode=""/><glyph d="M191 168q0-35 9-51t29-16q12 0 23.5 2t28.5 9l14-102q-16-8-49-16t-68-8q-57 0-87 26.5T61 100v600h130V168zm78 533h132v-30L290 547h-74z" glyph-name="uniF545" horiz-adv-x="294" unicode=""/><glyph d="M557 578H353V0H216v578H11v122h546V578zM322 870h159v-30l-160-88H218z" glyph-name="uniF546" horiz-adv-x="568" unicode=""/><glyph d="M5 500h69v94l130 37V500h122V390H204V198q0-52 10.5-74.5T254 101q20 0 34.5 4t32.5 12l23-100Q317 4 281-5t-73-9q-69 0-101.5 35.5T74 138v252H5v110zm299 201h132v-30L325 547h-74z" glyph-name="uniF547" horiz-adv-x="349" unicode=""/><glyph d="m290 289 18-119h5l20 120 134 410h144L351-5h-98L-9 700h159zm50 581h159v-30l-160-88H236z" glyph-name="uniF548" horiz-adv-x="602" unicode=""/><glyph d="m230 238 17-77h5l14 79 85 260h140L282-5h-79L-14 500h151zm9 482h132v-30L260 566h-74z" glyph-name="uniF549" horiz-adv-x="477" unicode=""/><glyph d="M120 310v107h46l26.5.5 26.5 2 21 3.5q35 8 60 28.5t25 55.5q0 48-30.5 65.5T214 590q-45 0-84-12t-59-23L36 671q11 6 31.5 13t47 13.5T172 708t63 4q44 0 86-8t75-28 53-53.5 20-85.5-27.5-96-88.5-64v-5q65-13 101.5-56T491 201q0-57-23-97.5T407.5 37 321-1.5 221-14q-66 0-120 11T18 23l35 119q23-11 66-22.5T221 108q22 0 44.5 5.5t40.5 18 29 32.5 11 48q0 47-35 71t-125 26q-12 1-18 1h-48z" glyph-name="uniF54A" horiz-adv-x="526" unicode=""/><glyph d="M101 132v90h61q18 0 34 7.5t28.5 20 20 29.5 7.5 36q0 44-22.5 64.5T159 400q-39 0-62.5-9.5T55 370l-28 98q30 17 74.5 29T204 509q91 0 135-43t44-114q0-53-27-94.5T291 199v-4q25-8 47.5-21.5t38.5-35 25.5-52T412 13q0-55-19.5-96.5t-52.5-70-76.5-43T171-211q-51 0-90.5 11.5T14-173L50-72q23-13 50-21.5t54-8.5q24 0 46.5 6.5t40.5 20T270-40t11 53q0 59-36.5 89T144 132h-43z" glyph-name="uniF54B" horiz-adv-x="437" unicode=""/><glyph d="M120 310v107h46l26.5.5 26.5 2 21 3.5q35 8 60 28.5t25 55.5q0 48-30.5 65.5T214 590q-45 0-84-12t-59-23L36 671q11 6 31.5 13t47 13.5T172 708t63 4q44 0 86-8t75-28 53-53.5 20-85.5-27.5-96-88.5-64v-5q65-13 101.5-56T491 201q0-57-23-97.5T407.5 37 321-1.5 221-14q-66 0-120 11T18 23l35 119q23-11 66-22.5T221 108q22 0 44.5 5.5t40.5 18 29 32.5 11 48q0 47-35 71t-125 26q-12 1-18 1h-48zm163 427h-94L62 831v39h105l53-45 19-30 21 29 56 46h100v-40z" glyph-name="uniF54C" horiz-adv-x="526" unicode=""/><glyph d="M101 132v90h61q18 0 34 7.5t28.5 20 20 29.5 7.5 36q0 44-22.5 64.5T159 400q-39 0-62.5-9.5T55 370l-28 98q30 17 74.5 29T204 509q91 0 135-43t44-114q0-53-27-94.5T291 199v-4q25-8 47.5-21.5t38.5-35 25.5-52T412 13q0-55-19.5-96.5t-52.5-70-76.5-43T171-211q-51 0-90.5 11.5T14-173L50-72q23-13 50-21.5t54-8.5q24 0 46.5 6.5t40.5 20T270-40t11 53q0 59-36.5 89T144 132h-43zm144 418h-91L39 732h110l39-66 16-49 18 49 45 66h101z" glyph-name="uniF54D" horiz-adv-x="437" unicode=""/><glyph d="M185 443q0-29-19.5-46.5T117 379q-37 0-58 23.5T38 465q0 40 12.5 68t30 46.5 36.5 29 33 15.5l32-54q-20-8-34-25.5T132 507q20 0 36.5-17.5T185 443z" glyph-name="uniF62C" horiz-adv-x="223" unicode=""/><glyph d="M38 469q0 29 19.5 47t49.5 18q36 0 57-24t21-63q0-40-12.5-68t-30-46.5-37-29T73 288l-33 55q20 9 35.5 24T93 405q-20-1-37.5 15.5T38 469z" glyph-name="uniF62D" horiz-adv-x="223" unicode=""/><glyph d="M358 444q0-29-19.5-46.5T290 380q-37 0-58 23.5T211 466q0 40 12.5 68t30 46.5 36.5 29 33 15.5l32-54q-20-8-34-25.5T305 508q20 0 36.5-17.5T358 444zm-173 0q0-29-19.5-46.5T117 380q-37 0-58 23.5T38 466q0 40 12.5 68t30 46.5 36.5 29 33 15.5l32-54q-20-8-34-25.5T132 508q20 0 36.5-17.5T185 444z" glyph-name="uniF62E" horiz-adv-x="396" unicode=""/><glyph d="M211 469q0 29 19.5 47t49.5 18q36 0 57-24t21-63q0-40-12.5-68t-30-46.5-37-29T246 288l-33 55q20 9 35.5 24t17.5 38q-20-1-37.5 15.5T211 469zm-173 0q0 29 19.5 47t49.5 18q36 0 57-24t21-63q0-40-12.5-68t-30-46.5-37-29T73 288l-33 55q20 9 35.5 24T93 405q-20-1-37.5 15.5T38 469z" glyph-name="uniF62F" horiz-adv-x="396" unicode=""/><glyph d="M90 525h114l-36-216H90v216z" glyph-name="uniF634" horiz-adv-x="254" unicode=""/><glyph d="M90 527h114l-36-216H90v216zm148 0h114l-36-216h-78v216z" glyph-name="uniF635" horiz-adv-x="402" unicode=""/><glyph d="m169 544 11 46-31-32-59-39-49 77 158 111h85V280H169v264z" glyph-name="one.numerator" horiz-adv-x="412" unicode=""/><glyph d="M60-105q0 29 19.5 46T128-42q35 0 57-23t22-65q0-33-11-58t-27-42.5-34-28-31-14.5l-34 54q14 7 28 19.5t16 33.5q-20-1-37 14.5T60-105z" glyph-name="uniF6C3" horiz-adv-x="267" unicode=""/><glyph d="M164 870h159v-30l-160-88H60z" glyph-name="uniF6C9" horiz-adv-x="383" unicode=""/><glyph d="M281 737h-94L60 831v39h105l53-45 19-30 21 29 56 46h100v-40z" glyph-name="uniF6CA" horiz-adv-x="474" unicode=""/><glyph d="M60 798q0 26 18 42t58 16q39 0 57-16t18-42-18-41.5-57-15.5q-40 0-58 15.5T60 798zm214 0q0 26 18 42t57 16q40 0 58-16t18-42-18-41.5-58-15.5q-39 0-57 15.5T274 798z" glyph-name="uniF6CB" horiz-adv-x="485" unicode=""/><glyph d="M323 752H218L60 840v30h159z" glyph-name="uniF6CE" horiz-adv-x="383" unicode=""/><glyph d="M119 850h134v-16l-100-93H60zm198 0h140v-16l-143-93h-94z" glyph-name="uniF6CF" horiz-adv-x="517" unicode=""/><glyph d="M60 856h343v-89H60v89z" glyph-name="uniF6D0" horiz-adv-x="463" unicode=""/><glyph d="M184 874q4-32 23.5-46t50.5-14q67 0 74 59l111-17q-11-63-57.5-92T257 735q-41 0-75 6t-59.5 19.5-42 36.5T60 854z" glyph-name="uniF6D1" horiz-adv-x="503" unicode=""/><glyph d="M170 704q7-39 23.5-55t42.5-16q28 0 44.5 16t22.5 54l99-25q-12-65-59-96.5T233 550q-31 0-60 7t-52 22.5T82 619t-22 59z" glyph-name="uniF6D4" horiz-adv-x="462" unicode=""/><glyph d="M353 700q-2-29-12-60.5t-23.5-60-28.5-51-27-32.5l-58 31q17 36 26 81.5t9 91.5h114z" glyph-name="caron.l" horiz-adv-x="188"/><glyph d="M66 700h130V0H66v700z" glyph-name="l.var" horiz-adv-x="262"/><glyph d="m342 714 73-66-576-662-73 69z" glyph-name="fraction.alt" horiz-adv-x="184"/></font>
</defs>
</svg>
